/* XPM */
static char * logo_nord_xpm[] = {
"23 16 17 1",
" 	c None",
".	c #D8DEE8",
"+	c #D8DEE9",
"@	c #88C0D0",
"#	c #D8DDEA",
"$	c #D7DEE9",
"%	c #88C1CF",
"&	c #88C1D0",
"*	c #89C0D0",
"=	c #D8DFE9",
"-	c #89C0D1",
";	c #87BFD1",
">	c #D8DEEA",
",	c #89BFD0",
"'	c #87C0CF",
")	c #87C1D0",
"!	c #88C0CF",
".+++  @@@@             ",
" ++++ @@@@             ",
"  +++# @@@@            ",
"  $+++  @@@@           ",
"   .+++ %@@@&          ",
"    ++++ *@@@  ++++++++",
"    $+++  @@@@ $+++++++",
"     =+++ &@@@-        ",
"     =+++ ;@@@@        ",
"    >+++  @@@@@@ ++++++",
"    ++++ *@@@@@@@ +++++",
"   .+++ ,@@@'@@@@      ",
"  ++++  @@@@  @@@@     ",
"  +++= @@@@    @@@*    ",
" ++++ )@@@     !@@@    ",
".+++  @@@@      @@@@   "};
