<?xml version="1.0" encoding="UTF-8" standalone="no"?>
<svg
   width="28"
   height="20"
   viewBox="0 0 28 20"
   version="1.1"
   preserveAspectRatio="xMidYMid"
   id="svg2"
   inkscape:version="1.1 (c4e8f9e, 2021-05-24)"
   sodipodi:docname="logo_hskl.svg"
   inkscape:export-filename="/home/matthias/data/dots/xmobar/.config/xmobar/logo_0003.png"
   inkscape:export-xdpi="85.714287"
   inkscape:export-ydpi="85.714287"
   xmlns:inkscape="http://www.inkscape.org/namespaces/inkscape"
   xmlns:sodipodi="http://sodipodi.sourceforge.net/DTD/sodipodi-0.dtd"
   xmlns="http://www.w3.org/2000/svg"
   xmlns:svg="http://www.w3.org/2000/svg"
   xmlns:rdf="http://www.w3.org/1999/02/22-rdf-syntax-ns#"
   xmlns:cc="http://creativecommons.org/ns#"
   xmlns:dc="http://purl.org/dc/elements/1.1/">
  <metadata
     id="metadata18">
    <rdf:RDF>
      <cc:Work
         rdf:about="">
        <dc:format>image/svg+xml</dc:format>
        <dc:type
           rdf:resource="http://purl.org/dc/dcmitype/StillImage" />
      </cc:Work>
    </rdf:RDF>
  </metadata>
  <defs
     id="defs16" />
  <sodipodi:namedview
     pagecolor="#ffffff"
     bordercolor="#666666"
     borderopacity="1"
     objecttolerance="10"
     gridtolerance="10"
     guidetolerance="10"
     inkscape:pageopacity="0"
     inkscape:pageshadow="2"
     inkscape:window-width="1920"
     inkscape:window-height="1030"
     id="namedview14"
     showgrid="false"
     inkscape:zoom="14.751576"
     inkscape:cx="7.0839889"
     inkscape:cy="9.7955635"
     inkscape:window-x="0"
     inkscape:window-y="26"
     inkscape:window-maximized="1"
     inkscape:current-layer="layer1"
     fit-margin-top="0"
     fit-margin-left="0"
     fit-margin-right="0"
     fit-margin-bottom="0"
     inkscape:pagecheckerboard="0" />
  <g
     inkscape:groupmode="layer"
     id="layer1"
     inkscape:label="NORD "
     style="display:inline"
     transform="translate(0,-161)">
    <path
       style="fill:#d8dee9"
       inkscape:connector-curvature="0"
       id="path6"
       d="M 1,180 7.0000688,171 1,162 h 4.5 l 6.000069,9 L 5.5,180 Z"
       inkscape:export-filename="/home/matthias/data/dots/xmobar/.config/xmobar/logo_nord.png"
       inkscape:export-xdpi="85.714287"
       inkscape:export-ydpi="85.714287" />
    <path
       style="fill:#88c0d0"
       inkscape:connector-curvature="0"
       id="path8"
       d="m 7.0000688,180 6.0000692,-9 -6.0000692,-9 H 11.500069 L 23.5,180 H 19 L 15.250139,174.37509 11.500069,180 Z" />
    <path
       style="fill:#d8dee9"
       inkscape:connector-curvature="0"
       id="path10"
       d="m 21.500116,174.75006 -1.999887,-2.99991 6.99991,-2.1e-4 v 3.00012 z"
       inkscape:export-filename="/home/matthias/data/dots/xmobar/.config/xmobar/logo_nord.png"
       inkscape:export-xdpi="85.714287"
       inkscape:export-ydpi="85.714287" />
    <path
       style="fill:#d8dee9"
       inkscape:connector-curvature="0"
       id="path12"
       d="m 18.500184,170.25006 -2.000093,-2.99991 10.000048,-2.1e-4 v 3.00012 z"
       inkscape:export-filename="/home/matthias/data/dots/xmobar/.config/xmobar/logo_nord.png"
       inkscape:export-xdpi="85.714287"
       inkscape:export-ydpi="85.714287" />
  </g>
  <g
     inkscape:groupmode="layer"
     id="g1075"
     inkscape:label="DRACULA - pinkish bluish copy"
     style="display:none"
     transform="translate(0,-161)"
     sodipodi:insensitive="true">
    <path
       style="fill:#ff79c6"
       inkscape:connector-curvature="0"
       id="path1067"
       d="M 1,180 7.0000688,171 1,162 h 4.5 l 6.000069,9 L 5.5,180 Z" />
    <path
       style="fill:#6272a4"
       inkscape:connector-curvature="0"
       id="path1069"
       d="m 7.0000688,180 6.0000692,-9 -6.0000692,-9 H 11.500069 L 23.5,180 H 19 L 15.250139,174.37509 11.500069,180 Z" />
    <path
       style="fill:#ff79c6"
       inkscape:connector-curvature="0"
       id="path1071"
       d="m 21.500116,174.75006 -1.999887,-2.99991 6.99991,-2.1e-4 v 3.00012 z" />
    <path
       style="fill:#ff79c6"
       inkscape:connector-curvature="0"
       id="path1073"
       d="m 18.500184,170.25006 -2.000093,-2.99991 10.000048,-2.1e-4 v 3.00012 z" />
  </g>
  <g
     inkscape:label="DRACULA - purplish greyish"
     id="g4242"
     inkscape:groupmode="layer"
     style="display:none"
     transform="translate(0,-161)"
     sodipodi:insensitive="true">
    <path
       style="fill:#f8f8f2"
       inkscape:connector-curvature="0"
       id="path6-3"
       d="M 1,180 7.0000688,171 1,162 h 4.5 l 6.000069,9 L 5.5,180 Z" />
    <path
       style="fill:#bd93f9"
       inkscape:connector-curvature="0"
       id="path8-6"
       d="m 7.0000688,180 6.0000692,-9 -6.0000692,-9 H 11.500069 L 23.5,180 H 19 L 15.250139,174.37509 11.500069,180 Z" />
    <path
       style="fill:#f8f8f2"
       inkscape:connector-curvature="0"
       id="path10-7"
       d="m 21.500116,174.75006 -1.999887,-2.99991 6.99991,-2.1e-4 v 3.00012 z" />
    <path
       style="fill:#f8f8f2"
       inkscape:connector-curvature="0"
       id="path12-5"
       d="m 18.500184,170.25006 -2.000093,-2.99991 10.000048,-2.1e-4 v 3.00012 z" />
  </g>
  <g
     inkscape:groupmode="layer"
     id="layer2"
     inkscape:label="DRACULA - purplish greenish"
     style="display:none"
     transform="translate(0,-161)"
     sodipodi:insensitive="true">
    <path
       style="fill:#50fa7b"
       inkscape:connector-curvature="0"
       id="path6-3-3"
       d="M 1,180 7.0000688,171 1,162 h 4.5 l 6.000069,9 L 5.5,180 Z"
       inkscape:export-filename="/home/matthias/data/dist/iota_xmnd/xmobar/logo_0003.png"
       inkscape:export-xdpi="9.8459845"
       inkscape:export-ydpi="9.8459845" />
    <path
       style="fill:#bd93f9"
       inkscape:connector-curvature="0"
       id="path8-6-5"
       d="m 7.0000688,180 6.0000692,-9 -6.0000692,-9 H 11.500069 L 23.5,180 H 19 L 15.250139,174.37509 11.500069,180 Z"
       inkscape:export-filename="/home/matthias/data/dist/iota_xmnd/xmobar/logo_0003.png"
       inkscape:export-xdpi="9.8459845"
       inkscape:export-ydpi="9.8459845" />
    <path
       style="fill:#50fa7b"
       inkscape:connector-curvature="0"
       id="path10-7-6"
       d="m 21.500116,174.75006 -1.999887,-2.99991 6.99991,-2.1e-4 v 3.00012 z"
       inkscape:export-filename="/home/matthias/data/dist/iota_xmnd/xmobar/logo_0003.png"
       inkscape:export-xdpi="9.8459845"
       inkscape:export-ydpi="9.8459845" />
    <path
       style="fill:#50fa7b"
       inkscape:connector-curvature="0"
       id="path12-5-2"
       d="m 18.500184,170.25006 -2.000093,-2.99991 10.000048,-2.1e-4 v 3.00012 z"
       inkscape:export-filename="/home/matthias/data/dist/iota_xmnd/xmobar/logo_0003.png"
       inkscape:export-xdpi="9.8459845"
       inkscape:export-ydpi="9.8459845" />
  </g>
</svg>
