/* XPM */
static char * logo_0001_xpm[] = {
"25 18 17 1",
" 	c None",
".	c #50FB7B",
"+	c #50FA7B",
"@	c #BD93F9",
"#	c #4FF97B",
"$	c #51FA7C",
"%	c #BD92F8",
"&	c #50F97B",
"*	c #BC92F9",
"=	c #50FB7A",
"-	c #BD92F9",
";	c #51FB7B",
">	c #BE92F9",
",	c #BC93F9",
"'	c #BC94F9",
")	c #BC93F8",
"!	c #BE93FA",
"                         ",
" .+++  @@@@              ",
"  +++# @@@@              ",
"   +++$ @@@%             ",
"   #+++  @@@@            ",
"    +++& *@@@            ",
"     ++++ @@@@ =++++++++ ",
"     &+++  @@@- ++++++++ ",
"      +++; >@@@          ",
"      +++; >@@@,         ",
"     &+++  @@@@@' ++++++ ",
"     ++++ @@@@@@@  +++++ ",
"    +++= ,@@@ @@@@       ",
"   #+++  @@@@  @@@)      ",
"   ++++ @@@%   !@@@      ",
"  +++& @@@@     @@@@     ",
" .+++  @@@-      @@@)    ",
"                         "};
