<?xml version="1.0" encoding="UTF-8" standalone="no"?>
<svg
   xml:space="preserve"
   id="svg4768"
   viewBox="0.171 0.201 79999.995 54962.63"
   height="5152.7466"
   width="7499.9995"
   version="1.0"
   sodipodi:docname="dashboard_logo.svg"
   inkscape:version="1.1 (c4e8f9e, 2021-05-24)"
   inkscape:export-filename="/home/matthias/data/dots/emacs_gnu/.emacs.d/dashboard_logo_doom-one-vibrant.png"
   inkscape:export-xdpi="6.4000001"
   inkscape:export-ydpi="6.4000001"
   xmlns:inkscape="http://www.inkscape.org/namespaces/inkscape"
   xmlns:sodipodi="http://sodipodi.sourceforge.net/DTD/sodipodi-0.dtd"
   xmlns:xlink="http://www.w3.org/1999/xlink"
   xmlns="http://www.w3.org/2000/svg"
   xmlns:svg="http://www.w3.org/2000/svg"
   xmlns:rdf="http://www.w3.org/1999/02/22-rdf-syntax-ns#"
   xmlns:cc="http://creativecommons.org/ns#"
   xmlns:dc="http://purl.org/dc/elements/1.1/"><sodipodi:namedview
     pagecolor="#ffffff"
     bordercolor="#666666"
     borderopacity="1"
     objecttolerance="10"
     gridtolerance="10"
     guidetolerance="10"
     inkscape:pageopacity="0"
     inkscape:pageshadow="2"
     inkscape:window-width="1920"
     inkscape:window-height="1023"
     id="namedview72"
     showgrid="false"
     inkscape:zoom="0.059814453"
     inkscape:cx="3803.4286"
     inkscape:cy="4647.7061"
     inkscape:window-x="0"
     inkscape:window-y="25"
     inkscape:window-maximized="1"
     inkscape:current-layer="g2388"
     fit-margin-top="0"
     fit-margin-left="0"
     fit-margin-right="0"
     fit-margin-bottom="0"
     inkscape:pagecheckerboard="0" /><metadata
     id="metadata70"><rdf:RDF><cc:Work
         rdf:about=""><dc:format>image/svg+xml</dc:format><dc:type
           rdf:resource="http://purl.org/dc/dcmitype/StillImage" /></cc:Work></rdf:RDF></metadata><!-- Gnu Emacs Icon
   Copyright (C) 2008-2021 Free Software Foundation, Inc.

   Author: Nicolas Petton <nicolas@petton.fr>

   This file is part of GNU Emacs.

   GNU Emacs is free software: you can redistribute it and/or modify
   it under the terms of the GNU General Public License as published by
   the Free Software Foundation; either version 3 of the License, or
   (at your option) any later version.

   GNU Emacs is distributed in the hope that it will be useful,
   but WITHOUT ANY WARRANTY; without even the implied warranty of
   MERCHANTABILITY or FITNESS FOR A PARTICULAR PURPOSE.  See the
   GNU General Public License for more details.

   You should have received a copy of the GNU General Public License
   along with GNU Emacs.  If not, see <https://www.gnu.org/licenses/>.

--><!-- Created with Inkscape (http://www.inkscape.org/) --><defs
     id="defs4770"><linearGradient
       id="linearGradient1609"><stop
         offset="0"
         style="stop-color:#8fbcbb;stop-opacity:1"
         id="stop1603" /><stop
         id="stop1605"
         style="stop-color:#81a1c1;stop-opacity:1"
         offset="0.56639391" /><stop
         offset="1"
         style="stop-color:#5e81ac;stop-opacity:1"
         id="stop1607" /></linearGradient><linearGradient
       id="linearGradient1420"><stop
         offset="0"
         style="stop-color:#556369;stop-opacity:1"
         id="stop1414" /><stop
         id="stop1416"
         style="stop-color:#314048;stop-opacity:1"
         offset="0.56639391" /><stop
         offset="1"
         style="stop-color:#171f24;stop-opacity:1"
         id="stop1418" /></linearGradient><linearGradient
       id="linearGradient1294"><stop
         offset="0"
         style="stop-color:#586268;stop-opacity:1"
         id="stop1288" /><stop
         id="stop1290"
         style="stop-color:#282c34;stop-opacity:1"
         offset="0.56639391" /><stop
         offset="1"
         style="stop-color:#21242b;stop-opacity:1"
         id="stop1292" /></linearGradient><linearGradient
       id="linearGradient4292"><stop
         id="stop4294"
         offset="0"
         style="stop-color:#411f5d;stop-opacity:1" /><stop
         id="stop4296"
         offset="1"
         style="stop-color:#5b2a85;stop-opacity:1" /></linearGradient><linearGradient
       id="linearGradient4284"><stop
         offset="0"
         style="stop-color:#dfdfdf;stop-opacity:1"
         id="stop4286" /><stop
         id="stop4290"
         style="stop-color:#757b80;stop-opacity:1"
         offset="0.56639391" /><stop
         offset="1"
         style="stop-color:#484854;stop-opacity:1"
         id="stop4288" /></linearGradient><linearGradient
       id="linearGradient4898"><stop
         id="stop4278"
         style="stop-color:#bab8db;stop-opacity:1"
         offset="0" /><stop
         id="stop4280"
         style="stop-color:#5955a9;stop-opacity:0.99159664"
         offset="1" /></linearGradient><linearGradient
       id="linearGradient3294"><stop
         offset="0"
         style="stop-color:#6376e6;stop-opacity:1"
         id="stop3296" /><stop
         offset="0.50094414"
         style="stop-color:#222989;stop-opacity:1"
         id="stop3302" /><stop
         offset="1"
         style="stop-color:#00003d;stop-opacity:1"
         id="stop3298" /></linearGradient><linearGradient
       id="linearGradient3284"><stop
         offset="0"
         style="stop-color:#000000;stop-opacity:1"
         id="stop3286" /><stop
         offset="0.84845906"
         style="stop-color:#000000;stop-opacity:0.49803922"
         id="stop3292" /><stop
         offset="1"
         style="stop-color:#000000;stop-opacity:0"
         id="stop3288" /></linearGradient><linearGradient
       id="linearGradient3274"><stop
         offset="0"
         style="stop-color:#000000;stop-opacity:1"
         id="stop3276" /><stop
         offset="1"
         style="stop-color:#000000;stop-opacity:0"
         id="stop3278" /></linearGradient><linearGradient
       id="linearGradient3262"><stop
         offset="0"
         style="stop-color:#000000;stop-opacity:1"
         id="stop3264" /><stop
         offset="1"
         style="stop-color:#000000;stop-opacity:0"
         id="stop3266" /></linearGradient><linearGradient
       id="linearGradient3242"><stop
         offset="0"
         style="stop-color:#282828;stop-opacity:1"
         id="stop3244" /><stop
         offset="0.39253417"
         style="stop-color:#808080;stop-opacity:1"
         id="stop3252" /><stop
         offset="1"
         style="stop-color:#d9d9d9;stop-opacity:1"
         id="stop3246" /></linearGradient><linearGradient
       id="linearGradient3202"><stop
         offset="0"
         style="stop-color:#2b2b2b;stop-opacity:1"
         id="stop3204" /><stop
         offset="0.5"
         style="stop-color:#828383;stop-opacity:1"
         id="stop3250" /><stop
         offset="1"
         style="stop-color:#dadbdb;stop-opacity:1"
         id="stop3206" /></linearGradient><linearGradient
       id="linearGradient4966"><stop
         offset="0"
         style="stop-color:#b6b3d8;stop-opacity:1"
         id="stop4968" /><stop
         offset="1"
         style="stop-color:#b6b3d8;stop-opacity:0"
         id="stop4970" /></linearGradient><linearGradient
       id="linearGradient4938"><stop
         offset="0"
         style="stop-color:#000000;stop-opacity:1"
         id="stop4940" /><stop
         offset="1"
         style="stop-color:#000000;stop-opacity:0"
         id="stop4942" /></linearGradient><linearGradient
       id="linearGradient4282"><stop
         offset="0"
         style="stop-color:#bab8db;stop-opacity:1"
         id="stop4900" /><stop
         offset="1"
         style="stop-color:#5955a9;stop-opacity:0.99159664"
         id="stop4902" /></linearGradient><linearGradient
       id="linearGradient4876"><stop
         offset="0"
         style="stop-color:#d3d2e8;stop-opacity:1"
         id="stop4878" /><stop
         offset="1"
         style="stop-color:#5955a9;stop-opacity:0.99159664"
         id="stop4880" /></linearGradient><radialGradient
       gradientTransform="matrix(0.6817439,0,0,0.5905355,-3.8523706,-28.935273)"
       gradientUnits="userSpaceOnUse"
       xlink:href="#linearGradient4898"
       id="radialGradient4892"
       fy="-108.96888"
       fx="20.951529"
       r="266.76535"
       cy="-108.96888"
       cx="20.951529" /><radialGradient
       gradientTransform="matrix(1,0,0,0.1854103,0,383.88493)"
       gradientUnits="userSpaceOnUse"
       xlink:href="#linearGradient4938"
       id="radialGradient4944"
       fy="471.26172"
       fx="233.8876"
       r="170.49393"
       cy="471.26172"
       cx="233.8876" /><radialGradient
       gradientTransform="matrix(1,0,0,0.9121621,0,32.654948)"
       gradientUnits="userSpaceOnUse"
       xlink:href="#linearGradient4966"
       id="radialGradient4972"
       fy="371.76376"
       fx="299.70135"
       r="76.696358"
       cy="371.76376"
       cx="299.70135" /><radialGradient
       gradientTransform="matrix(0.414705,0.3300575,-0.5059004,0.6356454,346.95314,49.479585)"
       gradientUnits="userSpaceOnUse"
       xlink:href="#linearGradient3202"
       id="radialGradient3210"
       fy="390.45248"
       fx="289.44067"
       r="17.67668"
       cy="390.45248"
       cx="289.44067" /><radialGradient
       gradientTransform="matrix(0.414705,0.3300575,-0.5059004,0.6356454,448.41009,-65.398074)"
       gradientUnits="userSpaceOnUse"
       xlink:href="#linearGradient3202"
       id="radialGradient3238"
       fy="382.14804"
       fx="283.50717"
       r="17.67668"
       cy="382.14804"
       cx="283.50717" /><radialGradient
       gradientTransform="matrix(-0.06556501,-0.05972176,1.6871024,-1.8521705,171.90774,540.51473)"
       gradientUnits="userSpaceOnUse"
       xlink:href="#linearGradient3242"
       id="radialGradient3248"
       fy="181.18982"
       fx="418.45551"
       r="63.068935"
       cy="181.18982"
       cx="418.45551" /><radialGradient
       gradientTransform="matrix(0.4055116,-0.03344012,0.1034174,4.3988695,177.23251,-1191.6649)"
       gradientUnits="userSpaceOnUse"
       xlink:href="#linearGradient3262"
       id="radialGradient3268"
       fy="357.33591"
       fx="354.51709"
       r="33.712105"
       cy="357.33591"
       cx="354.51709" /><radialGradient
       gradientTransform="matrix(-0.1339874,-0.1146812,0.3079048,-0.3597394,444.23592,395.03849)"
       gradientUnits="userSpaceOnUse"
       xlink:href="#linearGradient3274"
       id="radialGradient3280"
       fy="223.55537"
       fx="510.58469"
       r="132.28336"
       cy="223.55537"
       cx="510.58469" /><radialGradient
       gradientTransform="matrix(-1.2497569,1.3798305,-0.09628946,-0.07297448,674.3826,-70.590682)"
       gradientUnits="userSpaceOnUse"
       xlink:href="#linearGradient3284"
       id="radialGradient3290"
       fy="-158.17821"
       fx="284.4671"
       r="110.2972"
       cy="-158.17821"
       cx="284.4671" /><radialGradient
       gradientTransform="matrix(-0.1008165,-0.08087232,1.0745309,-1.3395252,13.843287,784.79288)"
       gradientUnits="userSpaceOnUse"
       xlink:href="#linearGradient3294"
       id="radialGradient3300"
       fy="356.62274"
       fx="425.51019"
       r="143.34167"
       cy="356.62274"
       cx="425.51019" /><filter
       height="1.0883541"
       y="-0.044177057"
       width="1.0892567"
       x="-0.044628375"
       id="filter4350"
       style="color-interpolation-filters:sRGB"><feGaussianBlur
         id="feGaussianBlur4352"
         stdDeviation="8.7848425" /></filter><linearGradient
       y2="300.73987"
       x2="236.61363"
       y1="-161.8512"
       x1="-122.20192"
       spreadMethod="pad"
       gradientTransform="matrix(76.070264,0,0,72.034922,39206.669,21718.159)"
       gradientUnits="userSpaceOnUse"
       id="linearGradient4245"
       xlink:href="#linearGradient4284" /><linearGradient
       y2="66.018341"
       x2="173.94518"
       y1="396.6066"
       x1="447.80933"
       gradientTransform="matrix(88.112267,0,0,88.035423,38910.402,-66788.476)"
       gradientUnits="userSpaceOnUse"
       id="linearGradient4247"
       xlink:href="#linearGradient4292" /><filter
       height="1.0883541"
       y="-0.044177057"
       width="1.0892567"
       x="-0.044628375"
       id="filter4350-3"
       style="color-interpolation-filters:sRGB"><feGaussianBlur
         id="feGaussianBlur4352-6"
         stdDeviation="8.7848425" /></filter><linearGradient
       y2="300.73987"
       x2="236.61363"
       y1="-161.8512"
       x1="-122.20192"
       spreadMethod="pad"
       gradientTransform="matrix(76.070264,0,0,72.034922,39206.669,21718.159)"
       gradientUnits="userSpaceOnUse"
       id="linearGradient4245-7"
       xlink:href="#linearGradient1420" /><linearGradient
       id="linearGradient4284-5"><stop
         offset="0"
         style="stop-color:#fdf6e3;stop-opacity:1"
         id="stop4286-3" /><stop
         id="stop4290-5"
         style="stop-color:#eee8d5;stop-opacity:1"
         offset="0.56639391" /><stop
         offset="1"
         style="stop-color:#93a1a1;stop-opacity:1"
         id="stop4288-6" /></linearGradient><filter
       height="1.0885513"
       y="-0.044275664"
       width="1.089456"
       x="-0.044727989"
       id="filter4350-36"
       style="color-interpolation-filters:sRGB"><feGaussianBlur
         id="feGaussianBlur4352-7"
         stdDeviation="8.7848425" /></filter><linearGradient
       y2="300.73987"
       x2="236.61363"
       y1="-161.8512"
       x1="-122.20192"
       spreadMethod="pad"
       gradientTransform="matrix(78.023685,0,0,73.880789,60604.681,-44686.522)"
       gradientUnits="userSpaceOnUse"
       id="linearGradient4245-5"
       xlink:href="#linearGradient4284-3" /><linearGradient
       id="linearGradient4284-3"><stop
         offset="0"
         style="stop-color:#8381c5;stop-opacity:1"
         id="stop4286-5" /><stop
         id="stop4290-6"
         style="stop-color:#7e55b3;stop-opacity:0.99607843"
         offset="0.56639391" /><stop
         offset="1"
         style="stop-color:#a52ecb;stop-opacity:0.99215686"
         id="stop4288-2" /></linearGradient><linearGradient
       inkscape:collect="always"
       xlink:href="#linearGradient4284-5"
       id="linearGradient949"
       gradientUnits="userSpaceOnUse"
       gradientTransform="matrix(76.070264,0,0,72.034922,39206.666,21718.159)"
       x1="-122.20192"
       y1="-161.8512"
       x2="236.61363"
       y2="300.73987"
       spreadMethod="pad" /><linearGradient
       inkscape:collect="always"
       xlink:href="#linearGradient1294"
       id="linearGradient1057"
       gradientUnits="userSpaceOnUse"
       gradientTransform="matrix(76.070264,0,0,72.034922,39206.666,21718.159)"
       x1="-122.20192"
       y1="-161.8512"
       x2="236.61363"
       y2="300.73987"
       spreadMethod="pad" /><filter
       height="1.0883541"
       y="-0.044177057"
       width="1.0892567"
       x="-0.044628375"
       id="filter4350-3-3"
       style="color-interpolation-filters:sRGB"><feGaussianBlur
         id="feGaussianBlur4352-6-6"
         stdDeviation="8.7848425" /></filter><linearGradient
       inkscape:collect="always"
       xlink:href="#linearGradient1609"
       id="linearGradient1523"
       gradientUnits="userSpaceOnUse"
       gradientTransform="matrix(76.070264,0,0,72.034922,39206.669,21718.159)"
       x1="-122.20192"
       y1="-161.8512"
       x2="236.61363"
       y2="300.73987"
       spreadMethod="pad" /><filter
       height="1.0883541"
       y="-0.044177057"
       width="1.0892567"
       x="-0.044628375"
       id="filter4350-3-3-2"
       style="color-interpolation-filters:sRGB"><feGaussianBlur
         id="feGaussianBlur4352-6-6-7"
         stdDeviation="8.7848425" /></filter></defs><g
     inkscape:groupmode="layer"
     id="layer3"
     inkscape:label="original logo"
     sodipodi:insensitive="true"
     style="display:none"><g
       id="g1035"
       transform="translate(-16621.562,65302.631)"><g
         id="g947"
         transform="translate(-4796.7391,1087.2707)"><path
           style="opacity:0.405;fill:#211f46;fill-opacity:0.996078;stroke:#0a0b1b;stroke-width:0.0956142;stroke-miterlimit:4;stroke-dasharray:none;stroke-opacity:1;filter:url(#filter4350-36)"
           id="path4233-2"
           d="m 491.66937,257.75916 c 0,131.79436 -105.76,238.63481 -236.22155,238.63481 -130.46155,0 -236.221539,-106.84045 -236.221539,-238.63481 0,-131.79437 105.759989,-238.634808 236.221539,-238.634808 130.46155,0 236.22155,106.840438 236.22155,238.634808 z"
           transform="matrix(88.112266,0,0,88.035422,38910.383,-66788.466)" /><path
           d="m 82232.531,-44096.496 c 0,11602.553 -9318.735,21008.257 -20814.004,21008.257 -11495.27,0 -20814.004,-9405.704 -20814.004,-21008.257 0,-11602.643 9318.734,-21008.347 20814.004,-21008.347 11495.269,0 20814.004,9405.704 20814.004,21008.347 z"
           id="path4235-7"
           style="fill:url(#linearGradient4245-5);fill-opacity:1;stroke:url(#linearGradient4247);stroke-width:13.3382;stroke-miterlimit:4;stroke-dasharray:none;stroke-opacity:1" /><path
           d="m 54264.631,-29339.975 c 0,0 1762.425,124.536 4029.675,-75.113 918.132,-80.823 4404.142,-422.938 7010.412,-994.051 0,0 3177.704,-679.502 4877.807,-1305.389 1778.764,-654.969 2746.718,-1210.827 3182.436,-1998.539 -19.018,-161.378 134.108,-733.651 -686.167,-1077.461 -2097.248,-878.883 -4529.5,-719.913 -9342.395,-821.789 -5337.274,-183.234 -7112.824,-1075.855 -8058.635,-1794.787 -906.882,-729.28 -450.896,-2746.91 3435.295,-4524.212 1957.515,-946.413 9631.326,-2692.938 9631.326,-2692.938 -2584.395,-1276.307 -7403.451,-3520.08 -8394.084,-4004.572 -868.846,-424.9 -2259.214,-1064.793 -2560.645,-1838.945 -341.699,-743.197 807.06,-1383.357 1448.672,-1566.681 2066.534,-595.556 4983.789,-965.682 7638.899,-1007.254 1334.565,-20.874 1551.173,-106.693 1551.173,-106.693 1841.444,-305.182 3053.775,-1564.004 2548.681,-3557.548 -453.396,-2034.847 -2844.844,-3230.598 -5117.362,-2816.581 -2140.016,389.752 -7298.093,1886.76 -7298.093,1886.76 6375.765,-55.13 7442.827,51.117 7919.438,716.88 281.43,393.232 -127.859,932.319 -1828.229,1209.758 -1851.175,302.06 -5699.242,665.852 -5699.242,665.852 -3691.547,219.096 -6291.924,233.727 -7071.841,1883.46 -509.468,1077.818 543.397,2030.744 1004.829,2627.192 1950.105,2166.787 4766.824,3335.419 6579.963,4195.924 682.237,323.828 2683.86,935.263 2683.86,935.263 -5882.1,-323.203 -10125.169,1481.397 -12614.117,3559.154 -2815.022,2601.499 -1569.745,5702.478 4197.622,7611.808 3406.367,1127.775 5095.755,1658.12 10176.956,1201.015 2992.881,-161.2 3464.67,-65.3 3494.581,180.112 41.965,345.416 -3324.312,1203.513 -4243.337,1468.373 -2337.965,673.792 -8466.764,2034.401 -8497.478,2041.002 z"
           id="path4237-0"
           style="fill:#ffffff;fill-opacity:1;fill-rule:evenodd;stroke:#000000;stroke-width:0;stroke-linecap:butt;stroke-linejoin:miter;stroke-miterlimit:4;stroke-dasharray:none;stroke-opacity:1" /></g></g></g><g
     inkscape:groupmode="layer"
     id="g1055"
     inkscape:label="doom one"
     style="display:none"
     sodipodi:insensitive="true"><path
       style="opacity:0.405;fill:#211f46;fill-opacity:0.996078;stroke:#0a0b1b;stroke-width:0.00149061;stroke-miterlimit:4;stroke-dasharray:none;stroke-opacity:1;filter:url(#filter4350-3)"
       id="path1045"
       d="m 491.66937,257.75916 c 0,131.79436 -105.76,238.63481 -236.22155,238.63481 -130.46155,0 -236.221539,-106.84045 -236.221539,-238.63481 0,-131.79437 105.759989,-238.634808 236.221539,-238.634808 130.46155,0 236.22155,106.840438 236.22155,238.634808 z"
       transform="matrix(85.906264,0,0,85.835909,18055.602,168.37962)"
       inkscape:export-xdpi="10.246963"
       inkscape:export-ydpi="10.246963" /><path
       d="m 60293.079,22293.371 c 0,11312.69 -9085.445,20483.436 -20292.908,20483.436 -11207.462,0 -20292.916,-9170.746 -20292.916,-20483.436 0,-11312.69 9085.454,-20483.4343 20292.916,-20483.4343 11207.463,0 20292.908,9170.7443 20292.908,20483.4343 z"
       id="path1047"
       style="fill:url(#linearGradient1057);fill-opacity:1;stroke:#a9a1e1;stroke-width:1092.27;stroke-miterlimit:4;stroke-dasharray:none;stroke-opacity:1"
       inkscape:export-xdpi="10.246963"
       inkscape:export-ydpi="10.246963" /><path
       d="m 33025.409,36681.212 c 0,0 1718.256,121.453 3928.717,-73.202 895.18,-78.829 4293.939,-412.395 6834.976,-969.205 0,0 3098.137,-662.498 4755.606,-1272.805 1734.274,-638.592 2678.003,-1180.579 3102.786,-1948.557 -18.525,-157.353 130.785,-715.355 -668.987,-1050.531 -2044.716,-856.924 -4416.099,-701.925 -9108.479,-801.332 -5203.667,-178.648 -6934.72,-1048.95 -7856.843,-1749.891 -884.255,-711.076 -439.607,-2678.327 3349.219,-4411.176 1908.541,-922.766 9390.237,-2625.655 9390.237,-2625.655 -2519.701,-1244.441 -7218.149,-3432.127 -8183.963,-3904.54 -847.076,-414.327 -2202.652,-1038.186 -2496.492,-1792.973 -333.153,-724.618 786.793,-1348.817 1412.385,-1527.569 2014.779,-580.678 4859.032,-941.589 7447.633,-982.107 1301.169,-20.368 1512.372,-104.016 1512.372,-104.016 1795.367,-297.571 2977.267,-1524.907 2484.837,-3468.6433 -442.071,-1984.047 -2773.594,-3149.853 -4989.225,-2746.264 -2086.456,380.063 -7115.359,1839.628 -7115.359,1839.628 6216.096,-53.756 7256.503,49.907 7721.164,699.035 274.411,383.3553 -124.692,908.9963 -1782.5,1179.5303 -1804.829,294.527 -5556.571,649.216 -5556.571,649.216 -3599.116,213.57 -6134.329,227.864 -6894.702,1836.415 -496.757,1050.886 529.74,1979.946 979.655,2561.492 1901.255,2112.655 4647.497,3252.067 6415.207,4091.138 665.114,315.704 2616.632,911.902 2616.632,911.902 -5734.765,-315.158 -9871.612,1444.341 -12298.255,3470.162 -2744.614,2536.556 -1530.479,5560.052 4092.478,7421.702 3321.144,1099.563 4968.219,1616.688 9922.206,1170.949 2917.95,-157.149 3377.936,-63.63 3407.029,175.605 40.957,336.822 -3241.006,1173.5 -4137.013,1431.739 -2279.457,656.963 -8254.84,1983.519 -8284.75,1989.953 z"
       id="path1049"
       style="fill:#bbc2cf;fill-opacity:1;fill-rule:evenodd;stroke:#000000;stroke-width:0.128;stroke-linecap:butt;stroke-linejoin:miter;stroke-miterlimit:4;stroke-dasharray:none;stroke-opacity:1"
       inkscape:export-xdpi="10.246963"
       inkscape:export-ydpi="10.246963" /><text
       xml:space="preserve"
       style="font-size:14603.9px;line-height:1.25;font-family:'Ubuntu Mono';-inkscape-font-specification:'Ubuntu Mono, Normal';letter-spacing:0px;fill:#98be65;stroke-width:10.6667"
       x="-846.85522"
       y="54743.773"
       id="text1053"
       inkscape:export-xdpi="10.246963"
       inkscape:export-ydpi="10.246963"><tspan
         sodipodi:role="line"
         id="tspan1051"
         x="-846.85522"
         y="54743.773"
         style="font-style:normal;font-variant:normal;font-weight:normal;font-stretch:normal;font-family:Ubuntu;-inkscape-font-specification:Ubuntu;fill:#98be65;stroke-width:10.6667">GNU EMACS</tspan></text></g><g
     inkscape:groupmode="layer"
     id="g1445"
     inkscape:label="doom one light"
     style="display:inline"><path
       style="display:inline;opacity:0.405;fill:#211f46;fill-opacity:0.996078;stroke:#0a0b1b;stroke-width:0.00149061;stroke-miterlimit:4;stroke-dasharray:none;stroke-opacity:1;filter:url(#filter4350-3-3-2)"
       id="path1280-5-0"
       d="m 491.66937,257.75916 c 0,131.79436 -105.76,238.63481 -236.22155,238.63481 -130.46155,0 -236.221539,-106.84045 -236.221539,-238.63481 0,-131.79437 105.759989,-238.634808 236.221539,-238.634808 130.46155,0 236.22155,106.840438 236.22155,238.634808 z"
       transform="matrix(85.906264,0,0,85.835909,18055.603,168.3806)"
       inkscape:export-xdpi="10.246963"
       inkscape:export-ydpi="10.246963" /><path
       d="m 60293.082,22293.371 c 0,11312.69 -9085.445,20483.436 -20292.908,20483.436 -11207.462,0 -20292.916,-9170.746 -20292.916,-20483.436 0,-11312.69 9085.454,-20483.4333 20292.916,-20483.4333 11207.463,0 20292.908,9170.7433 20292.908,20483.4333 z"
       id="path1282-6-6"
       style="display:inline;fill:url(#linearGradient4245);fill-opacity:1;stroke:#383a42;stroke-width:1092.27;stroke-miterlimit:4;stroke-dasharray:none;stroke-opacity:1"
       inkscape:export-xdpi="10.246963"
       inkscape:export-ydpi="10.246963" /><path
       d="m 33025.41,36681.212 c 0,0 1718.256,121.453 3928.717,-73.202 895.18,-78.829 4293.939,-412.395 6834.976,-969.205 0,0 3098.137,-662.498 4755.606,-1272.805 1734.274,-638.592 2678.003,-1180.579 3102.786,-1948.557 -18.525,-157.353 130.785,-715.355 -668.987,-1050.531 -2044.716,-856.924 -4416.099,-701.925 -9108.479,-801.332 -5203.667,-178.648 -6934.72,-1048.95 -7856.843,-1749.891 -884.255,-711.076 -439.607,-2678.327 3349.219,-4411.176 1908.541,-922.766 9390.237,-2625.655 9390.237,-2625.655 -2519.701,-1244.441 -7218.149,-3432.127 -8183.963,-3904.54 -847.076,-414.327 -2202.652,-1038.186 -2496.492,-1792.973 -333.153,-724.618 786.793,-1348.817 1412.385,-1527.569 2014.779,-580.678 4859.032,-941.589 7447.633,-982.107 1301.169,-20.368 1512.372,-104.016 1512.372,-104.016 1795.367,-297.571 2977.267,-1524.907 2484.837,-3468.6423 -442.071,-1984.047 -2773.594,-3149.853 -4989.225,-2746.264 -2086.456,380.063 -7115.359,1839.628 -7115.359,1839.628 6216.096,-53.756 7256.503,49.907 7721.164,699.035 274.411,383.3543 -124.692,908.9953 -1782.5,1179.5293 -1804.829,294.527 -5556.571,649.216 -5556.571,649.216 -3599.116,213.57 -6134.329,227.864 -6894.702,1836.415 -496.757,1050.886 529.74,1979.946 979.655,2561.492 1901.255,2112.655 4647.497,3252.067 6415.207,4091.138 665.114,315.704 2616.632,911.902 2616.632,911.902 -5734.765,-315.158 -9871.612,1444.341 -12298.255,3470.162 -2744.614,2536.556 -1530.479,5560.052 4092.478,7421.702 3321.144,1099.563 4968.219,1616.688 9922.206,1170.949 2917.95,-157.149 3377.936,-63.63 3407.029,175.605 40.957,336.822 -3241.006,1173.5 -4137.013,1431.739 -2279.457,656.963 -8254.84,1983.519 -8284.75,1989.953 z"
       id="path1284-2-2"
       style="display:inline;fill:#f0f0f0;fill-opacity:1;fill-rule:evenodd;stroke:#000000;stroke-width:0.128;stroke-linecap:butt;stroke-linejoin:miter;stroke-miterlimit:4;stroke-dasharray:none;stroke-opacity:1"
       inkscape:export-xdpi="10.246963"
       inkscape:export-ydpi="10.246963" /><text
       xml:space="preserve"
       style="font-size:14603.9px;line-height:1.25;font-family:'Ubuntu Mono';-inkscape-font-specification:'Ubuntu Mono, Normal';letter-spacing:0px;display:inline;fill:#50a14f;stroke-width:10.6667"
       x="-846.85522"
       y="54743.773"
       id="text1288-9-6"
       inkscape:export-xdpi="10.246963"
       inkscape:export-ydpi="10.246963"><tspan
         sodipodi:role="line"
         id="tspan1286-1-1"
         x="-846.85522"
         y="54743.773"
         style="font-style:normal;font-variant:normal;font-weight:normal;font-stretch:normal;font-family:Ubuntu;-inkscape-font-specification:Ubuntu;fill:#50a14f;stroke-width:10.6667">GNU EMACS</tspan></text></g><g
     inkscape:groupmode="layer"
     id="g2388"
     inkscape:label="doom one vibrant"
     style="display:inline"><path
       style="display:inline;opacity:0.405;fill:#211f46;fill-opacity:0.996078;stroke:#0a0b1b;stroke-width:0.00149061;stroke-miterlimit:4;stroke-dasharray:none;stroke-opacity:1;filter:url(#filter4350-3-3-2)"
       id="path2378"
       d="m 491.66937,257.75916 c 0,131.79436 -105.76,238.63481 -236.22155,238.63481 -130.46155,0 -236.221539,-106.84045 -236.221539,-238.63481 0,-131.79437 105.759989,-238.634808 236.221539,-238.634808 130.46155,0 236.22155,106.840438 236.22155,238.634808 z"
       transform="matrix(85.906264,0,0,85.835909,18055.603,168.3806)"
       inkscape:export-xdpi="10.246963"
       inkscape:export-ydpi="10.246963" /><path
       d="m 60293.082,22293.371 c 0,11312.69 -9085.445,20483.436 -20292.908,20483.436 -11207.462,0 -20292.916,-9170.746 -20292.916,-20483.436 0,-11312.69 9085.454,-20483.4333 20292.916,-20483.4333 11207.463,0 20292.908,9170.7433 20292.908,20483.4333 z"
       id="path2380"
       style="display:inline;fill:url(#linearGradient4245);fill-opacity:1;stroke:#2a2e38;stroke-width:1092.27;stroke-miterlimit:4;stroke-dasharray:none;stroke-opacity:1"
       inkscape:export-xdpi="10.246963"
       inkscape:export-ydpi="10.246963" /><path
       d="m 33025.41,36681.212 c 0,0 1718.256,121.453 3928.717,-73.202 895.18,-78.829 4293.939,-412.395 6834.976,-969.205 0,0 3098.137,-662.498 4755.606,-1272.805 1734.274,-638.592 2678.003,-1180.579 3102.786,-1948.557 -18.525,-157.353 130.785,-715.355 -668.987,-1050.531 -2044.716,-856.924 -4416.099,-701.925 -9108.479,-801.332 -5203.667,-178.648 -6934.72,-1048.95 -7856.843,-1749.891 -884.255,-711.076 -439.607,-2678.327 3349.219,-4411.176 1908.541,-922.766 9390.237,-2625.655 9390.237,-2625.655 -2519.701,-1244.441 -7218.149,-3432.127 -8183.963,-3904.54 -847.076,-414.327 -2202.652,-1038.186 -2496.492,-1792.973 -333.153,-724.618 786.793,-1348.817 1412.385,-1527.569 2014.779,-580.678 4859.032,-941.589 7447.633,-982.107 1301.169,-20.368 1512.372,-104.016 1512.372,-104.016 1795.367,-297.571 2977.267,-1524.907 2484.837,-3468.6423 -442.071,-1984.047 -2773.594,-3149.853 -4989.225,-2746.264 -2086.456,380.063 -7115.359,1839.628 -7115.359,1839.628 6216.096,-53.756 7256.503,49.907 7721.164,699.035 274.411,383.3543 -124.692,908.9953 -1782.5,1179.5293 -1804.829,294.527 -5556.571,649.216 -5556.571,649.216 -3599.116,213.57 -6134.329,227.864 -6894.702,1836.415 -496.757,1050.886 529.74,1979.946 979.655,2561.492 1901.255,2112.655 4647.497,3252.067 6415.207,4091.138 665.114,315.704 2616.632,911.902 2616.632,911.902 -5734.765,-315.158 -9871.612,1444.341 -12298.255,3470.162 -2744.614,2536.556 -1530.479,5560.052 4092.478,7421.702 3321.144,1099.563 4968.219,1616.688 9922.206,1170.949 2917.95,-157.149 3377.936,-63.63 3407.029,175.605 40.957,336.822 -3241.006,1173.5 -4137.013,1431.739 -2279.457,656.963 -8254.84,1983.519 -8284.75,1989.953 z"
       id="path2382"
       style="display:inline;fill:#bbc2cf;fill-opacity:1;fill-rule:evenodd;stroke:#000000;stroke-width:0.128;stroke-linecap:butt;stroke-linejoin:miter;stroke-miterlimit:4;stroke-dasharray:none;stroke-opacity:1"
       inkscape:export-xdpi="10.246963"
       inkscape:export-ydpi="10.246963" /><text
       xml:space="preserve"
       style="font-size:14603.9px;line-height:1.25;font-family:'Ubuntu Mono';-inkscape-font-specification:'Ubuntu Mono, Normal';letter-spacing:0px;display:inline;fill:#7bc275;stroke-width:10.6667"
       x="-846.85522"
       y="54743.773"
       id="text2386"
       inkscape:export-xdpi="10.246963"
       inkscape:export-ydpi="10.246963"><tspan
         sodipodi:role="line"
         id="tspan2384"
         x="-846.85522"
         y="54743.773"
         style="font-style:normal;font-variant:normal;font-weight:normal;font-stretch:normal;font-family:Ubuntu;-inkscape-font-specification:Ubuntu;fill:#7bc275;stroke-width:10.6667">GNU EMACS</tspan></text></g><rect
     style="display:none;fill:none"
     id="rect4772"
     y="42284.617"
     x="19685.422"
     height="512"
     width="512" /><g
     style="display:none"
     id="g4788"
     transform="translate(19685.25,42284.416)"><g
       style="display:inline"
       id="g4790" /></g><g
     style="display:none"
     id="g4806"
     transform="translate(19685.25,42284.416)"><g
       style="display:inline"
       id="g4808"><path
         style="display:none;fill:#050505"
         id="path4810"
         d="m 349.098,256.651 c -0.265,-0.254 37.637,27.605 39.421,25.012 6.362,-9.252 82.046,-93.137 84.784,-116.236 0.242,-2.003 -0.516,-4.096 -0.516,-4.096 0,0 -1.19,-0.144 -6.325,-4.314 -2.692,-2.192 -5.483,-4.581 -5.483,-4.581 -16.054,0.998 -57.885,41.559 -111.062,103.568" /></g></g><g
     inkscape:groupmode="layer"
     id="layer2"
     inkscape:label="dracula"
     sodipodi:insensitive="true"
     style="display:none"><path
       style="opacity:0.405;fill:#211f46;fill-opacity:0.996078;stroke:#0a0b1b;stroke-width:0.00149061;stroke-miterlimit:4;stroke-dasharray:none;stroke-opacity:1;filter:url(#filter4350-3)"
       id="path4233"
       d="m 491.66937,257.75916 c 0,131.79436 -105.76,238.63481 -236.22155,238.63481 -130.46155,0 -236.221539,-106.84045 -236.221539,-238.63481 0,-131.79437 105.759989,-238.634808 236.221539,-238.634808 130.46155,0 236.22155,106.840438 236.22155,238.634808 z"
       transform="matrix(85.906264,0,0,85.835909,18055.603,168.37962)"
       inkscape:export-xdpi="10.246963"
       inkscape:export-ydpi="10.246963" /><path
       d="m 60293.082,22293.371 c 0,11312.69 -9085.445,20483.436 -20292.908,20483.436 -11207.462,0 -20292.916,-9170.746 -20292.916,-20483.436 0,-11312.69 9085.454,-20483.4343 20292.916,-20483.4343 11207.463,0 20292.908,9170.7443 20292.908,20483.4343 z"
       id="path4235"
       style="fill:url(#linearGradient4245-7);fill-opacity:1;stroke:#bd93f9;stroke-width:1092.27;stroke-miterlimit:4;stroke-dasharray:none;stroke-opacity:1"
       inkscape:export-xdpi="10.246963"
       inkscape:export-ydpi="10.246963" /><path
       d="m 33025.41,36681.212 c 0,0 1718.256,121.453 3928.717,-73.202 895.18,-78.829 4293.939,-412.395 6834.976,-969.205 0,0 3098.137,-662.498 4755.606,-1272.805 1734.274,-638.592 2678.003,-1180.579 3102.786,-1948.557 -18.525,-157.353 130.785,-715.355 -668.987,-1050.531 -2044.716,-856.924 -4416.099,-701.925 -9108.479,-801.332 -5203.667,-178.648 -6934.72,-1048.95 -7856.843,-1749.891 -884.255,-711.076 -439.607,-2678.327 3349.219,-4411.176 1908.541,-922.766 9390.237,-2625.655 9390.237,-2625.655 -2519.701,-1244.441 -7218.149,-3432.127 -8183.963,-3904.54 -847.076,-414.327 -2202.652,-1038.186 -2496.492,-1792.973 -333.153,-724.618 786.793,-1348.817 1412.385,-1527.569 2014.779,-580.678 4859.032,-941.589 7447.633,-982.107 1301.169,-20.368 1512.372,-104.016 1512.372,-104.016 1795.367,-297.571 2977.267,-1524.907 2484.837,-3468.6433 -442.071,-1984.047 -2773.594,-3149.853 -4989.225,-2746.264 -2086.456,380.063 -7115.359,1839.628 -7115.359,1839.628 6216.096,-53.756 7256.503,49.907 7721.164,699.035 274.411,383.3553 -124.692,908.9963 -1782.5,1179.5303 -1804.829,294.527 -5556.571,649.216 -5556.571,649.216 -3599.116,213.57 -6134.329,227.864 -6894.702,1836.415 -496.757,1050.886 529.74,1979.946 979.655,2561.492 1901.255,2112.655 4647.497,3252.067 6415.207,4091.138 665.114,315.704 2616.632,911.902 2616.632,911.902 -5734.765,-315.158 -9871.612,1444.341 -12298.255,3470.162 -2744.614,2536.556 -1530.479,5560.052 4092.478,7421.702 3321.144,1099.563 4968.219,1616.688 9922.206,1170.949 2917.95,-157.149 3377.936,-63.63 3407.029,175.605 40.957,336.822 -3241.006,1173.5 -4137.013,1431.739 -2279.457,656.963 -8254.84,1983.519 -8284.75,1989.953 z"
       id="path4237"
       style="fill:#f8f8f2;fill-opacity:1;fill-rule:evenodd;stroke:#000000;stroke-width:0.128;stroke-linecap:butt;stroke-linejoin:miter;stroke-miterlimit:4;stroke-dasharray:none;stroke-opacity:1"
       inkscape:export-xdpi="10.246963"
       inkscape:export-ydpi="10.246963" /><text
       xml:space="preserve"
       style="font-size:14603.9px;line-height:1.25;font-family:'Ubuntu Mono';-inkscape-font-specification:'Ubuntu Mono, Normal';letter-spacing:0px;stroke-width:10.6667"
       x="-846.85522"
       y="54743.773"
       id="text1966"
       inkscape:export-xdpi="10.246963"
       inkscape:export-ydpi="10.246963"><tspan
         sodipodi:role="line"
         id="tspan1964"
         x="-846.85522"
         y="54743.773"
         style="font-style:normal;font-variant:normal;font-weight:normal;font-stretch:normal;font-family:Ubuntu;-inkscape-font-specification:Ubuntu;fill:#50fa7b;stroke-width:10.6667">GNU EMACS</tspan></text></g><g
     inkscape:groupmode="layer"
     id="g950"
     inkscape:label="gruvbox"
     style="display:none"
     sodipodi:insensitive="true"><path
       style="opacity:0.405;fill:#211f46;fill-opacity:0.996078;stroke:#0a0b1b;stroke-width:0.00149061;stroke-miterlimit:4;stroke-dasharray:none;stroke-opacity:1;filter:url(#filter4350-3)"
       id="path940"
       d="m 491.66937,257.75916 c 0,131.79436 -105.76,238.63481 -236.22155,238.63481 -130.46155,0 -236.221539,-106.84045 -236.221539,-238.63481 0,-131.79437 105.759989,-238.634808 236.221539,-238.634808 130.46155,0 236.22155,106.840438 236.22155,238.634808 z"
       transform="matrix(85.906264,0,0,85.835909,18055.603,168.37962)"
       inkscape:export-xdpi="10.246963"
       inkscape:export-ydpi="10.246963" /><path
       d="m 60293.082,22293.371 c 0,11312.69 -9085.445,20483.436 -20292.908,20483.436 -11207.462,0 -20292.916,-9170.746 -20292.916,-20483.436 0,-11312.69 9085.454,-20483.4343 20292.916,-20483.4343 11207.463,0 20292.908,9170.7443 20292.908,20483.4343 z"
       id="path942"
       style="fill:url(#linearGradient4245-7);fill-opacity:1;stroke:#b8bb26;stroke-width:1092.27;stroke-miterlimit:4;stroke-dasharray:none;stroke-opacity:1"
       inkscape:export-xdpi="10.246963"
       inkscape:export-ydpi="10.246963" /><path
       d="m 33025.41,36681.212 c 0,0 1718.256,121.453 3928.717,-73.202 895.18,-78.829 4293.939,-412.395 6834.976,-969.205 0,0 3098.137,-662.498 4755.606,-1272.805 1734.274,-638.592 2678.003,-1180.579 3102.786,-1948.557 -18.525,-157.353 130.785,-715.355 -668.987,-1050.531 -2044.716,-856.924 -4416.099,-701.925 -9108.479,-801.332 -5203.667,-178.648 -6934.72,-1048.95 -7856.843,-1749.891 -884.255,-711.076 -439.607,-2678.327 3349.219,-4411.176 1908.541,-922.766 9390.237,-2625.655 9390.237,-2625.655 -2519.701,-1244.441 -7218.149,-3432.127 -8183.963,-3904.54 -847.076,-414.327 -2202.652,-1038.186 -2496.492,-1792.973 -333.153,-724.618 786.793,-1348.817 1412.385,-1527.569 2014.779,-580.678 4859.032,-941.589 7447.633,-982.107 1301.169,-20.368 1512.372,-104.016 1512.372,-104.016 1795.367,-297.571 2977.267,-1524.907 2484.837,-3468.6433 -442.071,-1984.047 -2773.594,-3149.853 -4989.225,-2746.264 -2086.456,380.063 -7115.359,1839.628 -7115.359,1839.628 6216.096,-53.756 7256.503,49.907 7721.164,699.035 274.411,383.3553 -124.692,908.9963 -1782.5,1179.5303 -1804.829,294.527 -5556.571,649.216 -5556.571,649.216 -3599.116,213.57 -6134.329,227.864 -6894.702,1836.415 -496.757,1050.886 529.74,1979.946 979.655,2561.492 1901.255,2112.655 4647.497,3252.067 6415.207,4091.138 665.114,315.704 2616.632,911.902 2616.632,911.902 -5734.765,-315.158 -9871.612,1444.341 -12298.255,3470.162 -2744.614,2536.556 -1530.479,5560.052 4092.478,7421.702 3321.144,1099.563 4968.219,1616.688 9922.206,1170.949 2917.95,-157.149 3377.936,-63.63 3407.029,175.605 40.957,336.822 -3241.006,1173.5 -4137.013,1431.739 -2279.457,656.963 -8254.84,1983.519 -8284.75,1989.953 z"
       id="path944"
       style="fill:#ebdbb2;fill-opacity:1;fill-rule:evenodd;stroke:#000000;stroke-width:0.128;stroke-linecap:butt;stroke-linejoin:miter;stroke-miterlimit:4;stroke-dasharray:none;stroke-opacity:1"
       inkscape:export-xdpi="10.246963"
       inkscape:export-ydpi="10.246963" /><text
       xml:space="preserve"
       style="font-size:14603.9px;line-height:1.25;font-family:'Ubuntu Mono';-inkscape-font-specification:'Ubuntu Mono, Normal';letter-spacing:0px;fill:#8ec07c;stroke-width:10.6667"
       x="-846.85522"
       y="54743.773"
       id="text948"
       inkscape:export-xdpi="10.246963"
       inkscape:export-ydpi="10.246963"><tspan
         sodipodi:role="line"
         id="tspan946"
         x="-846.85522"
         y="54743.773"
         style="font-style:normal;font-variant:normal;font-weight:normal;font-stretch:normal;font-family:Ubuntu;-inkscape-font-specification:Ubuntu;fill:#8ec07c;stroke-width:10.6667">GNU EMACS</tspan></text></g><g
     inkscape:groupmode="layer"
     id="g1290"
     inkscape:label="material"
     style="display:none"
     sodipodi:insensitive="true"><path
       style="opacity:0.405;fill:#211f46;fill-opacity:0.996078;stroke:#0a0b1b;stroke-width:0.00149061;stroke-miterlimit:4;stroke-dasharray:none;stroke-opacity:1;filter:url(#filter4350-3)"
       id="path1280"
       d="m 491.66937,257.75916 c 0,131.79436 -105.76,238.63481 -236.22155,238.63481 -130.46155,0 -236.221539,-106.84045 -236.221539,-238.63481 0,-131.79437 105.759989,-238.634808 236.221539,-238.634808 130.46155,0 236.22155,106.840438 236.22155,238.634808 z"
       transform="matrix(85.906264,0,0,85.835909,18055.603,168.37962)"
       inkscape:export-xdpi="10.246963"
       inkscape:export-ydpi="10.246963" /><path
       d="m 60293.082,22293.371 c 0,11312.69 -9085.445,20483.436 -20292.908,20483.436 -11207.462,0 -20292.916,-9170.746 -20292.916,-20483.436 0,-11312.69 9085.454,-20483.4343 20292.916,-20483.4343 11207.463,0 20292.908,9170.7443 20292.908,20483.4343 z"
       id="path1282"
       style="fill:url(#linearGradient4245-7);fill-opacity:1;stroke:#c792ea;stroke-width:1092.27;stroke-miterlimit:4;stroke-dasharray:none;stroke-opacity:1"
       inkscape:export-xdpi="10.246963"
       inkscape:export-ydpi="10.246963" /><path
       d="m 33025.41,36681.212 c 0,0 1718.256,121.453 3928.717,-73.202 895.18,-78.829 4293.939,-412.395 6834.976,-969.205 0,0 3098.137,-662.498 4755.606,-1272.805 1734.274,-638.592 2678.003,-1180.579 3102.786,-1948.557 -18.525,-157.353 130.785,-715.355 -668.987,-1050.531 -2044.716,-856.924 -4416.099,-701.925 -9108.479,-801.332 -5203.667,-178.648 -6934.72,-1048.95 -7856.843,-1749.891 -884.255,-711.076 -439.607,-2678.327 3349.219,-4411.176 1908.541,-922.766 9390.237,-2625.655 9390.237,-2625.655 -2519.701,-1244.441 -7218.149,-3432.127 -8183.963,-3904.54 -847.076,-414.327 -2202.652,-1038.186 -2496.492,-1792.973 -333.153,-724.618 786.793,-1348.817 1412.385,-1527.569 2014.779,-580.678 4859.032,-941.589 7447.633,-982.107 1301.169,-20.368 1512.372,-104.016 1512.372,-104.016 1795.367,-297.571 2977.267,-1524.907 2484.837,-3468.6433 -442.071,-1984.047 -2773.594,-3149.853 -4989.225,-2746.264 -2086.456,380.063 -7115.359,1839.628 -7115.359,1839.628 6216.096,-53.756 7256.503,49.907 7721.164,699.035 274.411,383.3553 -124.692,908.9963 -1782.5,1179.5303 -1804.829,294.527 -5556.571,649.216 -5556.571,649.216 -3599.116,213.57 -6134.329,227.864 -6894.702,1836.415 -496.757,1050.886 529.74,1979.946 979.655,2561.492 1901.255,2112.655 4647.497,3252.067 6415.207,4091.138 665.114,315.704 2616.632,911.902 2616.632,911.902 -5734.765,-315.158 -9871.612,1444.341 -12298.255,3470.162 -2744.614,2536.556 -1530.479,5560.052 4092.478,7421.702 3321.144,1099.563 4968.219,1616.688 9922.206,1170.949 2917.95,-157.149 3377.936,-63.63 3407.029,175.605 40.957,336.822 -3241.006,1173.5 -4137.013,1431.739 -2279.457,656.963 -8254.84,1983.519 -8284.75,1989.953 z"
       id="path1284"
       style="fill:#bfc7d5;fill-opacity:1;fill-rule:evenodd;stroke:#000000;stroke-width:0.128;stroke-linecap:butt;stroke-linejoin:miter;stroke-miterlimit:4;stroke-dasharray:none;stroke-opacity:1"
       inkscape:export-xdpi="10.246963"
       inkscape:export-ydpi="10.246963" /><text
       xml:space="preserve"
       style="font-size:14603.9px;line-height:1.25;font-family:'Ubuntu Mono';-inkscape-font-specification:'Ubuntu Mono, Normal';letter-spacing:0px;fill:#c3e88d;stroke-width:10.6667"
       x="-846.85522"
       y="54743.773"
       id="text1288"
       inkscape:export-xdpi="10.246963"
       inkscape:export-ydpi="10.246963"><tspan
         sodipodi:role="line"
         id="tspan1286"
         x="-846.85522"
         y="54743.773"
         style="font-style:normal;font-variant:normal;font-weight:normal;font-stretch:normal;font-family:Ubuntu;-inkscape-font-specification:Ubuntu;fill:#c3e88d;stroke-width:10.6667">GNU EMACS</tspan></text></g><g
     inkscape:groupmode="layer"
     id="layer1"
     inkscape:label="nord"
     style="display:none"
     sodipodi:insensitive="true"><path
       style="display:inline;opacity:0.405;fill:#211f46;fill-opacity:0.996078;stroke:#0a0b1b;stroke-width:0.00149061;stroke-miterlimit:4;stroke-dasharray:none;stroke-opacity:1;filter:url(#filter4350-3-3)"
       id="path1280-5"
       d="m 491.66937,257.75916 c 0,131.79436 -105.76,238.63481 -236.22155,238.63481 -130.46155,0 -236.221539,-106.84045 -236.221539,-238.63481 0,-131.79437 105.759989,-238.634808 236.221539,-238.634808 130.46155,0 236.22155,106.840438 236.22155,238.634808 z"
       transform="matrix(85.906264,0,0,85.835909,18055.603,168.38011)"
       inkscape:export-xdpi="10.246963"
       inkscape:export-ydpi="10.246963" /><path
       d="m 60293.082,22293.371 c 0,11312.69 -9085.445,20483.436 -20292.908,20483.436 -11207.462,0 -20292.916,-9170.746 -20292.916,-20483.436 0,-11312.69 9085.454,-20483.4338 20292.916,-20483.4338 11207.463,0 20292.908,9170.7438 20292.908,20483.4338 z"
       id="path1282-6"
       style="display:inline;fill:url(#linearGradient1523);fill-opacity:1;stroke:#4c566a;stroke-width:1092.27;stroke-miterlimit:4;stroke-dasharray:none;stroke-opacity:1"
       inkscape:export-xdpi="10.246963"
       inkscape:export-ydpi="10.246963" /><path
       d="m 33025.41,36681.212 c 0,0 1718.256,121.453 3928.717,-73.202 895.18,-78.829 4293.939,-412.395 6834.976,-969.205 0,0 3098.137,-662.498 4755.606,-1272.805 1734.274,-638.592 2678.003,-1180.579 3102.786,-1948.557 -18.525,-157.353 130.785,-715.355 -668.987,-1050.531 -2044.716,-856.924 -4416.099,-701.925 -9108.479,-801.332 -5203.667,-178.648 -6934.72,-1048.95 -7856.843,-1749.891 -884.255,-711.076 -439.607,-2678.327 3349.219,-4411.176 1908.541,-922.766 9390.237,-2625.655 9390.237,-2625.655 -2519.701,-1244.441 -7218.149,-3432.127 -8183.963,-3904.54 -847.076,-414.327 -2202.652,-1038.186 -2496.492,-1792.973 -333.153,-724.618 786.793,-1348.817 1412.385,-1527.569 2014.779,-580.678 4859.032,-941.589 7447.633,-982.107 1301.169,-20.368 1512.372,-104.016 1512.372,-104.016 1795.367,-297.571 2977.267,-1524.907 2484.837,-3468.6428 -442.071,-1984.047 -2773.594,-3149.853 -4989.225,-2746.264 -2086.456,380.063 -7115.359,1839.628 -7115.359,1839.628 6216.096,-53.756 7256.503,49.907 7721.164,699.035 274.411,383.3548 -124.692,908.9958 -1782.5,1179.5298 -1804.829,294.527 -5556.571,649.216 -5556.571,649.216 -3599.116,213.57 -6134.329,227.864 -6894.702,1836.415 -496.757,1050.886 529.74,1979.946 979.655,2561.492 1901.255,2112.655 4647.497,3252.067 6415.207,4091.138 665.114,315.704 2616.632,911.902 2616.632,911.902 -5734.765,-315.158 -9871.612,1444.341 -12298.255,3470.162 -2744.614,2536.556 -1530.479,5560.052 4092.478,7421.702 3321.144,1099.563 4968.219,1616.688 9922.206,1170.949 2917.95,-157.149 3377.936,-63.63 3407.029,175.605 40.957,336.822 -3241.006,1173.5 -4137.013,1431.739 -2279.457,656.963 -8254.84,1983.519 -8284.75,1989.953 z"
       id="path1284-2"
       style="display:inline;fill:#eceff4;fill-opacity:1;fill-rule:evenodd;stroke:#000000;stroke-width:0.128;stroke-linecap:butt;stroke-linejoin:miter;stroke-miterlimit:4;stroke-dasharray:none;stroke-opacity:1"
       inkscape:export-xdpi="10.246963"
       inkscape:export-ydpi="10.246963" /><text
       xml:space="preserve"
       style="font-size:14603.9px;line-height:1.25;font-family:'Ubuntu Mono';-inkscape-font-specification:'Ubuntu Mono, Normal';letter-spacing:0px;display:inline;fill:#88c0d0;stroke-width:10.6667"
       x="-846.85522"
       y="54743.773"
       id="text1288-9"
       inkscape:export-xdpi="10.246963"
       inkscape:export-ydpi="10.246963"><tspan
         sodipodi:role="line"
         id="tspan1286-1"
         x="-846.85522"
         y="54743.773"
         style="font-style:normal;font-variant:normal;font-weight:normal;font-stretch:normal;font-family:Ubuntu;-inkscape-font-specification:Ubuntu;fill:#88c0d0;stroke-width:10.6667">GNU EMACS</tspan></text></g><g
     inkscape:groupmode="layer"
     id="g2480"
     inkscape:label="solarized-dark"
     style="display:none"
     sodipodi:insensitive="true"><path
       style="opacity:0.405;fill:#211f46;fill-opacity:0.996078;stroke:#0a0b1b;stroke-width:0.00149061;stroke-miterlimit:4;stroke-dasharray:none;stroke-opacity:1;filter:url(#filter4350-3)"
       id="path2470"
       d="m 491.66937,257.75916 c 0,131.79436 -105.76,238.63481 -236.22155,238.63481 -130.46155,0 -236.221539,-106.84045 -236.221539,-238.63481 0,-131.79437 105.759989,-238.634808 236.221539,-238.634808 130.46155,0 236.22155,106.840438 236.22155,238.634808 z"
       transform="matrix(85.906264,0,0,85.835909,18055.602,168.37962)"
       inkscape:export-xdpi="10.246963"
       inkscape:export-ydpi="10.246963" /><path
       d="m 60293.079,22293.371 c 0,11312.69 -9085.445,20483.436 -20292.908,20483.436 -11207.462,0 -20292.916,-9170.746 -20292.916,-20483.436 0,-11312.69 9085.454,-20483.4343 20292.916,-20483.4343 11207.463,0 20292.908,9170.7443 20292.908,20483.4343 z"
       id="path2472"
       style="fill:url(#linearGradient949);fill-opacity:1;stroke:#6c71c4;stroke-width:1092.27;stroke-miterlimit:4;stroke-dasharray:none;stroke-opacity:1"
       inkscape:export-xdpi="10.246963"
       inkscape:export-ydpi="10.246963" /><path
       d="m 33025.409,36681.212 c 0,0 1718.256,121.453 3928.717,-73.202 895.18,-78.829 4293.939,-412.395 6834.976,-969.205 0,0 3098.137,-662.498 4755.606,-1272.805 1734.274,-638.592 2678.003,-1180.579 3102.786,-1948.557 -18.525,-157.353 130.785,-715.355 -668.987,-1050.531 -2044.716,-856.924 -4416.099,-701.925 -9108.479,-801.332 -5203.667,-178.648 -6934.72,-1048.95 -7856.843,-1749.891 -884.255,-711.076 -439.607,-2678.327 3349.219,-4411.176 1908.541,-922.766 9390.237,-2625.655 9390.237,-2625.655 -2519.701,-1244.441 -7218.149,-3432.127 -8183.963,-3904.54 -847.076,-414.327 -2202.652,-1038.186 -2496.492,-1792.973 -333.153,-724.618 786.793,-1348.817 1412.385,-1527.569 2014.779,-580.678 4859.032,-941.589 7447.633,-982.107 1301.169,-20.368 1512.372,-104.016 1512.372,-104.016 1795.367,-297.571 2977.267,-1524.907 2484.837,-3468.6433 -442.071,-1984.047 -2773.594,-3149.853 -4989.225,-2746.264 -2086.456,380.063 -7115.359,1839.628 -7115.359,1839.628 6216.096,-53.756 7256.503,49.907 7721.164,699.035 274.411,383.3553 -124.692,908.9963 -1782.5,1179.5303 -1804.829,294.527 -5556.571,649.216 -5556.571,649.216 -3599.116,213.57 -6134.329,227.864 -6894.702,1836.415 -496.757,1050.886 529.74,1979.946 979.655,2561.492 1901.255,2112.655 4647.497,3252.067 6415.207,4091.138 665.114,315.704 2616.632,911.902 2616.632,911.902 -5734.765,-315.158 -9871.612,1444.341 -12298.255,3470.162 -2744.614,2536.556 -1530.479,5560.052 4092.478,7421.702 3321.144,1099.563 4968.219,1616.688 9922.206,1170.949 2917.95,-157.149 3377.936,-63.63 3407.029,175.605 40.957,336.822 -3241.006,1173.5 -4137.013,1431.739 -2279.457,656.963 -8254.84,1983.519 -8284.75,1989.953 z"
       id="path2474"
       style="fill:#839496;fill-opacity:1;fill-rule:evenodd;stroke:#000000;stroke-width:0.128;stroke-linecap:butt;stroke-linejoin:miter;stroke-miterlimit:4;stroke-dasharray:none;stroke-opacity:1"
       inkscape:export-xdpi="10.246963"
       inkscape:export-ydpi="10.246963" /><text
       xml:space="preserve"
       style="font-size:14603.9px;line-height:1.25;font-family:'Ubuntu Mono';-inkscape-font-specification:'Ubuntu Mono, Normal';letter-spacing:0px;fill:#859900;stroke-width:10.6667"
       x="-846.85522"
       y="54743.773"
       id="text2478"
       inkscape:export-xdpi="10.246963"
       inkscape:export-ydpi="10.246963"><tspan
         sodipodi:role="line"
         id="tspan2476"
         x="-846.85522"
         y="54743.773"
         style="font-style:normal;font-variant:normal;font-weight:normal;font-stretch:normal;font-family:Ubuntu;-inkscape-font-specification:Ubuntu;fill:#859900;stroke-width:10.6667">GNU EMACS</tspan></text></g><g
     inkscape:groupmode="layer"
     id="g2187"
     inkscape:label="solarized-light"
     style="display:none"
     sodipodi:insensitive="true"><path
       style="opacity:0.405;fill:#211f46;fill-opacity:0.996078;stroke:#0a0b1b;stroke-width:0.00149061;stroke-miterlimit:4;stroke-dasharray:none;stroke-opacity:1;filter:url(#filter4350-3)"
       id="path2177"
       d="m 491.66937,257.75916 c 0,131.79436 -105.76,238.63481 -236.22155,238.63481 -130.46155,0 -236.221539,-106.84045 -236.221539,-238.63481 0,-131.79437 105.759989,-238.634808 236.221539,-238.634808 130.46155,0 236.22155,106.840438 236.22155,238.634808 z"
       transform="matrix(85.906264,0,0,85.835909,18055.603,168.37962)"
       inkscape:export-xdpi="10.246963"
       inkscape:export-ydpi="10.246963" /><path
       d="m 60293.082,22293.371 c 0,11312.69 -9085.445,20483.436 -20292.908,20483.436 -11207.462,0 -20292.916,-9170.746 -20292.916,-20483.436 0,-11312.69 9085.454,-20483.4343 20292.916,-20483.4343 11207.463,0 20292.908,9170.7443 20292.908,20483.4343 z"
       id="path2179"
       style="fill:url(#linearGradient4245-7);fill-opacity:1;stroke:#6c71c4;stroke-width:1092.27;stroke-miterlimit:4;stroke-dasharray:none;stroke-opacity:1"
       inkscape:export-xdpi="10.246963"
       inkscape:export-ydpi="10.246963"
       inkscape:export-filename="/home/matthias/data/dots/emacs_custom/.emacs.d/dashboard_logo_solarized-light.png" /><path
       d="m 33025.41,36681.212 c 0,0 1718.256,121.453 3928.717,-73.202 895.18,-78.829 4293.939,-412.395 6834.976,-969.205 0,0 3098.137,-662.498 4755.606,-1272.805 1734.274,-638.592 2678.003,-1180.579 3102.786,-1948.557 -18.525,-157.353 130.785,-715.355 -668.987,-1050.531 -2044.716,-856.924 -4416.099,-701.925 -9108.479,-801.332 -5203.667,-178.648 -6934.72,-1048.95 -7856.843,-1749.891 -884.255,-711.076 -439.607,-2678.327 3349.219,-4411.176 1908.541,-922.766 9390.237,-2625.655 9390.237,-2625.655 -2519.701,-1244.441 -7218.149,-3432.127 -8183.963,-3904.54 -847.076,-414.327 -2202.652,-1038.186 -2496.492,-1792.973 -333.153,-724.618 786.793,-1348.817 1412.385,-1527.569 2014.779,-580.678 4859.032,-941.589 7447.633,-982.107 1301.169,-20.368 1512.372,-104.016 1512.372,-104.016 1795.367,-297.571 2977.267,-1524.907 2484.837,-3468.6433 -442.071,-1984.047 -2773.594,-3149.853 -4989.225,-2746.264 -2086.456,380.063 -7115.359,1839.628 -7115.359,1839.628 6216.096,-53.756 7256.503,49.907 7721.164,699.035 274.411,383.3553 -124.692,908.9963 -1782.5,1179.5303 -1804.829,294.527 -5556.571,649.216 -5556.571,649.216 -3599.116,213.57 -6134.329,227.864 -6894.702,1836.415 -496.757,1050.886 529.74,1979.946 979.655,2561.492 1901.255,2112.655 4647.497,3252.067 6415.207,4091.138 665.114,315.704 2616.632,911.902 2616.632,911.902 -5734.765,-315.158 -9871.612,1444.341 -12298.255,3470.162 -2744.614,2536.556 -1530.479,5560.052 4092.478,7421.702 3321.144,1099.563 4968.219,1616.688 9922.206,1170.949 2917.95,-157.149 3377.936,-63.63 3407.029,175.605 40.957,336.822 -3241.006,1173.5 -4137.013,1431.739 -2279.457,656.963 -8254.84,1983.519 -8284.75,1989.953 z"
       id="path2181"
       style="fill:#839496;fill-opacity:1;fill-rule:evenodd;stroke:#000000;stroke-width:0.128;stroke-linecap:butt;stroke-linejoin:miter;stroke-miterlimit:4;stroke-dasharray:none;stroke-opacity:1"
       inkscape:export-xdpi="10.246963"
       inkscape:export-ydpi="10.246963" /><text
       xml:space="preserve"
       style="font-size:14603.9px;line-height:1.25;font-family:'Ubuntu Mono';-inkscape-font-specification:'Ubuntu Mono, Normal';letter-spacing:0px;fill:#859900;stroke-width:10.6667"
       x="-846.85522"
       y="54743.773"
       id="text2185"
       inkscape:export-xdpi="10.246963"
       inkscape:export-ydpi="10.246963"><tspan
         sodipodi:role="line"
         id="tspan2183"
         x="-846.85522"
         y="54743.773"
         style="font-style:normal;font-variant:normal;font-weight:normal;font-stretch:normal;font-family:Ubuntu;-inkscape-font-specification:Ubuntu;fill:#859900;stroke-width:10.6667">GNU EMACS</tspan></text></g></svg>
