<?xml version="1.0" encoding="UTF-8" standalone="no"?>
<svg
   width="3840"
   height="2160"
   viewBox="0 0 3839.9999 2160.0001"
   version="1.1"
   id="svg839"
   inkscape:version="1.3.2 (091e20ef0f, 2023-11-25)"
   sodipodi:docname="debian-everforest-wallpaper.svg"
   inkscape:export-filename="../debian-everforest-wallpaper.png"
   inkscape:export-xdpi="96"
   inkscape:export-ydpi="96"
   xmlns:inkscape="http://www.inkscape.org/namespaces/inkscape"
   xmlns:sodipodi="http://sodipodi.sourceforge.net/DTD/sodipodi-0.dtd"
   xmlns="http://www.w3.org/2000/svg"
   xmlns:svg="http://www.w3.org/2000/svg"
   xmlns:rdf="http://www.w3.org/1999/02/22-rdf-syntax-ns#"
   xmlns:cc="http://creativecommons.org/ns#"
   xmlns:dc="http://purl.org/dc/elements/1.1/"
   xmlns:ns2="http://ns.adobe.com/AdobeIllustrator/10.0/">
  <defs
     id="defs833">
    <filter
       inkscape:menu-tooltip="In and out glow with a possible offset and colorizable flood"
       inkscape:menu="Shadows and Glows"
       inkscape:label="Cutout Glow"
       style="color-interpolation-filters:sRGB;"
       id="filter4854"
       x="-0.03440737"
       y="-0.021704475"
       width="1.0831511"
       height="1.0524525">
      <feOffset
         dy="3"
         dx="3"
         id="feOffset4844" />
      <feGaussianBlur
         stdDeviation="3"
         result="blur"
         id="feGaussianBlur4846" />
      <feFlood
         flood-color="rgb(0,0,0)"
         flood-opacity="1"
         result="flood"
         id="feFlood4848" />
      <feComposite
         in="flood"
         in2="SourceGraphic"
         operator="in"
         result="composite"
         id="feComposite4850" />
      <feBlend
         in="blur"
         in2="composite"
         mode="normal"
         id="feBlend4852" />
    </filter>
    <filter
       inkscape:label="Rough Paper"
       inkscape:menu="Textures"
       inkscape:menu-tooltip="Aquarelle paper effect which can be used for pictures as for objects"
       height="1.3"
       y="-0.15"
       width="1.3"
       x="-0.15"
       style="color-interpolation-filters:sRGB;"
       id="filter5440">
      <feGaussianBlur
         stdDeviation="3"
         in="SourceGraphic"
         result="result1"
         id="feGaussianBlur5426" />
      <feTurbulence
         type="turbulence"
         baseFrequency="0.05"
         numOctaves="5"
         result="result0"
         id="feTurbulence5428" />
      <feDisplacementMap
         in2="result0"
         in="result1"
         xChannelSelector="R"
         yChannelSelector="G"
         scale="3"
         result="result2"
         id="feDisplacementMap5430" />
      <feBlend
         result="result5"
         in="result2"
         mode="multiply"
         in2="result2"
         id="feBlend5432" />
      <feGaussianBlur
         stdDeviation="5"
         in="result2"
         result="result4"
         id="feGaussianBlur5434" />
      <feComposite
         operator="arithmetic"
         in2="result5"
         in="result4"
         k2="0.25"
         k3="1"
         k1="1"
         id="feComposite5436"
         k4="0" />
      <feComposite
         operator="in"
         in2="result2"
         id="feComposite5438"
         result="fbSourceGraphic" />
      <feColorMatrix
         result="fbSourceGraphicAlpha"
         in="fbSourceGraphic"
         values="0 0 0 -1 0 0 0 0 -1 0 0 0 0 -1 0 0 0 0 1 0"
         id="feColorMatrix5531" />
      <feGaussianBlur
         id="feGaussianBlur5533"
         stdDeviation="3"
         result="result5"
         in="fbSourceGraphic" />
      <feTurbulence
         id="feTurbulence5535"
         result="result1"
         baseFrequency="0.02"
         type="fractalNoise"
         seed="0"
         numOctaves="3" />
      <feDisplacementMap
         in2="result1"
         id="feDisplacementMap5537"
         result="result3"
         in="fbSourceGraphic"
         xChannelSelector="R"
         yChannelSelector="G"
         scale="30" />
      <feComposite
         in2="result1"
         id="feComposite5539"
         result="result4"
         in="result3"
         operator="out" />
      <feComposite
         in2="result4"
         id="feComposite5541"
         result="result6"
         operator="arithmetic"
         k2="1"
         k1="0.3"
         k3="0.3"
         k4="0" />
      <feComposite
         in2="result5"
         id="feComposite5543"
         in="result6"
         operator="over"
         result="fbSourceGraphic" />
      <feColorMatrix
         result="fbSourceGraphicAlpha"
         in="fbSourceGraphic"
         values="0 0 0 -1 0 0 0 0 -1 0 0 0 0 -1 0 0 0 0 1 0"
         id="feColorMatrix5561" />
      <feTurbulence
         id="feTurbulence5563"
         numOctaves="2"
         baseFrequency="0.063"
         in="fbSourceGraphic" />
      <feColorMatrix
         id="feColorMatrix5565"
         values="0 0 0 0 0 0 0 0 0 0.5 0 0 0 0 0.5 0 0 0 -10 1" />
      <feGaussianBlur
         id="feGaussianBlur5567"
         stdDeviation="1"
         result="result1" />
      <feTurbulence
         id="feTurbulence5569"
         numOctaves="3"
         baseFrequency="0.031"
         type="fractalNoise"
         result="result0" />
      <feColorMatrix
         id="feColorMatrix5571"
         result="result2"
         values="1 0 0 0 0 0 1 0 0 0 0 0 1 0 0 0 0 0 2 -0.5" />
      <feComposite
         in2="result2"
         id="feComposite5573"
         operator="in"
         in="result1"
         result="result7" />
      <feComposite
         in2="fbSourceGraphic"
         id="feComposite5575"
         operator="atop"
         result="fbSourceGraphic" />
      <feColorMatrix
         result="fbSourceGraphicAlpha"
         in="fbSourceGraphic"
         values="0 0 0 -1 0 0 0 0 -1 0 0 0 0 -1 0 0 0 0 1 0"
         id="feColorMatrix5783" />
      <feTurbulence
         id="feTurbulence5785"
         type="fractalNoise"
         baseFrequency="0.04"
         numOctaves="5"
         seed="0"
         result="result4"
         in="fbSourceGraphic" />
      <feDisplacementMap
         in2="result4"
         id="feDisplacementMap5787"
         in="fbSourceGraphic"
         yChannelSelector="G"
         xChannelSelector="R"
         scale="10"
         result="result3" />
      <feDiffuseLighting
         id="feDiffuseLighting5789"
         lighting-color="rgb(233,230,215)"
         diffuseConstant="1"
         surfaceScale="2"
         result="result1"
         in="result4">
        <feDistantLight
           id="feDistantLight5791"
           azimuth="235"
           elevation="40" />
      </feDiffuseLighting>
      <feComposite
         in2="result1"
         id="feComposite5793"
         operator="in"
         in="result3"
         result="result2" />
      <feComposite
         in2="result1"
         id="feComposite5795"
         result="result5"
         operator="arithmetic"
         k1="1.7"
         k2="0"
         k3="0"
         k4="0" />
      <feBlend
         in2="result3"
         id="feBlend5797"
         in="result5"
         mode="normal" />
    </filter>
    <filter
       y="0"
       height="1"
       x="0"
       width="1"
       inkscape:menu-tooltip="Aquarelle paper effect which can be used for pictures as for objects"
       inkscape:menu="Textures"
       inkscape:label="Rough Paper"
       style="color-interpolation-filters:sRGB;"
       id="filter5813">
      <feTurbulence
         type="fractalNoise"
         baseFrequency="0.04"
         numOctaves="5"
         seed="0"
         result="result4"
         id="feTurbulence5799" />
      <feDisplacementMap
         in="SourceGraphic"
         in2="result4"
         yChannelSelector="G"
         xChannelSelector="R"
         scale="10"
         result="result3"
         id="feDisplacementMap5801" />
      <feDiffuseLighting
         lighting-color="rgb(233,230,215)"
         diffuseConstant="1"
         surfaceScale="2"
         result="result1"
         in="result4"
         id="feDiffuseLighting5805">
        <feDistantLight
           azimuth="235"
           elevation="40"
           id="feDistantLight5803" />
      </feDiffuseLighting>
      <feComposite
         operator="in"
         in="result3"
         in2="result1"
         result="result2"
         id="feComposite5807" />
      <feComposite
         in2="result1"
         result="result5"
         operator="arithmetic"
         k1="1.7"
         id="feComposite5809"
         k2="0"
         k3="0"
         k4="0" />
      <feBlend
         in="result5"
         in2="result3"
         mode="normal"
         id="feBlend5811" />
    </filter>
    <filter
       inkscape:menu-tooltip="In and out glow with a possible offset and colorizable flood"
       inkscape:menu="Shadows and Glows"
       inkscape:label="Cutout Glow"
       style="color-interpolation-filters:sRGB;"
       id="filter3111"
       x="-0.001875"
       y="-0.0033333333"
       width="1.0045313"
       height="1.0080556">
      <feOffset
         dy="3"
         dx="3"
         id="feOffset3101" />
      <feGaussianBlur
         stdDeviation="3"
         result="blur"
         id="feGaussianBlur3103" />
      <feFlood
         flood-color="rgb(0,0,0)"
         flood-opacity="1"
         result="flood"
         id="feFlood3105" />
      <feComposite
         in="flood"
         in2="SourceGraphic"
         operator="in"
         result="composite"
         id="feComposite3107" />
      <feBlend
         in="blur"
         in2="composite"
         mode="normal"
         id="feBlend3109" />
    </filter>
  </defs>
  <sodipodi:namedview
     id="base"
     pagecolor="#ffffff"
     bordercolor="#666666"
     borderopacity="1.0"
     inkscape:pageopacity="0.0"
     inkscape:pageshadow="2"
     inkscape:zoom="0.3535534"
     inkscape:cx="1477.8531"
     inkscape:cy="1056.4175"
     inkscape:document-units="px"
     inkscape:current-layer="g2320"
     inkscape:document-rotation="0"
     showgrid="false"
     units="px"
     inkscape:window-width="3840"
     inkscape:window-height="2084"
     inkscape:window-x="0"
     inkscape:window-y="32"
     inkscape:window-maximized="1"
     inkscape:showpageshadow="0"
     inkscape:pagecheckerboard="0"
     inkscape:deskcolor="#d1d1d1"
     showguides="true" />
  <metadata
     id="metadata836">
    <rdf:RDF>
      <cc:Work
         rdf:about="">
        <dc:format>image/svg+xml</dc:format>
        <dc:type
           rdf:resource="http://purl.org/dc/dcmitype/StillImage" />
      </cc:Work>
    </rdf:RDF>
  </metadata>
  <g
     inkscape:label="background"
     inkscape:groupmode="layer"
     id="layer1"
     style="display:none"
     sodipodi:insensitive="true">
    <rect
       style="fill:#32302f;stroke:none;stroke-width:11.3386;stop-color:#000000"
       id="rect2368"
       width="3840"
       height="2160"
       x="0"
       y="0"
       rx="0"
       ry="0" />
  </g>
  <g
     inkscape:groupmode="layer"
     id="layer6"
     inkscape:label="sunken logo colors"
     style="display:inline"
     sodipodi:insensitive="true">
    <path
       id="rect2876"
       style="fill:#d3c6aa;fill-opacity:1;stroke-width:10;stop-color:#000000"
       d="m 1755.9102,1251.5059 v 119.1328 h 328.1796 v -119.1328 h -124.3964 v 30.6269 h -27.7461 v -30.6269 z" />
    <path
       id="rect3041"
       style="fill:#f85552;fill-opacity:1;stroke-width:10;stop-color:#000000"
       d="m 1931.948,1217.746 h 27.746 v 64.387 h -27.746 z M 1755.9095,942.22001 h 328.181 V 1217.746 h -328.181 z" />
  </g>
  <g
     inkscape:label="background with cut outs"
     inkscape:groupmode="layer"
     id="g2320"
     style="display:inline;filter:url(#filter3111)">
    <path
       id="rect2318"
       style="fill:#2d353b;fill-opacity:1;stroke:none;stroke-width:11.3386;stop-color:#000000"
       d="M 0,0 V 2160 H 3840 V 0 Z m 1917.3828,954.0332 c -2.0289,1.13345 -4.0459,2.02083 -5.9473,3.35547 7.7245,-1.84469 7.3563,0.75753 15.25,-0.28515 -2.7713,0.39954 -6.1352,1.50141 -5.5996,1.91796 8.8211,1.01978 10.1703,-2.72606 18.334,-0.006 l -0.5156,-2.41406 c 11.343,4.09177 13.7167,3.39755 26.043,9.9375 4.3213,0.21219 4.7574,-2.66656 11.289,-0.006 1.1504,2.01755 -0.259,2.39338 7.7715,7.16797 0.8897,-0.35704 -1.6009,-2.62271 -3.5703,-4.42773 16.1376,8.62549 33.6745,27.0155 39.0273,46.69534 -5.0156,-9.232 -0.5164,4.7086 -2.2421,3.9804 2.2357,6.0214 4.0637,12.246 5.1972,18.6699 -1.4877,-5.2677 -4.7153,-17.99 -10.3769,-26.1933 -0.4647,5.2932 -7.3049,-3.6576 -3.5645,8 2.8449,4.1315 0.5742,-4.1887 4.0879,3.1504 0.057,3.4882 1.3867,6.9538 2.1602,11.4961 -1.2014,-0.1955 -2.683,-5.0237 -3.5586,-3.6778 1.2156,5.7155 3.2191,8.6956 3.9785,9.1348 -0.3882,0.9577 -1.4036,-0.8916 -1.4746,2.9961 0.4704,8.9487 2.5074,5.1745 3.4765,5.5996 -0.9804,4.4063 -4.9221,9.586 -2.9726,17.166 -0.5582,-2.2981 -1.6539,-4.6088 -2.4785,-6.7851 -0.7651,6.4721 1.4328,7.7335 -1.5567,15.5742 2.1536,-7.0671 1.9223,-13.4486 -0.1094,-10.377 0.9011,10.0481 -7.9536,17.7625 -6.9902,24.1211 l -2.5742,-3.543 c -4.1499,6.0148 -3.868,7.3141 -3.5957,8.6133 -1.5284,0.1351 -6.681,6.3696 -11.4277,10.0664 -18.719,15.0041 -41.0655,16.9674 -62.7032,8.8887 -0.8416,0.6886 3.8609,4.3759 7.3321,6.1582 8.2403,3.0462 17.5593,3.1685 24.8984,2.8965 -15.8599,6.6336 -46.1316,-6.7339 -56.0352,-24.4668 2.2358,0.4874 9.9127,12.4692 15.6622,14.4102 -3.3976,-2.7203 -6.0241,-6.1843 -8.461,-9.7461 4.5905,5.2734 10.1655,9.581 16.2578,12.4316 -0.3853,-1.4791 1.6837,-1.7769 -1.1953,-3.7207 -18.3421,-14.0577 -29.183,-26.0019 -25.418,-53.6582 2.794,-2.1139 3.5418,-13.6496 9.9571,-17.6875 3.9104,-8.6455 15.6346,-16.6045 28.1621,-16.8086 12.7825,-0.697 23.5761,6.8325 28.9941,13.9336 -9.8639,-9.2065 -26.0188,-12.0013 -39.7988,-5.1836 -14.0888,6.3445 -22.4431,21.8586 -21.2246,37.3047 0.5214,-0.7651 0.9889,-0.2892 1.2383,-2.1934 -0.4307,30.0252 32.3606,52.0357 55.9648,40.9278 l 0.2774,0.625 c 9.5749,-2.6154 8.3401,-4.7687 14.5996,-9.0645 -0.4874,1.006 -4.2166,3.5809 -1.9922,3.6289 3.0433,-0.8104 12.5473,-9.6555 17.2285,-13.8125 2.145,-4.6273 -1.1474,-2.5029 1.8477,-8.3222 l 3.664,-1.8223 c 2.0372,-5.882 4.2896,-9.21 4.0352,-16.0547 l -2.1289,4.5078 c 3.1482,-9.5154 1.3353,-19.8779 1.7773,-28.8379 l -0.8769,-0.2344 c -0.7707,-22.535 -20.2565,-46.48861 -37.5899,-54.59564 -14.9503,-6.89982 -37.9579,-8.08732 -48.584,-2.88476 1.4622,-1.29498 7.2921,-1.84045 5.5352,-2.83789 -16.6419,1.65201 -12.9219,5.80478 -25.6817,9.06054 -3.4959,3.38053 10.212,-2.70991 2.836,1.66797 -6.8432,1.89004 -10.0304,-1.19012 -20.1719,9.30274 0.9039,1.45646 6.4383,-4.31715 1.8223,1.48047 -9.5324,-1.17879 -30.1052,21.80307 -34.4746,29.41987 l 2.2832,0.3926 c -3.7489,9.3992 -8.6837,15.3919 -9.3496,21.0195 -0.972,13.8423 -5.8057,39.0871 0.9043,46.8399 l -0.6524,6.4746 c 0.9181,1.839 1.6179,3.7062 2.7598,5.4375 l -1.4903,0.1191 c 7.0586,22.2752 7.5836,0.415 16.9082,23.5489 -1.3545,-0.4563 -2.72,-0.9554 -4.6894,-3.6133 -0.238,2.0288 2.8701,8.1171 6.5566,12.8691 l -1.5605,1.7832 c 2.0544,3.7376 3.9497,4.5557 5.375,5.8535 -7.6735,-4.1881 7.1185,13.8033 8.4531,16.0957 l 1.1777,-2.1035 c -0.1728,3.0235 2.1642,6.9273 6.545,12.3282 l 3.6504,-0.1446 c 1.5019,2.9781 6.9987,8.3388 10.3339,8.5938 l -2.2187,2.8925 c 8.3705,2.6494 4.0674,3.5131 14.3535,7.1543 l -2.0781,-3.6679 c 5.2479,4.5537 6.8691,8.5343 14.2734,12.0254 10.2691,3.5789 11.6287,2.1588 22.1641,5.1738 -8.9316,-0.2494 -19.4289,-0.1591 -26.4903,-2.6895 -48.1766,-13.0452 -92.2513,-69.564 -89.0332,-127.7773 -0.7398,-11.7851 1.1719,-26.5106 -0.789,-29.4434 2.7515,-8.9713 5.9451,-19.904 12.3633,-32.916 -0.4647,-0.8728 1.0568,2.5487 4.3183,-3.0137 1.9778,-4.3431 3.5972,-9.1304 6.0879,-13.3554 l 1.2832,-0.29883 c 1.2836,-7.46088 17.3989,-18.8934 22.1934,-24.64843 l 0.3281,2.19921 c 10.4646,-9.81279 29.1127,-16.39137 39.6113,-21.07812 -2.7571,3.05467 6.1781,-0.30037 12.6133,-0.69141 z m -93.2695,53.248 c 0.3782,1.6603 4.0501,-2.4765 1.1308,4.0958 -5.6409,3.9507 -0.7017,1.747 -1.1308,-4.0958 z m -4.7227,19.0372 c -0.5072,2.3604 -0.7452,4.8031 -2.0742,8.875 0.3854,-3.1878 -1.5897,-4.1882 2.0742,-8.875 z m 150.8965,28.3125 c 0.5239,-0.014 0.8985,1.2908 0.6406,5.1035 -0.7622,3.0717 -1.39,-1.8929 -2.1777,-2.3067 0.3386,-1.4522 1.0132,-2.7834 1.5371,-2.7968 z m 46.3008,12.8476 c -1.1419,8.6907 -3.8309,17.2667 -8.002,25.1074 3.7744,-7.4326 6.2418,-15.4443 7.3809,-23.5429 z m -49.041,2.8555 c -0.6489,3.9387 -2.4853,7.7479 -5.0157,11.2305 v 0 c 0.1763,-1.6933 -1.3646,-1.7447 -1.832,-2.8086 -0.2955,1.0149 0.1444,1.371 3.3262,-0.6329 1.4395,-2.5616 2.9558,-4.9837 3.5254,-7.789 z m -17.2637,16.3535 c -1.2355,1.1731 -2.6115,2.3745 -4.1445,3.5703 -5.5285,-0.853 -10.5577,-2.9723 -6.3242,-3.0293 3.5303,0.3202 7.0315,0.3006 10.4687,-0.541 z m -53.4336,0.5527 c 0.9804,1.9496 1.8488,3.9094 3.3223,5.541 l 1.3047,3.8438 c -1.7767,-3.0036 -3.6919,-5.9532 -4.627,-9.3848 z m -3.2558,5.7969 c 3.4962,6.7497 5.3933,8.8105 7.9492,13.7949 -3.5506,-2.947 -5.7614,-7.0452 -8.5469,-10.8281 z m 52.2246,164.3574 10.875,10.8692 -10.875,10.8691 -10.8711,-10.8691 z m -52.7618,4.1114 c -1.0485,11.948 -1.1777,35.3216 -1.1777,42.0175 1.9665,-5.3839 5.6432,-15.8886 18.25,-15.8886 6.2992,0 12.2105,3.1543 15.8828,9.3203 3.8056,6.5683 4.3321,16.9395 4.3321,21.666 -1e-4,7.7472 -1.3127,17.9906 -5.1211,25.6074 -8.0079,16.4096 -22.8445,16.4082 -27.9649,16.4082 -8.0135,0 -14.7059,-1.1786 -20.0898,-3.2812 1.5755,-4.1994 1.5742,-9.7103 1.5742,-19.4297 v 0 -32.2969 c 0,-28.2315 -7e-4,-36.907 -5.1211,-39.0039 5.6418,-0.527 10.8995,-1.1776 19.4316,-5.1191 z m -73.4863,0.2597 c -1.7059,10.2435 -1.7051,43.9896 -1.7051,63.9453 0,20.49 1.5761,29.9412 3.6758,34.1407 -1.1816,-0.1332 -2.2299,-0.2598 -3.2812,-0.2598 -1.0541,-0.1332 -2.2345,-0.1328 -3.6797,-0.1328 -4.0691,0 -6.5622,0.2594 -9.0586,0.3926 l -0.2637,-11.6817 c -2.2301,7.7443 -7.484,12.209 -15.625,12.209 -2.8875,0 -22.584,-7e-4 -22.584,-37.0234 0,-15.2364 3.8084,-35.7246 27.3106,-35.7246 5.3839,0 8.5385,0.9221 11.0293,1.707 0,-17.3277 0,-19.2971 -3.5449,-23.1055 8.9272,-0.785 13.0028,-2.2311 17.7265,-4.4668 z m 219.0274,24.9532 v 13.914 c 1.5727,-4.0748 4.8524,-13.1348 17.9863,-13.1348 16.4153,0 16.5445,11.9497 16.6777,19.8243 v 39.5332 c 0.1332,4.4658 0.1327,9.1916 1.9688,13 -2.8931,-0.2607 -4.5983,-0.6582 -9.9766,-0.6582 -3.1538,0 -4.861,0.2672 -7.3574,0.6582 0.5214,-1.7058 0.7901,-2.3638 1.0508,-4.5996 0.3938,-3.015 0.6582,-13.1281 0.6582,-16.6758 v -14.1797 c 0,-6.1717 -8e-4,-15.1038 -0.4004,-18.252 -0.2607,-2.2301 -0.9107,-8.2675 -8.5332,-8.2675 -7.4836,0 -9.9776,5.5107 -10.8985,9.9765 -1.0457,4.5933 -1.0468,9.5874 -1.0468,29.0176 0.1276,16.8092 0.1275,18.3776 1.4394,22.9766 -2.23,-0.2607 -4.9871,-0.5196 -8.9258,-0.5196 -3.1539,0 -5.2539,0.1257 -7.875,0.5196 0.9181,-2.1026 1.4465,-3.1545 1.7071,-10.5039 0.2664,-7.2229 0.7897,-42.6773 -0.4004,-51.0762 -0.6517,-5.1261 -1.9687,-6.3052 -3.4082,-7.6172 10.6375,-0.5271 14.047,-2.2364 17.334,-3.9355 z m -84.3301,0.1289 c -1.0456,5.7721 -1.1836,8.6662 -1.1836,17.4589 -0.2579,45.3071 -0.3912,50.1611 2.5019,55.545 -2.6296,-0.3939 -4.4709,-0.6563 -8.2793,-0.6563 -4.1938,0 -7.0904,0.2652 -10.1054,0.6563 1.312,-2.4965 1.8366,-3.6797 2.2304,-12.209 0.5271,-11.6887 0.6564,-42.9404 -0.2617,-49.5059 -0.6574,-4.9929 -1.8367,-5.7778 -3.6758,-7.0898 10.765,-1.0513 13.7863,-1.836 18.7735,-4.1992 z m -103.0117,0.6543 c 19.4316,0 22.4511,15.1028 22.4511,30.4668 l -0.2539,7.7421 h -34.9336 c 0,6.4324 0.2637,25.0821 20.7481,25.0821 7.8775,0 11.4227,-2.2299 14.1855,-3.9414 -0.7935,4.0691 -1.4486,7.0899 -1.3183,11.8164 -2.3632,0.6631 -6.7018,1.9687 -15.625,1.9687 -20.0904,0 -32.0371,-10.5045 -32.0371,-37.1562 0,-6.2963 -4e-4,-35.9785 26.7832,-35.9785 z m 136.9199,0.1289 c 19.6966,0 22.3262,9.8471 22.3262,19.83 l -0.1329,26.7871 c 0,6.9595 -9e-4,11.9484 0.2598,16.9356 0.3995,5.1204 1.1838,6.4379 2.6289,8.668 -2.2301,-0.1332 -4.3324,-0.3926 -6.5625,-0.3926 -3.9416,0 -6.3047,0.2594 -8.668,0.3926 -0.3939,-4.599 -0.5256,-8.1403 -0.3925,-13.918 -2.4964,5.5142 -6.5639,14.4453 -18.6465,14.4453 -1.0541,0 -4.3358,-2e-4 -7.6172,-1.4453 -7.3561,-3.5477 -9.8516,-11.8167 -9.8516,-20.0898 0,-17.5997 11.0274,-24.0254 27.709,-24.0254 3.5477,0 5.652,0.2592 8.1485,0.3867 0,-10.2379 0,-17.461 -10.9043,-17.461 -6.8234,0 -13.5204,2.3643 -18.6465,6.8301 -1.1788,-5.6531 -2.49,-8.1409 -4.0684,-11.0312 3.8084,-1.9694 11.4229,-5.9121 24.418,-5.9121 z m -138.2305,8.4062 c -9.3198,0 -11.5523,9.7151 -11.6855,20.6133 h 22.4492 c 0.2607,-9.3255 -0.5201,-20.6133 -10.7637,-20.6133 z m -53.8769,0.918 c -14.8369,0 -15.2305,17.5995 -15.2305,23.9043 0,1.9637 -10e-5,6.4325 0.918,11.8164 0.7877,4.854 3.1522,16.0156 12.8671,16.0156 9.453,0 9.8507,-9.5868 10.1114,-14.0469 0.2636,-5.5171 0.2631,-26.6539 0.3906,-26.7871 l -0.127,-8.539 c -1.9694,-1.0456 -4.4638,-2.3633 -8.9296,-2.3633 z m 108.4062,2.6347 c -1.1788,0 -7.3492,0.1274 -10.1035,9.4473 -0.9238,2.896 -2.1035,8.795 -2.1035,20.0899 0,9.4516 0,17.5938 0.2636,22.3203 1.7059,0.3911 4.331,0.791 6.4336,0.791 15.2308,0 17.459,-16.4149 17.459,-28.625 0,-10.2379 -1.9691,-24.0235 -11.9492,-24.0235 z m 86.1914,23.0997 c -4.9843,0 -16.0156,0.927 -16.0156,13.2675 0,6.4324 1.6999,12.9942 9.5859,12.9942 3.4145,0 8.0086,-1.7063 10.7657,-7.6172 2.2357,-4.5934 2.3682,-10.3713 2.6289,-18.6445 z" />
  </g>
  <path
     ns2:knockout="Off"
     fill="#a80030"
     d="m 1923.7525,955.51521 c 2.2613,0.40238 4.8852,0.71408 4.5084,1.2553 2.4822,-0.54689 3.0404,-1.03994 -4.5084,-1.2553"
     id="path1550-6"
     style="stroke-width:0.534126" />
  <path
     ns2:knockout="Off"
     fill="#a80030"
     d="m 1928.2637,956.77051 -1.5897,0.33154 1.482,-0.13602 0.1077,-0.19552"
     id="path1552-2"
     style="stroke-width:0.534126" />
  <path
     ns2:knockout="Off"
     fill="#a80030"
     d="m 1924.5941,953.48349 c 2.8592,-1.04561 7.0331,-0.57523 10.0764,-1.2638 -3.9614,0.33154 -7.903,0.52989 -11.7936,1.02578 l 1.7172,0.23802"
     id="path1562-0"
     style="stroke-width:0.534126" />
  <g
     inkscape:groupmode="layer"
     id="layer4"
     inkscape:label="everforest color stripes"
     style="display:inline"
     sodipodi:insensitive="true">
    <path
       id="rect2415"
       style="fill:#a7c080;fill-opacity:1;stroke:none;stroke-width:11.3386;stop-color:#000000"
       d="m 0,952.23633 v 63.88277 h 1790.1426 a 144.95689,144.95689 0 0 1 62.1445,-63.88277 z m 1988.4668,0 a 144.95689,144.95689 0 0 1 61.6133,63.88277 H 3840 v -63.88277 z" />
    <path
       id="rect2417"
       style="fill:#7fbbb3;fill-opacity:1;stroke:none;stroke-width:11.3386;stop-color:#000000"
       d="M 0,1016.1191 V 1080 h 1775.043 a 144.95689,144.95689 0 0 1 15.0996,-63.8809 z m 2050.0801,0 A 144.95689,144.95689 0 0 1 2064.957,1080 H 3840 v -63.8809 z" />
    <path
       id="rect2419"
       style="fill:#dbbc7f;fill-opacity:1;stroke:none;stroke-width:11.3386;stop-color:#000000"
       d="m 0,1080 v 63.8809 H 1790.1426 A 144.95689,144.95689 0 0 1 1775.043,1080 Z m 2064.957,0 a 144.95689,144.95689 0 0 1 -15.0996,63.8809 H 3840 V 1080 Z" />
    <path
       id="rect2421"
       style="fill:#e67e80;fill-opacity:1;stroke:none;stroke-width:11.3386;stop-color:#000000"
       d="m 0,1143.8809 v 63.8828 h 1852.2871 a 144.95689,144.95689 0 0 1 -62.1445,-63.8828 z m 2049.8574,0 a 144.95689,144.95689 0 0 1 -62.1445,63.8828 H 3840 v -63.8828 z" />
  </g>
  <g
     inkscape:groupmode="layer"
     id="layer5"
     inkscape:label="gruvbox color stripes cut out"
     style="display:none"
     sodipodi:insensitive="true">
    <circle
       style="fill:#32302f;fill-opacity:1;stroke:none;stroke-width:11.3386;stop-color:#000000"
       id="path5497"
       cx="1920"
       cy="1080"
       r="144.95689" />
  </g>
  <g
     inkscape:groupmode="layer"
     id="layer2"
     inkscape:label="debian logo org"
     style="display:none"
     sodipodi:insensitive="true">
    <path
       ns2:knockout="Off"
       fill="#a80030"
       d="m 1939.8136,1087.2283 c -4.2335,0.057 0.7962,2.1762 6.3247,3.0291 1.533,-1.1958 2.9101,-2.3972 4.1456,-3.5703 -3.4372,0.8416 -6.9396,0.8614 -10.4703,0.5412"
       id="path1544"
       style="stroke-width:0.534126" />
    <path
       ns2:knockout="Off"
       fill="#a80030"
       d="m 1962.5309,1081.5638 c 2.5304,-3.4825 4.3666,-7.2909 5.0155,-11.2297 -0.5696,2.8053 -2.0856,5.2281 -3.5251,7.7897 -7.9143,4.9844 -0.748,-2.9583 -0.01,-5.9818 -8.5066,10.7197 -1.1731,6.4267 -1.4848,9.4218"
       id="path1546"
       style="stroke-width:0.534126" />
    <path
       ns2:knockout="Off"
       fill="#a80030"
       d="m 1970.9269,1059.7335 c 0.5157,-7.6253 -1.499,-5.211 -2.1762,-2.3066 0.7877,0.4137 1.414,5.3783 2.1762,2.3066"
       id="path1548"
       style="stroke-width:0.534126" />
    <path
       ns2:knockout="Off"
       fill="#a80030"
       d="m 1923.7525,955.51519 c 2.2613,0.40238 4.8852,0.71408 4.5084,1.2553 2.4822,-0.54689 3.0404,-1.03994 -4.5084,-1.2553"
       id="path1550"
       style="stroke-width:0.534126" />
    <path
       ns2:knockout="Off"
       fill="#a80030"
       d="m 1928.2637,956.77049 -1.5897,0.33154 1.482,-0.13602 0.1077,-0.19552"
       id="path1552"
       style="stroke-width:0.534126" />
    <path
       ns2:knockout="Off"
       fill="#a80030"
       d="m 1998.7334,1062.6238 c 0.255,6.8461 -1.9977,10.1728 -4.0351,16.0554 l -3.6639,1.822 c -2.9951,5.8203 0.2975,3.6951 -1.8475,8.3224 -4.6812,4.157 -14.1852,13.0036 -17.2285,13.814 -2.2244,-0.048 1.5046,-2.6239 1.992,-3.6299 -6.2595,4.2958 -5.024,6.4494 -14.5989,9.0648 l -0.2777,-0.6262 c -23.6042,11.1078 -56.395,-10.901 -55.9643,-40.9262 -0.2494,1.9042 -0.7169,1.4281 -1.2383,2.1932 -1.2185,-15.4461 7.1351,-30.9603 21.2239,-37.3048 13.78,-6.8178 29.9346,-4.0238 39.7985,5.1827 -5.418,-7.1011 -16.2113,-14.6301 -28.9938,-13.933 -12.5275,0.204 -24.2503,8.1637 -28.1607,16.8091 -6.4153,4.038 -7.1634,15.5737 -9.9574,17.6876 -3.7659,27.6563 7.0756,39.6001 25.4177,53.6577 2.879,1.9439 0.8105,2.2414 1.1958,3.7206 -6.0923,-2.8506 -11.6689,-7.1578 -16.2594,-12.4312 2.4369,3.5619 5.0637,7.0246 8.4613,9.7449 -5.7495,-1.941 -13.4258,-13.9216 -15.6616,-14.409 9.9036,17.7329 40.1753,31.0991 56.0352,24.4656 -7.3391,0.272 -16.6589,0.1502 -24.8992,-2.896 -3.4712,-1.7823 -8.1722,-5.4689 -7.3306,-6.1575 21.6377,8.0787 43.9837,6.115 62.7027,-8.8891 4.7662,-3.7121 9.9688,-10.0226 11.4734,-10.1076 -2.264,3.4061 0.3882,1.6379 -1.3516,4.6444 4.7378,-7.6537 -2.0657,-3.117 4.9022,-13.2161 l 2.5729,3.542 c -0.9634,-6.3587 7.8917,-14.0718 6.9906,-24.1199 2.0317,-3.0717 2.2641,3.3097 0.1105,10.3768 2.9895,-7.8407 0.7906,-9.1017 1.5557,-15.5737 0.8246,2.1763 1.9212,4.4857 2.4794,6.7837 -1.9495,-7.5799 1.9921,-12.7598 2.9725,-17.1661 -0.9691,-0.4251 -3.0065,3.3493 -3.4769,-5.5993 0.071,-3.8877 1.0853,-2.0374 1.4735,-2.9951 -0.7594,-0.4393 -2.7628,-3.4202 -3.9784,-9.1357 0.8756,-1.346 2.3576,3.4825 3.559,3.6781 -0.7735,-4.5423 -2.1025,-8.0079 -2.1592,-11.4961 -3.5137,-7.3391 -1.244,0.9804 -4.0889,-3.151 -3.7404,-11.6576 3.1,-2.7061 3.5647,-7.9994 5.6616,8.2034 8.8891,20.9265 10.3768,26.1942 -1.1335,-6.4239 -2.9612,-12.6494 -5.1969,-18.6708 1.7257,0.7282 -2.7742,-13.2133 2.2414,-3.9813 -5.3528,-19.67961 -22.8901,-38.06992 -39.0277,-46.6955 1.9694,1.80502 4.4601,4.07193 3.5704,4.42897 -8.0305,-4.77468 -6.6194,-5.15155 -7.7698,-7.1691 -6.5316,-2.66079 -6.968,0.21819 -11.2893,0.006 -12.3263,-6.54004 -14.7009,-5.8458 -26.0439,-9.93757 l 0.5157,2.41426 c -8.1637,-2.72029 -9.5125,1.02578 -18.3336,0.006 -0.5356,-0.41655 2.828,-1.51883 5.5993,-1.91837 -7.8946,1.04277 -7.5262,-1.5585 -15.2507,0.28619 1.9014,-1.33464 3.9189,-2.22157 5.9478,-3.35502 -6.4352,0.39104 -15.3696,3.74607 -12.6125,0.6914 -10.4986,4.68684 -29.1468,11.26371 -39.6114,21.07659 l -0.3287,-2.1989 c -4.7945,5.75512 -20.9094,17.18884 -22.193,24.64981 l -1.2837,0.29753 c -2.4907,4.22501 -4.1088,9.01101 -6.0866,13.35501 -3.2615,5.5624 -4.7832,2.1422 -4.3185,3.0149 -6.4182,13.0121 -9.6117,23.9443 -12.3632,32.9156 1.9609,2.9328 0.048,17.6592 0.7878,29.4443 -3.219,58.2142 40.8554,114.7311 89.0329,127.7772 7.0614,2.5304 17.56,2.4393 26.4916,2.6887 -10.5354,-3.015 -11.8956,-1.595 -22.1647,-5.1738 -7.4043,-3.4911 -9.0251,-7.4723 -14.273,-12.026 l 2.0771,3.6696 c -10.2861,-3.6413 -5.9819,-4.5055 -14.3524,-7.155 l 2.2187,-2.8931 c -3.3352,-0.255 -8.8324,-5.6163 -10.3343,-8.5944 l -3.6497,0.1445 c -4.3808,-5.4009 -6.7185,-9.3028 -6.5457,-12.3263 l -1.1788,2.1025 c -1.3346,-2.2924 -16.1262,-20.2831 -8.4527,-16.095 -1.4253,-1.2978 -3.321,-2.1168 -5.3754,-5.8543 l 1.5613,-1.7824 c -3.6865,-4.752 -6.795,-10.8415 -6.557,-12.8704 1.9694,2.658 3.3352,3.1567 4.6897,3.6129 -9.3255,-23.1338 -9.8498,-1.2723 -16.9084,-23.5475 l 1.4905,-0.119 c -1.1419,-1.7314 -1.8418,-3.5987 -2.7599,-5.4378 l 0.6517,-6.4748 c -6.71,-7.7528 -1.8759,-32.9977 -0.9039,-46.84 0.6659,-5.6276 5.6021,-11.6208 9.351,-21.0199 l -2.2839,-0.3911 c 4.3694,-7.6168 24.9416,-30.60046 34.474,-29.42167 4.616,-5.79762 -0.9181,-0.0227 -1.822,-1.47916 10.1415,-10.49295 13.3294,-7.41279 20.1726,-9.30283 7.376,-4.37797 -6.3332,1.71152 -2.8364,-1.66901 12.7598,-3.25585 9.0393,-7.40713 25.6812,-9.05914 1.7569,0.99744 -4.0719,1.5415 -5.5341,2.83648 10.6261,-5.20256 33.6324,-4.01527 48.5827,2.88464 17.3334,8.10703 36.8203,32.05979 37.591,54.59569 l 0.8756,0.2352 c -0.442,8.96 1.3715,19.3226 -1.7767,28.8379 l 2.1281,-4.5083"
       id="path1554"
       style="stroke-width:0.534126"
       sodipodi:nodetypes="cccccccccccccccccccccccccccccccccccccccccccccccccccccccccccccccccccccccccccccccccccccccccccccccc" />
    <path
       ns2:knockout="Off"
       fill="#a80030"
       d="m 1893.5941,1093.0372 -0.5979,2.9669 c 2.7855,3.7829 4.9957,7.8803 8.5463,10.8273 -2.5559,-4.9844 -4.4516,-7.0444 -7.9484,-13.7942"
       id="path1556"
       style="stroke-width:0.534126" />
    <path
       ns2:knockout="Off"
       fill="#a80030"
       d="m 1900.171,1092.7822 c -1.4735,-1.6322 -2.3406,-3.593 -3.321,-5.5426 0.9351,3.4316 2.8506,6.3814 4.6273,9.385 l -1.3063,-3.8424"
       id="path1558"
       style="stroke-width:0.534126" />
    <path
       ns2:knockout="Off"
       fill="#a80030"
       d="m 2016.5881,1067.4778 -0.6205,1.5642 c -1.1391,8.0985 -3.6072,16.1121 -7.3816,23.5447 4.1711,-7.8407 6.8602,-16.4181 8.0021,-25.1089"
       id="path1560"
       style="stroke-width:0.534126" />
    <path
       ns2:knockout="Off"
       fill="#a80030"
       d="m 1924.5941,953.48347 c 2.8592,-1.04561 7.0331,-0.57523 10.0764,-1.2638 -3.9614,0.33154 -7.903,0.52989 -11.7936,1.02578 l 1.7172,0.23802"
       id="path1562"
       style="stroke-width:0.534126" />
    <path
       ns2:knockout="Off"
       fill="#a80030"
       d="m 1824.0822,1006.9315 c 0.6602,6.1037 -4.5905,8.4754 1.1618,4.446 3.0887,-6.9537 -1.2015,-1.9184 -1.1618,-4.446"
       id="path1564"
       style="stroke-width:0.534126" />
    <path
       ns2:knockout="Off"
       fill="#a80030"
       d="m 1817.3155,1035.1942 c 1.329,-4.0719 1.567,-6.5145 2.0742,-8.8749 -3.6639,4.6868 -1.6888,5.6871 -2.0742,8.8749"
       id="path1566"
       style="stroke-width:0.534126" />
    <g
       id="g3039">
      <path
         ns2:knockout="Off"
         d="m 1805.1252,1307.8581 c -0.1275,0.1331 -0.1275,21.2692 -0.3911,26.7863 -0.2607,4.4602 -0.6574,14.0464 -10.1104,14.0464 -9.7165,0 -12.0798,-11.1617 -12.8675,-16.0157 -0.9181,-5.384 -0.9181,-9.8526 -0.9181,-11.8163 0,-6.3049 0.3939,-23.9046 15.2308,-23.9046 4.4658,0 6.9594,1.3177 8.9288,2.3633 z m -38.0756,15.4971 c 0,37.0243 19.6966,37.0243 22.5841,37.0243 8.141,0 13.3946,-4.4658 15.6247,-12.2101 l 0.2635,11.6831 c 2.4964,-0.1332 4.99,-0.3939 9.0591,-0.3939 1.4452,0 2.624,0 3.6781,0.1332 1.0513,0 2.0997,0.1275 3.2813,0.2607 -2.0997,-4.1995 -3.6752,-13.6525 -3.6752,-34.1425 0,-19.9573 0,-53.7003 1.7059,-63.9439 -4.7237,2.2358 -8.7985,3.6809 -17.7273,4.4658 3.5449,3.8085 3.5449,5.7778 3.5449,23.1055 -2.4908,-0.7849 -5.6446,-1.7058 -11.0285,-1.7058 -23.5022,0 -27.3106,20.4872 -27.3106,35.7236"
         id="path1568"
         style="stroke-width:0.999999" />
      <path
         ns2:knockout="Off"
         d="m 1838.2589,1316.6508 c 0.1332,-10.8981 2.3661,-20.6147 11.6859,-20.6147 10.2436,0 11.0257,11.2892 10.765,20.6147 z m 35.4488,1.3177 c 0,-15.364 -3.0178,-30.4673 -22.4509,-30.4673 -26.7836,0 -26.7836,29.6824 -26.7836,35.9787 0,26.6532 11.9467,37.1575 32.0371,37.1575 8.9232,0 13.2615,-1.3063 15.6247,-1.9694 -0.1303,-4.7265 0.5242,-7.7472 1.3177,-11.8163 -2.7628,1.7116 -6.3077,3.9416 -14.1852,3.9416 -20.4844,0 -20.7479,-18.651 -20.7479,-25.0833 h 34.9331 l 0.255,-7.7415"
         id="path1570"
         style="stroke-width:0.999999" />
      <path
         ns2:knockout="Off"
         d="m 1916.4248,1323.6131 c 0,12.2101 -2.2301,28.6254 -17.4609,28.6254 -2.1026,0 -4.7265,-0.3996 -6.4324,-0.7906 -0.2635,-4.7265 -0.2635,-12.8675 -0.2635,-22.3206 0,-11.2948 1.1788,-17.1945 2.1026,-20.0904 2.7543,-9.3199 8.9259,-9.4474 10.1047,-9.4474 9.9801,0 11.9495,13.7857 11.9495,24.0236 z m -37.6817,14.3127 c 0,9.7194 0,15.2308 -1.5755,19.4302 5.3839,2.1026 12.0769,3.2814 20.0904,3.2814 5.1204,0 19.9573,0 27.9652,-16.4096 3.8084,-7.6168 5.1204,-17.8604 5.1204,-25.6076 0,-4.7265 -0.5271,-15.0976 -4.3327,-21.666 -3.6723,-6.166 -9.5833,-9.3198 -15.8825,-9.3198 -12.6068,0 -16.2821,10.5043 -18.2486,15.8882 0,-6.6959 0.1275,-30.0677 1.176,-42.0172 -8.5321,3.9416 -13.7885,4.5934 -19.4303,5.1204 5.1204,2.0969 5.1204,10.7707 5.1204,39.0022 v 32.2978"
         id="path1572"
         style="stroke-width:0.999999" />
      <path
         ns2:knockout="Off"
         d="m 1955.5856,1359.8525 c -2.6296,-0.3939 -4.4715,-0.6574 -8.2799,-0.6574 -4.1938,0 -7.0897,0.2663 -10.1047,0.6574 1.312,-2.4965 1.8362,-3.6809 2.23,-12.2102 0.5271,-11.6887 0.6575,-42.9409 -0.2606,-49.5064 -0.6574,-4.9929 -1.8362,-5.7778 -3.6753,-7.0898 10.765,-1.0513 13.7857,-1.8362 18.7729,-4.1995 -1.0456,5.7722 -1.1845,8.6681 -1.1845,17.4609 -0.2579,45.307 -0.391,50.1611 2.5021,55.545"
         id="path1574"
         style="stroke-width:0.999999" />
      <path
         ns2:knockout="Off"
         d="m 1997.6311,1322.6893 c -0.2607,8.2742 -0.3939,14.052 -2.6296,18.6453 -2.7571,5.911 -7.3505,7.6169 -10.765,7.6169 -7.886,0 -9.5862,-6.5627 -9.5862,-12.9951 0,-12.3405 11.0314,-13.2671 16.0157,-13.2671 z m -36.1119,16.1546 c 0,8.2742 2.4965,16.5428 9.8526,20.0905 3.2814,1.4451 6.5627,1.4451 7.6168,1.4451 12.0826,0 16.1489,-8.9316 18.6453,-14.4459 -0.1331,5.7778 0,9.3199 0.3939,13.9189 2.3633,-0.1332 4.7265,-0.3939 8.6681,-0.3939 2.2301,0 4.3326,0.2607 6.5627,0.3939 -1.4451,-2.2301 -2.2301,-3.5477 -2.6296,-8.6681 -0.2607,-4.9872 -0.2607,-9.9773 -0.2607,-16.9367 l 0.1332,-26.7863 c 0,-9.9829 -2.6296,-19.8298 -22.3262,-19.8298 -12.9951,0 -20.6091,3.9416 -24.4175,5.9109 1.5784,2.8903 2.8903,5.3783 4.0691,11.0314 5.1261,-4.4658 11.822,-6.8291 18.6454,-6.8291 10.9038,0 10.9038,7.223 10.9038,17.4609 -2.4965,-0.1275 -4.599,-0.3882 -8.1467,-0.3882 -16.6816,0 -27.7102,6.4267 -27.7102,24.0264"
         id="path1576"
         style="stroke-width:0.999999" />
      <path
         ns2:knockout="Off"
         d="m 2073.2609,1346.8546 c 0.1332,4.4658 0.1332,9.1923 1.9693,13.0007 -2.8931,-0.2607 -4.5989,-0.6574 -9.9772,-0.6574 -3.1538,0 -4.8597,0.2664 -7.3561,0.6574 0.5214,-1.7059 0.7906,-2.3633 1.0513,-4.599 0.3938,-3.015 0.6574,-13.1282 0.6574,-16.6759 v -14.1796 c 0,-6.1716 0,-15.1032 -0.3996,-18.2514 -0.2607,-2.2301 -0.9124,-8.2686 -8.5349,-8.2686 -7.4836,0 -9.9772,5.5115 -10.8981,9.9773 -1.0457,4.5933 -1.0457,9.5862 -1.0457,29.0164 0.1276,16.8091 0.1276,18.379 1.4395,22.978 -2.23,-0.2607 -4.9872,-0.5214 -8.9259,-0.5214 -3.1539,0 -5.2536,0.1275 -7.8747,0.5214 0.9181,-2.1026 1.4452,-3.1539 1.7058,-10.5043 0.2664,-7.223 0.7906,-42.6774 -0.3995,-51.0763 -0.6517,-5.1261 -1.9694,-6.3049 -3.4089,-7.6168 10.6375,-0.5271 14.0464,-2.2358 17.3334,-3.936 v 13.9132 c 1.5727,-4.0748 4.854,-13.1339 17.9879,-13.1339 16.4153,0 16.5428,11.9494 16.676,19.8241 v 39.5321"
         id="path1578"
         style="stroke-width:0.999999" />
    </g>
    <path
       ns2:knockout="Off"
       fill="#a80030"
       d="m 1956.6936,1268.2637 -10.8755,10.8693 -10.8701,-10.8693 10.8701,-10.8699 10.8759,10.8699"
       id="path1580"
       style="stroke-width:0.534126"
       sodipodi:nodetypes="ccccc" />
  </g>
  <g
     inkscape:groupmode="layer"
     id="g1783"
     inkscape:label="debian logo org plain"
     style="display:none"
     sodipodi:insensitive="true">
    <path
       ns2:knockout="Off"
       fill="#a80030"
       d="m 1939.8136,1087.2283 c -4.2335,0.057 0.7962,2.1762 6.3247,3.0291 1.533,-1.1958 2.9101,-2.3972 4.1456,-3.5703 -3.4372,0.8416 -6.9396,0.8614 -10.4703,0.5412"
       id="path1741"
       style="fill:#9d0006;stroke-width:0.534126" />
    <path
       ns2:knockout="Off"
       fill="#a80030"
       d="m 1962.5309,1081.5638 c 2.5304,-3.4825 4.3666,-7.2909 5.0155,-11.2297 -0.5696,2.8053 -2.0856,5.2281 -3.5251,7.7897 -7.9143,4.9844 -0.748,-2.9583 -0.01,-5.9818 -8.5066,10.7197 -1.1731,6.4267 -1.4848,9.4218"
       id="path1743"
       style="fill:#9d0006;stroke-width:0.534126" />
    <path
       ns2:knockout="Off"
       fill="#a80030"
       d="m 1970.9269,1059.7335 c 0.5157,-7.6253 -1.499,-5.211 -2.1762,-2.3066 0.7877,0.4137 1.414,5.3783 2.1762,2.3066"
       id="path1745"
       style="fill:#9d0006;stroke-width:0.534126" />
    <path
       ns2:knockout="Off"
       fill="#a80030"
       d="m 1923.7525,955.51519 c 2.2613,0.40238 4.8852,0.71408 4.5084,1.2553 2.4822,-0.54689 3.0404,-1.03994 -4.5084,-1.2553"
       id="path1747"
       style="fill:#9d0006;stroke-width:0.534126" />
    <path
       ns2:knockout="Off"
       fill="#a80030"
       d="m 1928.2637,956.77049 -1.5897,0.33154 1.482,-0.13602 0.1077,-0.19552"
       id="path1749"
       style="fill:#9d0006;stroke-width:0.534126" />
    <path
       ns2:knockout="Off"
       fill="#a80030"
       d="m 1998.7334,1062.6238 c 0.255,6.8461 -1.9977,10.1728 -4.0351,16.0554 l -3.6639,1.822 c -2.9951,5.8203 0.2975,3.6951 -1.8475,8.3224 -4.6812,4.157 -14.1852,13.0036 -17.2285,13.814 -2.2244,-0.048 1.5046,-2.6239 1.992,-3.6299 -6.2595,4.2958 -5.024,6.4494 -14.5989,9.0648 l -0.2777,-0.6262 c -23.6042,11.1078 -56.395,-10.901 -55.9643,-40.9262 -0.2494,1.9042 -0.7169,1.4281 -1.2383,2.1932 -1.2185,-15.4461 7.1351,-30.9603 21.2239,-37.3048 13.78,-6.8178 29.9346,-4.0238 39.7985,5.1827 -5.418,-7.1011 -16.2113,-14.6301 -28.9938,-13.933 -12.5275,0.204 -24.2503,8.1637 -28.1607,16.8091 -6.4153,4.038 -7.1634,15.5737 -9.9574,17.6876 -3.7659,27.6563 7.0756,39.6001 25.4177,53.6577 2.879,1.9439 0.8105,2.2414 1.1958,3.7206 -6.0923,-2.8506 -11.6689,-7.1578 -16.2594,-12.4312 2.4369,3.5619 5.0637,7.0246 8.4613,9.7449 -5.7495,-1.941 -13.4258,-13.9216 -15.6616,-14.409 9.9036,17.7329 40.1753,31.0991 56.0352,24.4656 -7.3391,0.272 -16.6589,0.1502 -24.8992,-2.896 -3.4712,-1.7823 -8.1722,-5.4689 -7.3306,-6.1575 21.6377,8.0787 43.9837,6.115 62.7027,-8.8891 4.7662,-3.7121 9.9688,-10.0226 11.4734,-10.1076 -2.264,3.4061 0.3882,1.6379 -1.3516,4.6444 4.7378,-7.6537 -2.0657,-3.117 4.9022,-13.2161 l 2.5729,3.542 c -0.9634,-6.3587 7.8917,-14.0718 6.9906,-24.1199 2.0317,-3.0717 2.2641,3.3097 0.1105,10.3768 2.9895,-7.8407 0.7906,-9.1017 1.5557,-15.5737 0.8246,2.1763 1.9212,4.4857 2.4794,6.7837 -1.9495,-7.5799 1.9921,-12.7598 2.9725,-17.1661 -0.9691,-0.4251 -3.0065,3.3493 -3.4769,-5.5993 0.071,-3.8877 1.0853,-2.0374 1.4735,-2.9951 -0.7594,-0.4393 -2.7628,-3.4202 -3.9784,-9.1357 0.8756,-1.346 2.3576,3.4825 3.559,3.6781 -0.7735,-4.5423 -2.1025,-8.0079 -2.1592,-11.4961 -3.5137,-7.3391 -1.244,0.9804 -4.0889,-3.151 -3.7404,-11.6576 3.1,-2.7061 3.5647,-7.9994 5.6616,8.2034 8.8891,20.9265 10.3768,26.1942 -1.1335,-6.4239 -2.9612,-12.6494 -5.1969,-18.6708 1.7257,0.7282 -2.7742,-13.2133 2.2414,-3.9813 -5.3528,-19.67961 -22.8901,-38.06992 -39.0277,-46.6955 1.9694,1.80502 4.4601,4.07193 3.5704,4.42897 -8.0305,-4.77468 -6.6194,-5.15155 -7.7698,-7.1691 -6.5316,-2.66079 -6.968,0.21819 -11.2893,0.006 -12.3263,-6.54004 -14.7009,-5.8458 -26.0439,-9.93757 l 0.5157,2.41426 c -8.1637,-2.72029 -9.5125,1.02578 -18.3336,0.006 -0.5356,-0.41655 2.828,-1.51883 5.5993,-1.91837 -7.8946,1.04277 -7.5262,-1.5585 -15.2507,0.28619 1.9014,-1.33464 3.9189,-2.22157 5.9478,-3.35502 -6.4352,0.39104 -15.3696,3.74607 -12.6125,0.6914 -10.4986,4.68684 -29.1468,11.26371 -39.6114,21.07659 l -0.3287,-2.1989 c -4.7945,5.75512 -20.9094,17.18884 -22.193,24.64981 l -1.2837,0.29753 c -2.4907,4.22501 -4.1088,9.01101 -6.0866,13.35501 -3.2615,5.5624 -4.7832,2.1422 -4.3185,3.0149 -6.4182,13.0121 -9.6117,23.9443 -12.3632,32.9156 1.9609,2.9328 0.048,17.6592 0.7878,29.4443 -3.219,58.2142 40.8554,114.7311 89.0329,127.7772 7.0614,2.5304 17.56,2.4397 26.4916,2.6891 -10.5354,-3.015 -11.8956,-1.5954 -22.1647,-5.1742 -7.4043,-3.4911 -9.0251,-7.4723 -14.273,-12.026 l 2.0771,3.6696 c -10.2861,-3.6413 -5.9819,-4.5055 -14.3524,-7.155 l 2.2187,-2.8931 c -3.3352,-0.255 -8.8324,-5.6163 -10.3343,-8.5944 l -3.6497,0.1445 c -4.3808,-5.4009 -6.7185,-9.3028 -6.5457,-12.3263 l -1.1788,2.1025 c -1.3346,-2.2924 -16.1262,-20.2831 -8.4527,-16.095 -1.4253,-1.2978 -3.321,-2.1168 -5.3754,-5.8543 l 1.5613,-1.7824 c -3.6865,-4.752 -6.795,-10.8415 -6.557,-12.8704 1.9694,2.658 3.3352,3.1567 4.6897,3.6129 -9.3255,-23.1338 -9.8498,-1.2723 -16.9084,-23.5475 l 1.4905,-0.119 c -1.1419,-1.7314 -1.8418,-3.5987 -2.7599,-5.4378 l 0.6517,-6.4748 c -6.71,-7.7528 -1.8759,-32.9977 -0.9039,-46.84 0.6659,-5.6276 5.6021,-11.6208 9.351,-21.0199 l -2.2839,-0.3911 c 4.3694,-7.6168 24.9416,-30.60046 34.474,-29.42167 4.616,-5.79762 -0.9181,-0.0227 -1.822,-1.47916 10.1415,-10.49295 13.3294,-7.41279 20.1726,-9.30283 7.376,-4.37797 -6.3332,1.71152 -2.8364,-1.66901 12.7598,-3.25585 9.0393,-7.40713 25.6812,-9.05914 1.7569,0.99744 -4.0719,1.5415 -5.5341,2.83648 10.6261,-5.20256 33.6324,-4.01527 48.5827,2.88464 17.3334,8.10703 36.8203,32.05979 37.591,54.59569 l 0.8756,0.2352 c -0.442,8.96 1.3715,19.3226 -1.7767,28.8379 l 2.1281,-4.5083"
       id="path1751"
       style="fill:#9d0006;stroke-width:0.534126" />
    <path
       ns2:knockout="Off"
       fill="#a80030"
       d="m 1893.5941,1093.0372 -0.5979,2.9669 c 2.7855,3.7829 4.9957,7.8803 8.5463,10.8273 -2.5559,-4.9844 -4.4516,-7.0444 -7.9484,-13.7942"
       id="path1753"
       style="fill:#9d0006;stroke-width:0.534126" />
    <path
       ns2:knockout="Off"
       fill="#a80030"
       d="m 1900.171,1092.7822 c -1.4735,-1.6322 -2.3406,-3.593 -3.321,-5.5426 0.9351,3.4316 2.8506,6.3814 4.6273,9.385 l -1.3063,-3.8424"
       id="path1755"
       style="fill:#9d0006;stroke-width:0.534126" />
    <path
       ns2:knockout="Off"
       fill="#a80030"
       d="m 2016.5881,1067.4778 -0.6205,1.5642 c -1.1391,8.0985 -3.6072,16.1121 -7.3816,23.5447 4.1711,-7.8407 6.8602,-16.4181 8.0021,-25.1089"
       id="path1757"
       style="fill:#9d0006;stroke-width:0.534126" />
    <path
       ns2:knockout="Off"
       fill="#a80030"
       d="m 1924.5941,953.48347 c 2.8592,-1.04561 7.0331,-0.57523 10.0764,-1.2638 -3.9614,0.33154 -7.903,0.52989 -11.7936,1.02578 l 1.7172,0.23802"
       id="path1759"
       style="fill:#9d0006;stroke-width:0.534126" />
    <path
       ns2:knockout="Off"
       fill="#a80030"
       d="m 1824.0822,1006.9315 c 0.6602,6.1037 -4.5905,8.4754 1.1618,4.446 3.0887,-6.9537 -1.2015,-1.9184 -1.1618,-4.446"
       id="path1761"
       style="fill:#9d0006;stroke-width:0.534126" />
    <path
       ns2:knockout="Off"
       fill="#a80030"
       d="m 1817.3155,1035.1942 c 1.329,-4.0719 1.567,-6.5145 2.0742,-8.8749 -3.6639,4.6868 -1.6888,5.6871 -2.0742,8.8749"
       id="path1763"
       style="fill:#9d0006;stroke-width:0.534126" />
    <path
       ns2:knockout="Off"
       d="m 1805.1252,1307.8581 c -0.1275,0.1331 -0.1275,21.2692 -0.3911,26.7863 -0.2607,4.4602 -0.6574,14.0464 -10.1104,14.0464 -9.7165,0 -12.0798,-11.1617 -12.8675,-16.0157 -0.9181,-5.384 -0.9181,-9.8526 -0.9181,-11.8163 0,-6.3049 0.3939,-23.9046 15.2308,-23.9046 4.4658,0 6.9594,1.3177 8.9288,2.3633 z m -38.0756,15.4971 c 0,37.0243 19.6966,37.0243 22.5841,37.0243 8.141,0 13.3946,-4.4658 15.6247,-12.2101 l 0.2635,11.6831 c 2.4964,-0.1332 4.99,-0.3939 9.0591,-0.3939 1.4452,0 2.624,0 3.6781,0.1332 1.0513,0 2.0997,0.1275 3.2813,0.2607 -2.0997,-4.1995 -3.6752,-13.6525 -3.6752,-34.1425 0,-19.9573 0,-53.7003 1.7059,-63.9439 -4.7237,2.2358 -8.7985,3.6809 -17.7273,4.4658 3.5449,3.8085 3.5449,5.7778 3.5449,23.1055 -2.4908,-0.7849 -5.6446,-1.7058 -11.0285,-1.7058 -23.5022,0 -27.3106,20.4872 -27.3106,35.7236"
       id="path1765"
       style="fill:#ebdbb2;stroke-width:0.999999" />
    <path
       ns2:knockout="Off"
       d="m 1838.2589,1316.6508 c 0.1332,-10.8981 2.3661,-20.6147 11.6859,-20.6147 10.2436,0 11.0257,11.2892 10.765,20.6147 z m 35.4488,1.3177 c 0,-15.364 -3.0178,-30.4673 -22.4509,-30.4673 -26.7836,0 -26.7836,29.6824 -26.7836,35.9787 0,26.6532 11.9467,37.1575 32.0371,37.1575 8.9232,0 13.2615,-1.3063 15.6247,-1.9694 -0.1303,-4.7265 0.5242,-7.7472 1.3177,-11.8163 -2.7628,1.7116 -6.3077,3.9416 -14.1852,3.9416 -20.4844,0 -20.7479,-18.651 -20.7479,-25.0833 h 34.9331 l 0.255,-7.7415"
       id="path1767"
       style="fill:#ebdbb2;stroke-width:0.999999" />
    <path
       ns2:knockout="Off"
       d="m 1916.4248,1323.6131 c 0,12.2101 -2.2301,28.6254 -17.4609,28.6254 -2.1026,0 -4.7265,-0.3996 -6.4324,-0.7906 -0.2635,-4.7265 -0.2635,-12.8675 -0.2635,-22.3206 0,-11.2948 1.1788,-17.1945 2.1026,-20.0904 2.7543,-9.3199 8.9259,-9.4474 10.1047,-9.4474 9.9801,0 11.9495,13.7857 11.9495,24.0236 z m -37.6817,14.3127 c 0,9.7194 0,15.2308 -1.5755,19.4302 5.3839,2.1026 12.0769,3.2814 20.0904,3.2814 5.1204,0 19.9573,0 27.9652,-16.4096 3.8084,-7.6168 5.1204,-17.8604 5.1204,-25.6076 0,-4.7265 -0.5271,-15.0976 -4.3327,-21.666 -3.6723,-6.166 -9.5833,-9.3198 -15.8825,-9.3198 -12.6068,0 -16.2821,10.5043 -18.2486,15.8882 0,-6.6959 0.1275,-30.0677 1.176,-42.0172 -8.5321,3.9416 -13.7885,4.5934 -19.4303,5.1204 5.1204,2.0969 5.1204,10.7707 5.1204,39.0022 v 32.2978"
       id="path1769"
       style="fill:#ebdbb2;stroke-width:0.999999" />
    <path
       ns2:knockout="Off"
       d="m 1955.5856,1359.8525 c -2.6296,-0.3939 -4.4715,-0.6574 -8.2799,-0.6574 -4.1938,0 -7.0897,0.2663 -10.1047,0.6574 1.312,-2.4965 1.8362,-3.6809 2.23,-12.2102 0.5271,-11.6887 0.6575,-42.9409 -0.2606,-49.5064 -0.6574,-4.9929 -1.8362,-5.7778 -3.6753,-7.0898 10.765,-1.0513 13.7857,-1.8362 18.7729,-4.1995 -1.0456,5.7722 -1.1845,8.6681 -1.1845,17.4609 -0.2579,45.307 -0.391,50.1611 2.5021,55.545"
       id="path1771"
       style="fill:#ebdbb2;stroke-width:0.999999" />
    <path
       ns2:knockout="Off"
       d="m 1997.6311,1322.6893 c -0.2607,8.2742 -0.3939,14.052 -2.6296,18.6453 -2.7571,5.911 -7.3505,7.6169 -10.765,7.6169 -7.886,0 -9.5862,-6.5627 -9.5862,-12.9951 0,-12.3405 11.0314,-13.2671 16.0157,-13.2671 z m -36.1119,16.1546 c 0,8.2742 2.4965,16.5428 9.8526,20.0905 3.2814,1.4451 6.5627,1.4451 7.6168,1.4451 12.0826,0 16.1489,-8.9316 18.6453,-14.4459 -0.1331,5.7778 0,9.3199 0.3939,13.9189 2.3633,-0.1332 4.7265,-0.3939 8.6681,-0.3939 2.2301,0 4.3326,0.2607 6.5627,0.3939 -1.4451,-2.2301 -2.2301,-3.5477 -2.6296,-8.6681 -0.2607,-4.9872 -0.2607,-9.9773 -0.2607,-16.9367 l 0.1332,-26.7863 c 0,-9.9829 -2.6296,-19.8298 -22.3262,-19.8298 -12.9951,0 -20.6091,3.9416 -24.4175,5.9109 1.5784,2.8903 2.8903,5.3783 4.0691,11.0314 5.1261,-4.4658 11.822,-6.8291 18.6454,-6.8291 10.9038,0 10.9038,7.223 10.9038,17.4609 -2.4965,-0.1275 -4.599,-0.3882 -8.1467,-0.3882 -16.6816,0 -27.7102,6.4267 -27.7102,24.0264"
       id="path1773"
       style="fill:#ebdbb2;stroke-width:0.999999" />
    <path
       ns2:knockout="Off"
       d="m 2073.2609,1346.8546 c 0.1332,4.4658 0.1332,9.1923 1.9693,13.0007 -2.8931,-0.2607 -4.5989,-0.6574 -9.9772,-0.6574 -3.1538,0 -4.8597,0.2664 -7.3561,0.6574 0.5214,-1.7059 0.7906,-2.3633 1.0513,-4.599 0.3938,-3.015 0.6574,-13.1282 0.6574,-16.6759 v -14.1796 c 0,-6.1716 0,-15.1032 -0.3996,-18.2514 -0.2607,-2.2301 -0.9124,-8.2686 -8.5349,-8.2686 -7.4836,0 -9.9772,5.5115 -10.8981,9.9773 -1.0457,4.5933 -1.0457,9.5862 -1.0457,29.0164 0.1276,16.8091 0.1276,18.379 1.4395,22.978 -2.23,-0.2607 -4.9872,-0.5214 -8.9259,-0.5214 -3.1539,0 -5.2536,0.1275 -7.8747,0.5214 0.9181,-2.1026 1.4452,-3.1539 1.7058,-10.5043 0.2664,-7.223 0.7906,-42.6774 -0.3995,-51.0763 -0.6517,-5.1261 -1.9694,-6.3049 -3.4089,-7.6168 10.6375,-0.5271 14.0464,-2.2358 17.3334,-3.936 v 13.9132 c 1.5727,-4.0748 4.854,-13.1339 17.9879,-13.1339 16.4153,0 16.5428,11.9494 16.676,19.8241 v 39.5321"
       id="path1775"
       style="fill:#ebdbb2;stroke-width:0.999999" />
    <path
       ns2:knockout="Off"
       fill="#a80030"
       d="m 1956.6936,1268.2637 -10.8755,10.8698 -10.8699,-10.8698 10.8699,-10.8699 10.8755,10.8699"
       id="path1777"
       style="fill:#9d0006;stroke-width:0.534126" />
  </g>
  <g
     inkscape:groupmode="layer"
     id="g2412"
     inkscape:label="debian logo gruvbox with effects"
     style="display:none"
     sodipodi:insensitive="true">
    <g
       id="g4842"
       transform="translate(322.49915)"
       style="filter:url(#filter4854)">
      <path
         id="path4790"
         style="fill:#0d1011;stroke-width:0.534126"
         d="m 1627.5957,1084.7383 c -3.337,0.8438 -6.8147,0.7428 -10.2171,0.497 -1.2746,-0.024 -2.8709,0.3584 -3.2847,1.7323 -0.3896,1.0298 0.2445,2.2169 1.166,2.7545 2.1282,1.2638 4.6078,1.7687 7.0033,2.2793 0.7474,0.1019 1.552,0.3608 2.2679,0.315 3.675,-2.8322 6.9355,-6.1442 10.3634,-9.2598 -2.4329,0.5606 -4.8659,1.1211 -7.2988,1.6817 z" />
      <path
         id="path4792"
         style="fill:#0d1011;stroke-width:0.534126"
         d="m 1644.3672,1068.5723 c 0.1159,-0.7123 0.2318,-1.4245 0.3476,-2.1368 -1.5938,1.6354 -3.3077,3.1639 -4.8237,4.8684 -1.5681,2.0849 -3.3113,4.1571 -4.1138,6.6805 -0.4419,1.4484 0.1903,3.1694 1.6309,3.7734 0.4757,0.2001 1.0908,0.2342 0.8453,0.9083 -0.238,0.8452 0.1935,1.0407 0.9731,0.8984 0.7005,0 1.401,0 2.1015,0 2.8398,-3.8103 5.1646,-8.1319 5.9473,-12.8653 -0.3724,-1.4896 -0.7448,-2.9791 -1.1172,-4.4687 -0.597,0.7806 -1.194,1.5612 -1.791,2.3418 z" />
      <path
         id="path4794"
         style="fill:#0d1011;stroke-width:0.534126"
         d="m 1647.6992,1052.6621 c -1.7346,0.3031 -2.4919,2.1671 -2.9648,3.6621 -0.1728,0.6523 -0.3453,1.3047 -0.5176,1.957 0.5012,0.3354 1.0921,0.6103 1.1552,1.2858 0.4139,1.2575 0.9052,2.7762 2.3428,3.1596 1.0479,0.1727 2.1076,-0.4116 2.5272,-1.3883 0.6874,-1.4243 0.4861,-3.058 0.5077,-4.5918 -0.029,-1.481 -0.3181,-3.3509 -1.8734,-3.9736 -0.3579,-0.1225 -0.8011,-0.2092 -1.1771,-0.1108 z" />
      <path
         id="path4796"
         style="fill:#0d1011;stroke-width:0.534126"
         d="m 1596.8984,955.04102 c 1.4641,0.80989 2.8962,1.70912 4.3799,2.46392 0.6224,0.10617 1.2821,0.21487 1.8623,0.31537 -0.3685,0.65755 -0.737,1.31511 -1.1054,1.97266 2.0686,-0.55524 4.1998,-0.90567 6.2265,-1.59961 0.8395,-0.36391 1.5463,-1.20427 1.4254,-2.15681 0,-0.62119 -0.3807,-1.25431 -0.9014,-1.59579 -1.4099,-0.82613 -3.1393,-0.6711 -4.7154,-0.82943 -1.1506,0.0248 -2.3502,-0.30695 -3.4316,0.2151 -1.2467,0.40486 -2.4935,0.80972 -3.7403,1.21459 z" />
      <path
         id="path4798"
         style="fill:#0d1011;stroke-width:0.534126"
         d="m 1605.6172,954.8125 c -0.8571,0.17681 -1.7515,0.2622 -2.4318,0.87157 -1.0879,0.69711 -2.1757,1.39421 -3.2635,2.09132 1.5994,0.42427 3.1899,0.94523 4.7949,1.30931 0.8158,-0.0741 1.6316,-0.14827 2.4473,-0.22337 0.8943,-1.645 1.7904,-3.28904 2.6855,-4.9336 -1.4108,0.29493 -2.8216,0.58985 -4.2324,0.88477 z" />
      <path
         id="path4800"
         style="fill:#0d1011;stroke-width:0.534126"
         d="m 1581.7285,952.89258 c -11.0436,4.82049 -22.4597,9.03742 -32.6172,15.62899 -1.634,1.06132 -3.2285,2.18597 -4.748,3.40616 -0.1445,-0.97005 -0.2891,-1.9401 -0.4336,-2.91015 -2.1082,2.42584 -4.1599,4.91361 -6.581,7.04142 -5.2693,4.89811 -10.9349,9.44992 -15.4428,15.09739 -1.2833,1.65245 -2.4599,3.43185 -3.1422,5.42369 -0.6248,0.0691 -1.1636,0.25438 -1.3493,0.91463 -2.5703,4.32059 -4.1476,9.12499 -6.2701,13.65869 -0.4326,0.6895 -0.8844,1.3929 -1.5213,1.913 -1.5345,-1 -3.069,-2 -4.6035,-3 0.5131,1.5697 1.0261,3.1393 1.5391,4.709 -4.6219,9.3967 -8.1361,19.2904 -11.1543,29.3044 -0.4076,1.3302 -0.814,2.6607 -1.2227,3.9905 1.0724,1.5001 0.9471,3.4288 1.0541,5.1814 0.1013,7.4568 -0.5136,14.9122 -0.1876,22.369 0.1712,2.5351 -0.1424,5.072 -0.079,7.6117 -0.021,23.4083 7.3146,46.5006 19.4139,66.4254 10.2651,16.8832 23.9668,31.7707 40.353,42.8673 9.4988,6.4129 19.9546,11.4848 31.027,14.5085 5.651,1.8818 11.6639,2.2068 17.5705,2.464 3.1222,0.1008 6.2537,0.1987 9.373,0.2262 1.7468,-0.3988 3.4936,-0.7976 5.2404,-1.1965 -1.6565,-0.9055 -3.2625,-1.9328 -4.9507,-2.7621 -4.0771,-1.2117 -8.2717,-1.9352 -12.4689,-2.5798 -3.2801,-0.5754 -6.5256,-1.4332 -9.6279,-2.6391 -3.3247,-1.5489 -6.1338,-3.9851 -8.5573,-6.7054 -1.6397,-1.7274 -3.2192,-3.5586 -5.1256,-4.9935 -1.5762,-0.9797 -3.1524,-1.9595 -4.7286,-2.9392 0.515,1.4538 1.0299,2.9076 1.5449,4.3613 -2.0552,-1.0218 -3.5951,-2.8456 -5.7441,-3.7129 -0.3725,-0.2597 -1.5025,-0.3172 -0.7761,-0.8598 0.7888,-1.0295 1.5786,-2.0582 2.3679,-3.0874 -1.4761,-0.2517 -3.0162,-0.2198 -4.4482,-0.6723 -2.7235,-1.2446 -4.9185,-3.4152 -6.794,-5.7066 -0.6646,-0.8297 -1.1417,-1.781 -1.6602,-2.7032 -1.289,0.052 -2.5781,0.1017 -3.8672,0.1524 -2.0327,-2.6412 -4.2043,-5.3175 -5.2539,-8.5284 -0.437,-1.6096 -0.1253,-3.301 -0.204,-4.9469 0.01,-1.5109 0.018,-3.0217 0.026,-4.5325 -1.1432,2.0338 -2.2865,4.0677 -3.4297,6.1015 -2.478,-3.3465 -5.0305,-6.6475 -7.2402,-10.1816 1.1406,0.2422 2.2812,0.4844 3.4218,0.7266 -1.1091,-1.5139 -2.1178,-3.1198 -3.2894,-4.5764 -1.4747,-1.1878 -3.0499,-2.3275 -4.0484,-3.9783 0.5579,-0.6361 1.1158,-1.2722 1.6738,-1.9082 -0.7434,-0.9931 -1.6518,-2.1587 -2.2754,-3.0567 -0.9816,-1.4099 -1.8989,-2.8644 -2.7246,-4.3711 1.3717,0.4733 2.7435,0.9466 4.1152,1.42 -2.0408,-4.695 -3.6823,-9.6522 -6.7012,-13.8418 -1.3253,-1.8479 -3.2867,-3.4035 -5.6345,-3.5519 -0.8424,-0.047 -1.7849,-0.1555 -2.2795,-0.9423 -1.5006,-2.0098 -2.294,-4.4343 -3.1524,-6.7637 0.7448,-0.06 1.4896,-0.1197 2.2344,-0.1796 -1.3367,-2.1252 -2.7429,-4.2198 -3.6994,-6.5537 -0.3011,-0.5594 -0.5813,-1.1199 -0.379,-1.7658 0.1987,-1.9801 0.3971,-3.9602 0.596,-5.9403 -2.0469,-2.1616 -2.7662,-5.1606 -3.1571,-8.0243 -0.8252,-6.5658 -0.2571,-13.2041 0.3215,-19.7662 0.6017,-6.2291 1.3827,-12.442 1.9157,-18.6763 0.7167,-3.6893 2.7687,-6.9188 4.4591,-10.2192 2.0901,-3.8206 3.9253,-7.7732 5.5262,-11.8228 0.2959,-0.5915 -0.9869,-0.3124 -1.3622,-0.5338 -0.5652,-0.1203 0.5014,-0.9176 0.6538,-1.3181 4.7037,-6.158 10.0208,-11.8576 15.8574,-16.9557 3.2876,-2.7752 6.7237,-5.5348 10.7519,-7.1527 1.422,-0.6057 2.9869,-0.7487 4.5063,-0.4997 0.9485,-1.3254 2.1896,-2.49973 2.8106,-4.02535 0.3581,-0.62575 -0.1807,-1.37323 -0.021,-1.95855 2.425,-2.03342 5.3222,-3.66517 8.5296,-3.93413 2.3721,-0.29455 4.8284,-0.37766 7.0873,-1.19456 1.2264,-0.82352 2.866,-1.45465 3.2882,-3.01775 0,-0.56135 -0.086,-0.91023 0.6384,-1.06323 3.0941,-1.53462 5.7983,-3.86427 9.179,-4.79572 0.7735,-0.32358 -0.3743,0.7166 -0.4853,1.01926 -0.2572,0.42218 -1.186,1.2618 -0.1298,0.86763 1.6258,-0.32766 3.2939,-0.5233 4.893,-0.93426 4.7508,-2.15801 10.0389,-2.72374 15.2005,-2.91829 9.2444,-0.2021 18.5589,1.12893 27.2984,4.18156 7.1757,2.47179 13.4737,6.96224 18.9521,12.13775 6.9479,6.62124 12.7472,14.49204 16.7862,23.20994 0.5018,1.1005 1.0758,2.4333 1.5388,3.6543 2.0936,5.378 3.3316,11.103 3.4243,16.8825 0.2141,0.3842 1.0832,0.2344 0.7505,1.0198 -0.078,6.1036 0.5022,12.2193 -0.067,18.3125 -0.066,0.6399 -0.171,1.5948 -0.2888,2.3517 -0.258,1.8667 -0.7502,3.7012 -1.2618,5.5021 0.067,1.6217 0.134,3.2433 0.201,4.865 0.6673,-0.8166 0.6039,-0.4336 0.2649,0.337 -0.442,0.9348 -0.075,1.999 -0.1279,2.9965 0.064,0.7298 -1.2169,-0.7165 -1.1733,0.3526 -0.3214,0.6789 -0.4782,1.4991 -0.8697,2.1025 -1.153,0.6196 -2.4284,1.1172 -3.5053,1.8129 -1.0179,2.074 -2.3042,4.3938 -1.5731,6.7695 0.1022,0.6757 -0.15,1.4702 -0.616,1.9541 -2.5255,2.2574 -5.048,4.546 -7.5675,6.7084 -0.8011,0.6971 -1.6084,1.3873 -2.4298,2.0602 0.3848,-0.8047 0.7695,-1.6094 1.1543,-2.4141 -2.0442,1.1998 -4.1771,2.2604 -6.1634,3.5508 -2.2958,1.5256 -4.1107,3.6257 -6.2428,5.3477 -1.6573,1.2409 -3.6238,1.9679 -5.5821,2.582 -0.1639,-0.7809 -0.545,-0.996 -1.2028,-0.4907 -3.855,1.8864 -8.0781,3.0503 -12.3789,3.1747 -9.779,0.3426 -19.351,-3.7074 -26.7357,-9.9651 -8.0446,-6.7884 -13.7101,-16.569 -14.8168,-27.1048 -0.2061,-1.6104 -0.2015,-3.2456 -0.2584,-4.8575 -0.3826,-1.2499 -0.8749,-2.4873 -1.1902,-3.7449 0.054,-0.7382 0.1528,-1.4714 0.2488,-2.205 -0.2673,0.3218 -0.6262,1.742 -0.7811,0.7144 -0.3008,-0.9152 -0.6016,-1.8305 -0.9025,-2.7457 0.668,0.055 1.336,0.1107 2.004,0.166 1.922,-9.8938 8.0292,-19.0688 16.8714,-24.0569 4.5065,-2.5066 9.4649,-4.3018 14.6262,-4.7562 9.1733,-0.9092 18.814,1.9566 25.602,8.2897 1.5599,0.6959 3.1198,1.3919 4.6796,2.0879 -0.6198,-1.6245 -1.166,-3.2901 -1.8312,-4.8893 -5.2636,-6.7171 -12.7886,-11.6932 -21.0902,-13.7298 -4.7419,-1.1682 -9.7167,-1.1639 -14.5226,-0.4135 -8.1217,1.424 -15.8315,5.5747 -21.2258,11.8483 -1.3309,1.5668 -2.4997,3.2811 -3.3966,5.1335 -3.5882,2.5658 -5.4126,6.7857 -6.8537,10.8093 -0.8218,2.1262 -1.3352,4.4035 -2.5194,6.3693 -0.348,0.4964 -1.0953,0.7263 -0.9797,1.4476 -1.2309,8.9673 -1.2539,18.3418 1.7935,26.9687 1.4454,4.1611 3.601,8.0593 6.239,11.5809 0.6457,-0.8467 0.6503,0.1933 0.8188,0.751 0.2262,0.9277 1.0915,1.5357 1.6425,2.2878 0.3816,0.4444 0.7669,0.8853 1.1696,1.3108 -0.7305,-0.3835 -1.461,-0.7669 -2.1914,-1.1504 -0.025,0.098 -0.9234,-0.5616 -1.3365,-0.702 -0.6541,-0.3435 -1.3082,-0.687 -1.9623,-1.0304 0.5028,-0.3239 1.0267,-0.708 0.2134,-0.9499 -1.8726,-0.7728 -3.8216,-1.3752 -5.7232,-2.0833 2.1159,3.5982 4.02,7.362 6.772,10.5356 5.8829,6.9573 13.5789,12.2165 21.8206,15.9995 7.2025,3.2358 15.0193,5.4682 22.969,5.3615 3.3779,-0.091 6.8285,-0.5832 9.9156,-2.0079 1.6606,-0.9786 3.3212,-1.9571 4.9818,-2.9356 -2.1453,-0.2341 -4.2827,-0.6321 -6.433,-0.7606 -6.6323,0.2274 -13.503,0.04 -20.0202,-1.63 -0.8501,-0.2097 0.046,-0.016 0.4988,0.065 11.168,2.1378 22.9402,1.4428 33.6321,-2.5223 8.9805,-3.3062 17.1343,-8.7282 23.8434,-15.5347 0.3798,-0.3081 0.9821,-1.098 1.2294,-1.1194 -0.072,0.9895 -0.1449,1.979 -0.2173,2.9686 1.2746,-0.9105 2.6331,-1.7419 3.8563,-2.7009 1.1913,-1.9926 2.5517,-4.2998 1.8917,-6.7073 -0.3991,-1.213 0.5023,-2.3395 1.0057,-3.3753 0.2702,-0.9985 0.6346,-0.1102 0.9752,0.3314 1.5327,2.1094 3.0648,4.2194 4.5972,6.329 -0.2635,-2.7832 -0.6259,-5.5608 -0.8281,-8.3476 0.096,-1.8848 0.9023,-3.6346 1.6895,-5.3184 -1.0649,-0.073 -0.1783,-0.643 0.1942,-1.082 0.925,-0.7718 1.2513,-1.9637 1.8136,-2.9863 -0.021,0.895 0.1968,1.0623 0.7273,0.2794 0.8732,-0.969 1.8383,-1.881 2.6552,-2.8849 0.8634,-2.2787 1.5461,-4.6535 1.6878,-7.0977 0.4837,0.5749 0.9674,1.1498 1.4512,1.7246 0.2889,-1.525 0.6941,-3.0517 0.9106,-4.5758 -0.9235,-3.3817 -0.3436,-6.9707 0.9078,-10.1872 0.9216,-2.3867 1.8912,-4.764 2.4278,-7.2757 0.4617,-0.7549 -0.6822,-0.6172 -1.1144,-0.8752 -0.7029,-0.2743 -1.4801,-0.436 -2.2119,-0.1681 -0.2929,-1.5049 -0.4835,-3.0527 -0.3906,-4.5859 1.1399,-0.4682 1.4156,-1.7733 2.0019,-2.7344 -0.8176,-0.5861 -1.7522,-1.0887 -2.1744,-2.0576 -0.7072,-0.8559 0.3178,-0.3661 0.8509,-0.243 0.8533,0.4346 0.9607,0.053 0.6865,-0.7459 -0.5305,-3.4172 -1.4018,-6.7641 -2.1377,-10.1389 -0.2846,-1.2269 -0.3291,-2.5044 -0.4415,-3.7402 -0.8048,-1.4665 -1.3534,-3.2289 -2.7621,-4.2399 -0.5185,-0.2959 -1.1923,-0.4713 -1.76,-0.2505 -0.2057,-0.7483 -0.4582,-1.5747 -0.5195,-2.3008 0.8189,0.1424 1.6959,0.157 2.4668,-0.1914 2.6533,4.6271 4.5414,9.7804 6.1348,14.7695 0.905,2.7977 1.6206,5.6701 2.4908,8.4659 0.9536,1.2334 1.9072,2.4668 2.8607,3.7001 0.3046,-1.5921 0.7121,-3.1831 0.9527,-4.776 -1.0821,-6.0769 -2.7806,-12.0339 -4.8843,-17.8333 0.2182,-0.349 0.057,-1.2528 0.2218,-1.3304 0.5875,0.6081 1.1751,1.2163 1.7626,1.8245 -0.062,-1.8612 0.013,-3.7423 -0.1347,-5.5908 -2.8492,-10.1829 -8.4712,-19.41058 -15.2834,-27.42292 -6.9588,-8.11046 -15.2361,-15.179 -24.6503,-20.2851 -0.9518,-0.24739 -1.9036,-0.49479 -2.8555,-0.74218 -0.268,-0.64057 -0.5431,-1.35801 -0.9778,-1.87063 -0.967,-0.38689 -1.936,-0.77436 -2.9421,-1.04929 0.4929,0.76236 0.9857,1.52473 1.4785,2.2871 -0.9199,-0.23893 -1.8398,-0.47786 -2.7597,-0.71679 0.3854,-0.53386 0.7708,-1.06771 1.1562,-1.60157 -2.191,-0.65916 -4.5597,-0.52578 -6.6921,0.28433 -0.9892,0.25629 -2.1538,0.76563 -3.0664,0.0652 -4.8716,-2.58547 -9.9694,-4.75907 -15.2786,-6.27137 -4.475,-1.28661 -8.8771,-2.80576 -13.2598,-4.375 0.1954,0.91276 0.3907,1.82552 0.586,2.73828 -0.7195,-0.12908 -1.4475,-0.21135 -2.1778,-0.24609 0.01,0.51463 0.3301,1.39336 0.1546,1.69091 -1.2989,-0.40544 -2.5978,-0.81087 -3.8967,-1.2163 0.905,-0.53748 -0.2424,-0.033 -0.6265,-0.19631 -1.2995,-0.37673 -2.5888,-0.86553 -3.8947,-1.1726 -2.2584,0.31191 -4.5621,0.30666 -6.805,-0.12328 1.4772,-0.96224 2.9544,-1.92448 4.4316,-2.88672 -2.5311,0.0161 -5.0688,-0.15643 -7.5955,-0.0118 -2.7554,0.26168 -5.4584,0.87665 -8.1701,1.40832 0.8164,-1.0664 1.6328,-2.13281 2.4492,-3.19921 -2.2304,0.85872 -4.4609,1.71744 -6.6914,2.57617 z m 0.3965,106.17192 c 0.011,-0.033 0.026,-0.1648 0,0 z" />
      <path
         id="path4802"
         style="fill:#0d1011;stroke-width:0.534126"
         d="m 1569.3945,1092.6426 c -0.2565,1.2728 -0.5125,2.5456 -0.7695,3.8183 3.0434,4.0521 5.4698,8.6853 9.4524,11.9362 1.7307,1.1496 3.4614,2.2991 5.1921,3.4486 -0.8264,-2.1201 -1.5014,-4.3075 -2.4253,-6.3843 -2.3447,-4.4505 -5.3049,-8.5474 -7.5582,-13.0504 -0.9255,-1.7642 -1.8522,-3.5278 -2.7782,-5.2919 -0.3711,1.8412 -0.7422,3.6823 -1.1133,5.5235 z" />
      <path
         id="path4804"
         style="fill:#0d1011;stroke-width:0.534126"
         d="m 1572.6914,1087.7988 c 0.9878,3.5839 2.9714,6.7856 4.9011,9.918 1.2628,1.1836 2.5256,2.3672 3.7884,3.5508 -0.122,-1.8221 -0.099,-3.6717 -0.3125,-5.4765 -0.4909,-1.3608 -0.8869,-2.7752 -1.4367,-4.1029 -1.4766,-1.5487 -2.2909,-3.5644 -3.299,-5.4084 -1.1701,-1.2066 -2.3403,-2.4131 -3.5104,-3.6196 -0.044,1.7128 -0.087,3.4257 -0.1309,5.1386 z" />
      <path
         id="path4806"
         style="fill:#0d1011;stroke-width:0.534126"
         d="m 1692.4902,1066.7402 c -0.4395,1.0274 -0.8574,2.0611 -0.9191,3.1905 -1.183,7.5637 -3.5564,14.9406 -7.0164,21.7705 -0.016,1.5097 -0.031,3.0195 -0.047,4.5293 1.2092,-0.9485 2.5107,-1.8191 3.6631,-2.8154 4.2213,-8.0036 7.0262,-16.7762 8.1477,-25.7527 -0.2032,-1.7651 -0.4064,-3.5301 -0.6096,-5.2952 -1.0729,1.4577 -2.1458,2.9154 -3.2188,4.373 z" />
      <path
         id="path4808"
         style="fill:#0d1011;stroke-width:0.534126"
         d="m 1609.3145,950.45508 c -3.0037,0.24483 -6.0259,0.40463 -9.0059,0.83958 -1.6999,0.6329 -3.3997,1.2658 -5.0996,1.8987 1.7882,0.67135 3.5441,1.46594 5.3524,2.0607 0.938,0.0693 1.9056,0.48216 2.7957,0.009 3.1124,-0.85967 6.4393,-0.32928 9.552,-1.13658 1.3571,-0.84629 2.7142,-1.69259 4.0714,-2.53888 -1.6022,-0.44002 -3.1946,-0.97482 -4.8029,-1.35553 -0.9544,0.0742 -1.9087,0.14848 -2.8631,0.22272 z" />
      <path
         id="path4810"
         style="fill:#0d1011;stroke-width:0.534126"
         d="m 1499.8457,1007.0039 c 0.2477,1.8888 -0.2669,3.8157 -1.3203,5.3926 -0.4237,0.4518 -0.3032,0.99 -0.1693,1.5307 0.128,0.7046 0.2561,1.4092 0.3841,2.1138 1.2112,-0.4776 2.5648,-0.6994 3.5251,-1.6442 0.7678,-0.6408 1.6811,-1.1461 2.4008,-1.8131 0.6457,-1.707 1.7417,-3.4688 1.3632,-5.361 -0.3116,-1.2278 -1.6635,-1.9645 -2.877,-1.6856 -0.5156,-0.9303 -1.0312,-1.8607 -1.5468,-2.791 -0.5866,1.4193 -1.1732,2.8385 -1.7598,4.2578 z" />
      <path
         id="path4812"
         style="fill:#0d1011;stroke-width:0.534126"
         d="m 1495.5449,1025.125 c -1.6099,2.0316 -2.9983,4.5391 -2.6056,7.2227 0.1569,0.9532 0.1973,1.9225 0.1804,2.878 0.3234,1.6839 0.6468,3.3678 0.9701,5.0516 0.9687,-1.5681 2.0691,-3.0747 2.9558,-4.6812 1.1039,-3.4037 1.7569,-6.9365 2.2808,-10.4687 0.2402,-1.7703 0.4803,-3.5407 0.7205,-5.311 -1.5007,1.7695 -3.0013,3.5391 -4.502,5.3086 z" />
      <path
         id="path4814"
         style="fill:#0d1011;stroke-width:0.534126"
         d="m 1622.166,1255.9805 c -4.095,4.0944 -8.1903,8.1885 -12.2851,12.2832 4.5661,4.566 9.133,9.1312 13.6992,13.6972 4.5678,-4.5663 9.1357,-9.1325 13.7051,-13.6972 -4.5694,-4.5648 -9.1373,-9.131 -13.7051,-13.6973 -0.4714,0.4714 -0.9427,0.9427 -1.4141,1.4141 z" />
    </g>
    <g
       id="g5494"
       style="fill:#9d0006;fill-opacity:1;filter:url(#filter5813)"
       transform="translate(0.47981094)">
      <path
         ns2:knockout="Off"
         fill="#a80030"
         d="m 1939.8136,1087.2283 c -4.2335,0.057 0.7962,2.1762 6.3247,3.0291 1.533,-1.1958 2.9101,-2.3972 4.1456,-3.5703 -3.4372,0.8416 -6.9396,0.8614 -10.4703,0.5412"
         id="path5470"
         style="fill:#9d0006;fill-opacity:1;stroke-width:0.534126" />
      <path
         ns2:knockout="Off"
         fill="#a80030"
         d="m 1962.5309,1081.5638 c 2.5304,-3.4825 4.3666,-7.2909 5.0155,-11.2297 -0.5696,2.8053 -2.0856,5.2281 -3.5251,7.7897 -7.9143,4.9844 -0.748,-2.9583 -0.01,-5.9818 -8.5066,10.7197 -1.1731,6.4267 -1.4848,9.4218"
         id="path5472"
         style="fill:#9d0006;fill-opacity:1;stroke-width:0.534126" />
      <path
         ns2:knockout="Off"
         fill="#a80030"
         d="m 1970.9269,1059.7335 c 0.5157,-7.6253 -1.499,-5.211 -2.1762,-2.3066 0.7877,0.4137 1.414,5.3783 2.1762,2.3066"
         id="path5474"
         style="fill:#9d0006;fill-opacity:1;stroke-width:0.534126" />
      <path
         ns2:knockout="Off"
         fill="#a80030"
         d="m 1923.7525,955.51519 c 2.2613,0.40238 4.8852,0.71408 4.5084,1.2553 2.4822,-0.54689 3.0404,-1.03994 -4.5084,-1.2553"
         id="path5476"
         style="fill:#9d0006;fill-opacity:1;stroke-width:0.534126" />
      <path
         ns2:knockout="Off"
         fill="#a80030"
         d="m 1928.2637,956.77049 -1.5897,0.33154 1.482,-0.13602 0.1077,-0.19552"
         id="path5478"
         style="fill:#9d0006;fill-opacity:1;stroke-width:0.534126" />
      <path
         ns2:knockout="Off"
         fill="#a80030"
         d="m 1998.231,1062.6238 c 0.2551,6.8461 -1.9976,10.1728 -4.0351,16.0554 l -3.6639,1.822 c -2.9951,5.8203 0.2975,3.6951 -1.8475,8.3224 -4.6812,4.157 -14.1852,13.0036 -17.2285,13.814 -2.2244,-0.048 1.5046,-2.6239 1.992,-3.6299 -6.2595,4.2958 -5.024,6.4494 -14.5989,9.0648 l -0.2777,-0.6262 c -23.6042,11.1078 -56.395,-10.901 -55.9643,-40.9262 -0.2494,1.9042 -0.7169,1.4281 -1.2383,2.1932 -1.2185,-15.4461 7.1351,-30.9603 21.2239,-37.3048 13.78,-6.8178 29.9346,-4.0238 39.7985,5.1827 -5.418,-7.1011 -16.2113,-14.6301 -28.9938,-13.933 -12.5275,0.204 -24.2503,8.1637 -28.1607,16.8091 -6.4152,4.038 -7.1634,15.5737 -9.9574,17.6876 -3.7659,27.6563 7.0756,39.6001 25.4177,53.6577 2.879,1.9439 0.8105,2.2414 1.1958,3.7206 -6.0923,-2.8506 -11.6689,-7.1578 -16.2594,-12.4312 2.4369,3.5619 5.0637,7.0246 8.4613,9.7449 -5.7495,-1.941 -13.4258,-13.9216 -15.6616,-14.409 9.9037,17.7329 40.1754,31.0991 56.0352,24.4656 -7.339,0.272 -16.6588,0.1502 -24.8992,-2.896 -3.4712,-1.7823 -8.1722,-5.4689 -7.3306,-6.1575 21.6377,8.0787 43.9837,6.115 62.7027,-8.8891 4.7662,-3.7121 9.9689,-10.0226 11.4735,-10.1076 -2.264,3.4061 0.3882,1.6379 -1.3516,4.6444 4.7378,-7.6537 -2.0658,-3.117 4.9022,-13.2161 l 2.5728,3.542 c -0.9634,-6.3587 7.8917,-14.0718 6.9907,-24.1199 2.0317,-3.0717 2.2641,3.3097 0.1105,10.3768 2.9894,-7.8407 0.7906,-9.1017 1.5556,-15.5737 0.8246,2.1763 1.9212,4.4857 2.4794,6.7837 -1.9495,-7.5799 1.9921,-12.7598 2.9725,-17.1661 -0.9691,-0.4251 -3.0065,3.3493 -3.4768,-5.5993 0.071,-3.8877 1.0853,-2.0374 1.4735,-2.9951 -0.7594,-0.4393 -2.7628,-3.4202 -3.9784,-9.1357 0.8756,-1.346 2.3576,3.4825 3.559,3.6781 -0.7735,-4.5423 -2.1025,-8.0079 -2.1592,-11.4961 -3.5137,-7.3391 -1.244,0.9804 -4.0889,-3.151 -3.7404,-11.6576 3.1,-2.7061 3.5647,-7.9994 5.6615,8.2034 8.8891,20.9265 10.3768,26.1942 -1.1335,-6.4239 -2.9612,-12.6494 -5.1969,-18.6708 1.7257,0.7282 -2.7742,-13.2133 2.2414,-3.9813 -5.3528,-19.67961 -22.8901,-38.06992 -39.0277,-46.6955 1.9694,1.80502 4.4601,4.07193 3.5704,4.42897 -8.0305,-4.77468 -6.6194,-5.15155 -7.7698,-7.1691 -6.5316,-2.66079 -6.968,0.21819 -11.2893,0.006 -12.3263,-6.54004 -14.7009,-5.8458 -26.0439,-9.93757 l 0.5157,2.41426 c -8.1637,-2.72029 -9.5125,1.02578 -18.3336,0.006 -0.5356,-0.41655 2.828,-1.51883 5.5993,-1.91837 -7.8946,1.04277 -7.5262,-1.5585 -15.2507,0.28619 1.9014,-1.33464 3.9189,-2.22157 5.9478,-3.35502 -6.4352,0.39104 -15.3696,3.74607 -12.6125,0.6914 -10.4986,4.68684 -29.1468,11.26371 -39.6114,21.07659 l -0.3287,-2.1989 c -4.7945,5.75512 -20.9094,17.18884 -22.193,24.64981 l -1.2837,0.29753 c -2.4907,4.22501 -4.1088,9.01101 -6.0866,13.35501 -3.2615,5.5624 -4.7832,2.1422 -4.3185,3.0149 -6.4182,13.0121 -9.6117,23.9443 -12.3632,32.9156 1.9609,2.9328 0.048,17.6592 0.7878,29.4443 -3.219,58.2142 40.8554,114.7311 89.0329,127.7772 7.0614,2.5304 17.56,2.4397 26.4916,2.6891 -10.5354,-3.015 -11.8956,-1.5954 -22.1647,-5.1742 -7.4043,-3.4911 -9.0251,-7.4723 -14.273,-12.026 l 2.0771,3.6696 c -10.2861,-3.6413 -5.9819,-4.5055 -14.3524,-7.155 l 2.2187,-2.8931 c -3.3352,-0.255 -8.8324,-5.6163 -10.3343,-8.5944 l -3.6497,0.1445 c -4.3808,-5.4009 -6.7185,-9.3028 -6.5457,-12.3263 l -1.1788,2.1025 c -1.3346,-2.2924 -16.1262,-20.2831 -8.4527,-16.095 -1.4253,-1.2978 -3.321,-2.1168 -5.3754,-5.8543 l 1.5613,-1.7824 c -3.6865,-4.752 -6.795,-10.8415 -6.557,-12.8704 1.9694,2.658 3.3352,3.1567 4.6897,3.6129 -9.3255,-23.1338 -9.8498,-1.2723 -16.9084,-23.5475 l 1.4905,-0.119 c -1.1419,-1.7314 -1.8418,-3.5987 -2.7599,-5.4378 l 0.6517,-6.4748 c -6.71,-7.7528 -1.8759,-32.9977 -0.9039,-46.84 0.6659,-5.6276 5.6021,-11.6208 9.351,-21.0199 l -2.2839,-0.3911 c 4.3694,-7.6168 24.9416,-30.60046 34.474,-29.42167 4.616,-5.79762 -0.9181,-0.0227 -1.822,-1.47916 10.1415,-10.49295 13.3294,-7.41279 20.1726,-9.30283 7.376,-4.37797 -6.3332,1.71152 -2.8364,-1.66901 12.7598,-3.25585 9.0393,-7.40713 25.6812,-9.05914 1.7569,0.99744 -4.0719,1.5415 -5.5341,2.83648 10.6261,-5.20256 33.6324,-4.01527 48.5827,2.88464 17.3334,8.10703 36.8203,32.05979 37.591,54.59569 l 0.8756,0.2352 c -0.442,8.96 1.3715,19.3226 -1.7767,28.8379 l 2.1281,-4.5083"
         id="path5480"
         style="fill:#9d0006;fill-opacity:1;stroke-width:0.534126" />
      <path
         ns2:knockout="Off"
         fill="#a80030"
         d="m 1893.5941,1093.0372 -0.5979,2.9669 c 2.7855,3.7829 4.9957,7.8803 8.5463,10.8273 -2.5559,-4.9844 -4.4516,-7.0444 -7.9484,-13.7942"
         id="path5482"
         style="fill:#9d0006;fill-opacity:1;stroke-width:0.534126" />
      <path
         ns2:knockout="Off"
         fill="#a80030"
         d="m 2016.5881,1067.4778 -0.6205,1.5642 c -1.1391,8.0985 -3.6072,16.1121 -7.3816,23.5447 4.1711,-7.8407 6.8602,-16.4181 8.0021,-25.1089"
         id="path5484"
         style="fill:#9d0006;fill-opacity:1;stroke-width:0.534126" />
      <path
         ns2:knockout="Off"
         fill="#a80030"
         d="m 1924.5941,953.48347 c 2.8592,-1.04561 7.0331,-0.57523 10.0764,-1.2638 -3.9614,0.33154 -7.903,0.52989 -11.7936,1.02578 l 1.7172,0.23802"
         id="path5486"
         style="fill:#9d0006;fill-opacity:1;stroke-width:0.534126" />
      <path
         ns2:knockout="Off"
         fill="#a80030"
         d="m 1824.0822,1006.9315 c 0.6602,6.1037 -4.5905,8.4754 1.1618,4.446 3.0887,-6.9537 -1.2015,-1.9184 -1.1618,-4.446"
         id="path5488"
         style="fill:#9d0006;fill-opacity:1;stroke-width:0.534126" />
      <path
         ns2:knockout="Off"
         fill="#a80030"
         d="m 1817.3155,1035.1942 c 1.329,-4.0719 1.567,-6.5145 2.0742,-8.8749 -3.6639,4.6868 -1.6888,5.6871 -2.0742,8.8749"
         id="path5490"
         style="fill:#9d0006;fill-opacity:1;stroke-width:0.534126" />
      <path
         ns2:knockout="Off"
         fill="#a80030"
         d="m 1956.6936,1268.2637 -10.8755,10.8698 -10.8699,-10.8698 10.8699,-10.8699 10.8755,10.8699"
         id="path5492"
         style="fill:#9d0006;fill-opacity:1;stroke-width:0.534126" />
    </g>
    <path
       ns2:knockout="Off"
       fill="#a80030"
       d="m 1900.171,1092.7822 c -1.4735,-1.6322 -2.3406,-3.593 -3.321,-5.5426 0.9351,3.4316 2.8506,6.3814 4.6273,9.385 l -1.3063,-3.8424"
       id="path2384"
       style="stroke-width:0.534126" />
    <path
       ns2:knockout="Off"
       d="m 1805.1252,1307.8581 c -0.1275,0.1331 -0.1275,21.2692 -0.3911,26.7863 -0.2607,4.4602 -0.6574,14.0464 -10.1104,14.0464 -9.7165,0 -12.0798,-11.1617 -12.8675,-16.0157 -0.9181,-5.384 -0.9181,-9.8526 -0.9181,-11.8163 0,-6.3049 0.3939,-23.9046 15.2308,-23.9046 4.4658,0 6.9594,1.3177 8.9288,2.3633 z m -38.0756,15.4971 c 0,37.0243 19.6966,37.0243 22.5841,37.0243 8.141,0 13.3946,-4.4658 15.6247,-12.2101 l 0.2635,11.6831 c 2.4964,-0.1332 4.99,-0.3939 9.0591,-0.3939 1.4452,0 2.624,0 3.6781,0.1332 1.0513,0 2.0997,0.1275 3.2813,0.2607 -2.0997,-4.1995 -3.6752,-13.6525 -3.6752,-34.1425 0,-19.9573 0,-53.7003 1.7059,-63.9439 -4.7237,2.2358 -8.7985,3.6809 -17.7273,4.4658 3.5449,3.8085 3.5449,5.7778 3.5449,23.1055 -2.4908,-0.7849 -5.6446,-1.7058 -11.0285,-1.7058 -23.5022,0 -27.3106,20.4872 -27.3106,35.7236"
       id="path2394"
       style="fill:#ebdbb2;stroke-width:0.999999" />
    <path
       ns2:knockout="Off"
       d="m 1838.2589,1316.6508 c 0.1332,-10.8981 2.3661,-20.6147 11.6859,-20.6147 10.2436,0 11.0257,11.2892 10.765,20.6147 z m 35.4488,1.3177 c 0,-15.364 -3.0178,-30.4673 -22.4509,-30.4673 -26.7836,0 -26.7836,29.6824 -26.7836,35.9787 0,26.6532 11.9467,37.1575 32.0371,37.1575 8.9232,0 13.2615,-1.3063 15.6247,-1.9694 -0.1303,-4.7265 0.5242,-7.7472 1.3177,-11.8163 -2.7628,1.7116 -6.3077,3.9416 -14.1852,3.9416 -20.4844,0 -20.7479,-18.651 -20.7479,-25.0833 h 34.9331 l 0.255,-7.7415"
       id="path2396"
       style="fill:#ebdbb2;stroke-width:0.999999" />
    <path
       ns2:knockout="Off"
       d="m 1916.4248,1323.6131 c 0,12.2101 -2.2301,28.6254 -17.4609,28.6254 -2.1026,0 -4.7265,-0.3996 -6.4324,-0.7906 -0.2635,-4.7265 -0.2635,-12.8675 -0.2635,-22.3206 0,-11.2948 1.1788,-17.1945 2.1026,-20.0904 2.7543,-9.3199 8.9259,-9.4474 10.1047,-9.4474 9.9801,0 11.9495,13.7857 11.9495,24.0236 z m -37.6817,14.3127 c 0,9.7194 0,15.2308 -1.5755,19.4302 5.3839,2.1026 12.0769,3.2814 20.0904,3.2814 5.1204,0 19.9573,0 27.9652,-16.4096 3.8084,-7.6168 5.1204,-17.8604 5.1204,-25.6076 0,-4.7265 -0.5271,-15.0976 -4.3327,-21.666 -3.6723,-6.166 -9.5833,-9.3198 -15.8825,-9.3198 -12.6068,0 -16.2821,10.5043 -18.2486,15.8882 0,-6.6959 0.1275,-30.0677 1.176,-42.0172 -8.5321,3.9416 -13.7885,4.5934 -19.4303,5.1204 5.1204,2.0969 5.1204,10.7707 5.1204,39.0022 v 32.2978"
       id="path2398"
       style="fill:#ebdbb2;stroke-width:0.999999" />
    <path
       ns2:knockout="Off"
       d="m 1955.5856,1359.8525 c -2.6296,-0.3939 -4.4715,-0.6574 -8.2799,-0.6574 -4.1938,0 -7.0897,0.2663 -10.1047,0.6574 1.312,-2.4965 1.8362,-3.6809 2.23,-12.2102 0.5271,-11.6887 0.6575,-42.9409 -0.2606,-49.5064 -0.6574,-4.9929 -1.8362,-5.7778 -3.6753,-7.0898 10.765,-1.0513 13.7857,-1.8362 18.7729,-4.1995 -1.0456,5.7722 -1.1845,8.6681 -1.1845,17.4609 -0.2579,45.307 -0.391,50.1611 2.5021,55.545"
       id="path2400"
       style="fill:#ebdbb2;stroke-width:0.999999" />
    <path
       ns2:knockout="Off"
       d="m 1997.6311,1322.6893 c -0.2607,8.2742 -0.3939,14.052 -2.6296,18.6453 -2.7571,5.911 -7.3505,7.6169 -10.765,7.6169 -7.886,0 -9.5862,-6.5627 -9.5862,-12.9951 0,-12.3405 11.0314,-13.2671 16.0157,-13.2671 z m -36.1119,16.1546 c 0,8.2742 2.4965,16.5428 9.8526,20.0905 3.2814,1.4451 6.5627,1.4451 7.6168,1.4451 12.0826,0 16.1489,-8.9316 18.6453,-14.4459 -0.1331,5.7778 0,9.3199 0.3939,13.9189 2.3633,-0.1332 4.7265,-0.3939 8.6681,-0.3939 2.2301,0 4.3326,0.2607 6.5627,0.3939 -1.4451,-2.2301 -2.2301,-3.5477 -2.6296,-8.6681 -0.2607,-4.9872 -0.2607,-9.9773 -0.2607,-16.9367 l 0.1332,-26.7863 c 0,-9.9829 -2.6296,-19.8298 -22.3262,-19.8298 -12.9951,0 -20.6091,3.9416 -24.4175,5.9109 1.5784,2.8903 2.8903,5.3783 4.0691,11.0314 5.1261,-4.4658 11.822,-6.8291 18.6454,-6.8291 10.9038,0 10.9038,7.223 10.9038,17.4609 -2.4965,-0.1275 -4.599,-0.3882 -8.1467,-0.3882 -16.6816,0 -27.7102,6.4267 -27.7102,24.0264"
       id="path2402"
       style="fill:#ebdbb2;stroke-width:0.999999" />
    <path
       ns2:knockout="Off"
       d="m 2073.2609,1346.8546 c 0.1332,4.4658 0.1332,9.1923 1.9693,13.0007 -2.8931,-0.2607 -4.5989,-0.6574 -9.9772,-0.6574 -3.1538,0 -4.8597,0.2664 -7.3561,0.6574 0.5214,-1.7059 0.7906,-2.3633 1.0513,-4.599 0.3938,-3.015 0.6574,-13.1282 0.6574,-16.6759 v -14.1796 c 0,-6.1716 0,-15.1032 -0.3996,-18.2514 -0.2607,-2.2301 -0.9124,-8.2686 -8.5349,-8.2686 -7.4836,0 -9.9772,5.5115 -10.8981,9.9773 -1.0457,4.5933 -1.0457,9.5862 -1.0457,29.0164 0.1276,16.8091 0.1276,18.379 1.4395,22.978 -2.23,-0.2607 -4.9872,-0.5214 -8.9259,-0.5214 -3.1539,0 -5.2536,0.1275 -7.8747,0.5214 0.9181,-2.1026 1.4452,-3.1539 1.7058,-10.5043 0.2664,-7.223 0.7906,-42.6774 -0.3995,-51.0763 -0.6517,-5.1261 -1.9694,-6.3049 -3.4089,-7.6168 10.6375,-0.5271 14.0464,-2.2358 17.3334,-3.936 v 13.9132 c 1.5727,-4.0748 4.854,-13.1339 17.9879,-13.1339 16.4153,0 16.5428,11.9494 16.676,19.8241 v 39.5321"
       id="path2404"
       style="fill:#ebdbb2;stroke-width:0.999999" />
  </g>
  <g
     inkscape:groupmode="layer"
     id="layer3"
     inkscape:label="debian logo sign only centered"
     style="display:none"
     sodipodi:insensitive="true">
    <g
       id="g2314"
       transform="translate(-294.77138,0.017)">
      <path
         ns2:knockout="Off"
         fill="#a80030"
         d="m 2234.8136,1087.2283 c -4.2335,0.057 0.7962,2.1762 6.3247,3.0291 1.533,-1.1958 2.9101,-2.3972 4.1456,-3.5703 -3.4372,0.8416 -6.9396,0.8614 -10.4703,0.5412"
         id="path2228"
         style="fill:#458588;stroke-width:0.534126" />
      <path
         ns2:knockout="Off"
         fill="#a80030"
         d="m 2257.5309,1081.5638 c 2.5304,-3.4825 4.3666,-7.2909 5.0155,-11.2297 -0.5696,2.8053 -2.0856,5.2281 -3.5251,7.7897 -7.9143,4.9844 -0.748,-2.9583 -0.01,-5.9818 -8.5066,10.7197 -1.1731,6.4267 -1.4848,9.4218"
         id="path2230"
         style="fill:#458588;stroke-width:0.534126" />
      <path
         ns2:knockout="Off"
         fill="#a80030"
         d="m 2265.9269,1059.7335 c 0.5157,-7.6253 -1.499,-5.211 -2.1762,-2.3066 0.7877,0.4137 1.414,5.3783 2.1762,2.3066"
         id="path2232"
         style="fill:#458588;stroke-width:0.534126" />
      <path
         ns2:knockout="Off"
         fill="#a80030"
         d="m 2218.7525,955.51519 c 2.2613,0.40238 4.8852,0.71408 4.5084,1.2553 2.4822,-0.54689 3.0404,-1.03994 -4.5084,-1.2553"
         id="path2234"
         style="fill:#458588;stroke-width:0.534126" />
      <path
         ns2:knockout="Off"
         fill="#a80030"
         d="m 2223.2637,956.77049 -1.5897,0.33154 1.482,-0.13602 0.1077,-0.19552"
         id="path2236"
         style="fill:#458588;stroke-width:0.534126" />
      <path
         ns2:knockout="Off"
         fill="#a80030"
         d="m 2293.7334,1062.6238 c 0.255,6.8461 -1.9977,10.1728 -4.0351,16.0554 l -3.6639,1.822 c -2.9951,5.8203 0.2975,3.6951 -1.8475,8.3224 -4.6812,4.157 -14.1852,13.0036 -17.2285,13.814 -2.2244,-0.048 1.5046,-2.6239 1.992,-3.6299 -6.2595,4.2958 -5.024,6.4494 -14.5989,9.0648 l -0.2777,-0.6262 c -23.6042,11.1078 -56.395,-10.901 -55.9643,-40.9262 -0.2494,1.9042 -0.7169,1.4281 -1.2383,2.1932 -1.2185,-15.4461 7.1351,-30.9603 21.2239,-37.3048 13.78,-6.8178 29.9346,-4.0238 39.7985,5.1827 -5.418,-7.1011 -16.2113,-14.6301 -28.9938,-13.933 -12.5275,0.204 -24.2503,8.1637 -28.1607,16.8091 -6.4153,4.038 -7.1634,15.5737 -9.9574,17.6876 -3.7659,27.6563 7.0756,39.6001 25.4177,53.6577 2.879,1.9439 0.8105,2.2414 1.1958,3.7206 -6.0923,-2.8506 -11.6689,-7.1578 -16.2594,-12.4312 2.4369,3.5619 5.0637,7.0246 8.4613,9.7449 -5.7495,-1.941 -13.4258,-13.9216 -15.6616,-14.409 9.9036,17.7329 40.1753,31.0991 56.0352,24.4656 -7.3391,0.272 -16.6589,0.1502 -24.8992,-2.896 -3.4712,-1.7823 -8.1722,-5.4689 -7.3306,-6.1575 21.6377,8.0787 43.9837,6.115 62.7027,-8.8891 4.7662,-3.7121 9.9688,-10.0226 11.4734,-10.1076 -2.264,3.4061 0.3882,1.6379 -1.3516,4.6444 4.7378,-7.6537 -2.0657,-3.117 4.9022,-13.2161 l 2.5729,3.542 c -0.9634,-6.3587 7.8917,-14.0718 6.9906,-24.1199 2.0317,-3.0717 2.2641,3.3097 0.1105,10.3768 2.9895,-7.8407 0.7906,-9.1017 1.5557,-15.5737 0.8246,2.1763 1.9212,4.4857 2.4794,6.7837 -1.9495,-7.5799 1.9921,-12.7598 2.9725,-17.1661 -0.9691,-0.4251 -3.0065,3.3493 -3.4769,-5.5993 0.071,-3.8877 1.0853,-2.0374 1.4735,-2.9951 -0.7594,-0.4393 -2.7628,-3.4202 -3.9784,-9.1357 0.8756,-1.346 2.3576,3.4825 3.559,3.6781 -0.7735,-4.5423 -2.1025,-8.0079 -2.1592,-11.4961 -3.5137,-7.3391 -1.244,0.9804 -4.0889,-3.151 -3.7404,-11.6576 3.1,-2.7061 3.5647,-7.9994 5.6616,8.2034 8.8891,20.9265 10.3768,26.1942 -1.1335,-6.4239 -2.9612,-12.6494 -5.1969,-18.6708 1.7257,0.7282 -2.7742,-13.2133 2.2414,-3.9813 -5.3528,-19.67961 -22.8901,-38.06992 -39.0277,-46.6955 1.9694,1.80502 4.4601,4.07193 3.5704,4.42897 -8.0305,-4.77468 -6.6194,-5.15155 -7.7698,-7.1691 -6.5316,-2.66079 -6.968,0.21819 -11.2893,0.006 -12.3263,-6.54004 -14.7009,-5.8458 -26.0439,-9.93757 l 0.5157,2.41426 c -8.1637,-2.72029 -9.5125,1.02578 -18.3336,0.006 -0.5356,-0.41655 2.828,-1.51883 5.5993,-1.91837 -7.8946,1.04277 -7.5262,-1.5585 -15.2507,0.28619 1.9014,-1.33464 3.9189,-2.22157 5.9478,-3.35502 -6.4352,0.39104 -15.3696,3.74607 -12.6125,0.6914 -10.4986,4.68684 -29.1468,11.26371 -39.6114,21.07659 l -0.3287,-2.1989 c -4.7945,5.75512 -20.9094,17.18884 -22.193,24.64981 l -1.2837,0.29753 c -2.4907,4.22501 -4.1088,9.01101 -6.0866,13.35501 -3.2615,5.5624 -4.7832,2.1422 -4.3185,3.0149 -6.4182,13.0121 -9.6117,23.9443 -12.3632,32.9156 1.9609,2.9328 0.048,17.6592 0.7878,29.4443 -3.219,58.2142 40.8554,114.7311 89.0329,127.7772 7.0614,2.5304 17.56,2.4397 26.4916,2.6891 -10.5354,-3.015 -11.8956,-1.5954 -22.1647,-5.1742 -7.4043,-3.4911 -9.0251,-7.4723 -14.273,-12.026 l 2.0771,3.6696 c -10.2861,-3.6413 -5.9819,-4.5055 -14.3524,-7.155 l 2.2187,-2.8931 c -3.3352,-0.255 -8.8324,-5.6163 -10.3343,-8.5944 l -3.6497,0.1445 c -4.3808,-5.4009 -6.7185,-9.3028 -6.5457,-12.3263 l -1.1788,2.1025 c -1.3346,-2.2924 -16.1262,-20.2831 -8.4527,-16.095 -1.4253,-1.2978 -3.321,-2.1168 -5.3754,-5.8543 l 1.5613,-1.7824 c -3.6865,-4.752 -6.795,-10.8415 -6.557,-12.8704 1.9694,2.658 3.3352,3.1567 4.6897,3.6129 -9.3255,-23.1338 -9.8498,-1.2723 -16.9084,-23.5475 l 1.4905,-0.119 c -1.1419,-1.7314 -1.8418,-3.5987 -2.7599,-5.4378 l 0.6517,-6.4748 c -6.71,-7.7528 -1.8759,-32.9977 -0.9039,-46.84 0.6659,-5.6276 5.6021,-11.6208 9.351,-21.0199 l -2.2839,-0.3911 c 4.3694,-7.6168 24.9416,-30.60046 34.474,-29.42167 4.616,-5.79762 -0.9181,-0.0227 -1.822,-1.47916 10.1415,-10.49295 13.3294,-7.41279 20.1726,-9.30283 7.376,-4.37797 -6.3332,1.71152 -2.8364,-1.66901 12.7598,-3.25585 9.0393,-7.40713 25.6812,-9.05914 1.7569,0.99744 -4.0719,1.5415 -5.5341,2.83648 10.6261,-5.20256 33.6324,-4.01527 48.5827,2.88464 17.3334,8.10703 36.8203,32.05979 37.591,54.59569 l 0.8756,0.2352 c -0.442,8.96 1.3715,19.3226 -1.7767,28.8379 l 2.1281,-4.5083"
         id="path2238"
         style="fill:#458588;stroke-width:0.534126" />
      <path
         ns2:knockout="Off"
         fill="#a80030"
         d="m 2188.5941,1093.0372 -0.5979,2.9669 c 2.7855,3.7829 4.9957,7.8803 8.5463,10.8273 -2.5559,-4.9844 -4.4516,-7.0444 -7.9484,-13.7942"
         id="path2240"
         style="fill:#458588;stroke-width:0.534126" />
      <path
         ns2:knockout="Off"
         fill="#a80030"
         d="m 2195.171,1092.7822 c -1.4735,-1.6322 -2.3406,-3.593 -3.321,-5.5426 0.9351,3.4316 2.8506,6.3814 4.6273,9.385 l -1.3063,-3.8424"
         id="path2242"
         style="fill:#458588;stroke-width:0.534126" />
      <path
         ns2:knockout="Off"
         fill="#a80030"
         d="m 2311.5881,1067.4778 -0.6205,1.5642 c -1.1391,8.0985 -3.6072,16.1121 -7.3816,23.5447 4.1711,-7.8407 6.8602,-16.4181 8.0021,-25.1089"
         id="path2244"
         style="fill:#458588;stroke-width:0.534126" />
      <path
         ns2:knockout="Off"
         fill="#a80030"
         d="m 2219.5941,953.48347 c 2.8592,-1.04561 7.0331,-0.57523 10.0764,-1.2638 -3.9614,0.33154 -7.903,0.52989 -11.7936,1.02578 l 1.7172,0.23802"
         id="path2246"
         style="fill:#458588;stroke-width:0.534126" />
      <path
         ns2:knockout="Off"
         fill="#a80030"
         d="m 2119.0822,1006.9315 c 0.6602,6.1037 -4.5905,8.4754 1.1618,4.446 3.0887,-6.9537 -1.2015,-1.9184 -1.1618,-4.446"
         id="path2248"
         style="fill:#458588;stroke-width:0.534126" />
      <path
         ns2:knockout="Off"
         fill="#a80030"
         d="m 2112.3155,1035.1942 c 1.329,-4.0719 1.567,-6.5145 2.0742,-8.8749 -3.6639,4.6868 -1.6888,5.6871 -2.0742,8.8749"
         id="path2250"
         style="fill:#458588;stroke-width:0.534126" />
    </g>
  </g>
</svg>
