<?xml version="1.0" encoding="UTF-8" standalone="no"?>
<!-- Created with Inkscape (http://www.inkscape.org/) -->

<svg
   width="3840"
   height="2160"
   viewBox="0 0 3840 2160"
   version="1.1"
   id="svg9784"
   inkscape:version="1.2 (dc2aedaf03, 2022-05-15)"
   sodipodi:docname="wallpaper_fedora_gruvbox.svg"
   inkscape:export-filename="../wallpaper_fedora_gruvbox.png"
   inkscape:export-xdpi="96"
   inkscape:export-ydpi="96"
   xmlns:inkscape="http://www.inkscape.org/namespaces/inkscape"
   xmlns:sodipodi="http://sodipodi.sourceforge.net/DTD/sodipodi-0.dtd"
   xmlns:xlink="http://www.w3.org/1999/xlink"
   xmlns="http://www.w3.org/2000/svg"
   xmlns:svg="http://www.w3.org/2000/svg">
  <sodipodi:namedview
     id="namedview9786"
     pagecolor="#505050"
     bordercolor="#eeeeee"
     borderopacity="1"
     inkscape:showpageshadow="0"
     inkscape:pageopacity="0"
     inkscape:pagecheckerboard="0"
     inkscape:deskcolor="#505050"
     inkscape:document-units="px"
     showgrid="false"
     inkscape:zoom="0.2973261"
     inkscape:cx="1227.6083"
     inkscape:cy="1200.7019"
     inkscape:window-width="1920"
     inkscape:window-height="1011"
     inkscape:window-x="0"
     inkscape:window-y="0"
     inkscape:window-maximized="1"
     inkscape:current-layer="layer1" />
  <defs
     id="defs9781">
    <linearGradient
       inkscape:collect="always"
       id="linearGradient10815">
      <stop
         style="stop-color:#ebdbb2;stop-opacity:1;"
         offset="0"
         id="stop10811" />
      <stop
         style="stop-color:#ebdbb2;stop-opacity:0;"
         offset="0.99999994"
         id="stop10813" />
    </linearGradient>
    <radialGradient
       inkscape:collect="always"
       xlink:href="#linearGradient10815"
       id="radialGradient10817"
       cx="1920"
       cy="1080"
       fx="1920"
       fy="1080"
       r="450"
       gradientUnits="userSpaceOnUse" />
  </defs>
  <g
     inkscape:groupmode="layer"
     id="g74226"
     inkscape:label="background"
     style="display:inline;fill:#32302f;fill-opacity:1"
     transform="translate(0,1.7382812e-5)"
     sodipodi:insensitive="true">
    <rect
       style="display:inline;fill:#3c3836;fill-opacity:1;stroke:none;stroke-width:12.9605"
       id="rect74224"
       width="3840"
       height="2160"
       x="0"
       y="-1.7382812e-05"
       inkscape:export-filename="../wallpaper_tuxedo_gruvbox.png"
       inkscape:export-xdpi="90"
       inkscape:export-ydpi="90" />
  </g>
  <g
     inkscape:groupmode="layer"
     id="g10891"
     inkscape:label="background radial copy"
     style="display:none;fill:#32302f;fill-opacity:1"
     transform="translate(0,1.7382812e-5)"
     sodipodi:insensitive="true">
    <rect
       style="display:inline;fill:#3c3836;fill-opacity:1;stroke:none;stroke-width:12.9605"
       id="rect10887"
       width="3840"
       height="2160"
       x="0"
       y="-1.7382812e-05"
       inkscape:export-filename="../wallpaper_tuxedo_gruvbox.png"
       inkscape:export-xdpi="90"
       inkscape:export-ydpi="90" />
    <circle
       style="fill:url(#radialGradient10817);fill-opacity:1;stroke:none;stroke-width:3.77954;stop-color:#000000"
       id="circle10889"
       cx="1920"
       cy="1080"
       r="450" />
  </g>
  <g
     inkscape:groupmode="layer"
     id="g368"
     inkscape:label="color lines"
     style="fill:#af3a03;stroke:none"
     transform="translate(2.9527502,337.07657)"
     sodipodi:insensitive="true">
    <g
       inkscape:groupmode="layer"
       id="g364"
       inkscape:label="color lines"
       style="fill:#d79921;stroke:none"
       transform="translate(-2.9527502,-92.70782)" />
    <g
       inkscape:groupmode="layer"
       id="layer2"
       inkscape:label="color lines"
       style="fill:#689d6a;stroke:none"
       transform="translate(-2.9527502,-337.07657)" />
    <g
       inkscape:groupmode="layer"
       id="g360"
       inkscape:label="color lines"
       style="fill:#076678;stroke:none"
       transform="translate(-2.9527629,-180.90609)">
      <g
         id="g1156"
         transform="translate(0,-28.078023)">
        <rect
           style="fill:#fb4934;stroke:none;stroke-width:3.77953;stop-color:#000000"
           id="rect366"
           width="3840"
           height="90.338997"
           x="-2.9527502"
           y="861.34045"
           transform="translate(2.9527629,180.90609)" />
        <rect
           style="fill:#fabd2f;stroke:none;stroke-width:3.77953;stop-color:#000000"
           id="rect362"
           width="3840"
           height="90.338997"
           x="0"
           y="863.70929"
           transform="translate(1.27e-5,88.19827)" />
        <rect
           style="fill:#8ec07c;stroke:none;stroke-width:3.77953;stop-color:#000000"
           id="rect201"
           width="3840"
           height="90.338997"
           x="0"
           y="927.40002"
           transform="translate(1.27e-5,-156.17048)" />
        <rect
           style="fill:#458588;stroke:none;stroke-width:3.77953;stop-color:#000000"
           id="rect358"
           width="3840"
           height="90.338997"
           x="1.2710681e-05"
           y="861.56854" />
      </g>
    </g>
  </g>
  <g
     inkscape:label="Fedora Logo"
     inkscape:groupmode="layer"
     id="layer1"
     style="display:inline">
    <path
       d="m 2220.0036,1080.0138 c 0,-165.69083 -134.3188,-300.01381 -300.0085,-300.01381 -165.6149,0 -299.8812,134.2102 -299.9987,299.80221 v 232.1616 c 0.088,37.5987 30.5833,68.0362 68.2055,68.0362 h 231.9149 c 165.6344,-0.064 299.8868,-134.3394 299.8868,-299.9862"
       id="voice"
       style="fill:#076678;stroke-width:10;stroke:#3c3836;stroke-dasharray:none" />
    <path
       d="m 1792.9598,1099.3749 c 0,0 107.8197,0 107.8197,0 0,0 0,107.8199 0,107.8199 0,59.5166 -48.3031,107.8197 -107.8197,107.8197 -59.5165,0 -107.82,-48.3031 -107.82,-107.8197 0,-59.5166 48.3035,-107.8199 107.82,-107.8199 z"
       id="in"
       style="fill:none;stroke:#458588;stroke-width:29.2099" />
    <use
       transform="rotate(180,1900.5198,1099.4798)"
       id="finity"
       xlink:href="#in"
       x="0"
       y="0"
       style="stroke:#458588;stroke-width:0.443748" />
    <path
       d="m 1933.7631,1066.5447 v 140.4993 c 0,77.756 -63.0435,140.8009 -140.8021,140.8009 -11.7971,0 -20.1839,-1.332 -31.1042,-4.1864 -15.9233,-4.1671 -28.9364,-17.2227 -28.9418,-32.4084 0,-18.3553 13.3236,-31.707 33.2403,-31.707 9.4791,0 12.9187,1.8201 26.8057,1.8201 40.9953,0 74.2485,-33.2063 74.3205,-74.2017 v -64.5786 c 0,-5.7865 -4.7024,-10.475 -10.4984,-10.475 l -48.8233,-0.01 c -18.191,0 -32.8881,-14.5092 -32.8881,-32.7498 0,-18.3541 14.848,-32.8038 33.2351,-32.8038"
       id="free"
       style="fill:#f9f5d7;stroke-width:1" />
    <use
       transform="rotate(180,1900.5198,1099.4798)"
       id="dom"
       xlink:href="#free"
       x="0"
       y="0"
       style="fill:#f9f5d7;stroke-width:0.443748" />
    <path
       d="m 2168.2372,1328.0787 c 0,0 0,-12.4651 0,-12.4651 l -5.6981,13.0654 c 0,0 -5.5468,-13.0654 -5.5468,-13.0654 l 9e-4,12.4651 h -3.1963 v -19.6845 h 3.3513 c 0,0 5.4849,12.576 5.4849,12.576 l 5.4022,-12.576 h 3.3925 v 19.6845 z m -23.286,-16.3873 v 16.3873 h -3.34 v -16.3873 h -5.5997 v -3.2972 h 14.5341 v 3.2972"
       id="TM"
       style="fill:#458588;stroke-width:1" />
  </g>
</svg>
